<?xml version="1.0" encoding="UTF-8"?><svg id="Layer_2" xmlns="http://www.w3.org/2000/svg" width="1162.7" height="442.95" xmlns:xlink="http://www.w3.org/1999/xlink" viewBox="0 0 1162.7 442.95"><defs><clipPath id="clippath"><polygon points="30.82 11.47 73.72 54.37 73.72 82.84 23.58 82.84 23.58 11.47 30.82 11.47" style="fill:none; stroke-width:0px;"/></clipPath><clipPath id="clippath-1"><polygon points="30.82 11.47 73.72 54.37 102.19 54.37 102.19 4.23 30.82 4.23 30.82 11.47" style="fill:none; stroke-width:0px;"/></clipPath><clipPath id="clippath-2"><polygon points="20.15 .68 61.08 41.61 61.08 52.72 20.15 52.72 20.15 .68" style="fill:none; stroke-width:0px;"/></clipPath><clipPath id="clippath-3"><polygon points="20.15 .68 61.08 41.61 72.19 41.61 72.19 .68 20.15 .68" style="fill:none; stroke-width:0px;"/></clipPath><clipPath id="clippath-4"><polygon points="30.82 417.83 73.72 374.94 102.19 374.94 102.19 425.08 30.82 425.08 30.82 417.83" style="fill:none; stroke-width:0px;"/></clipPath><clipPath id="clippath-5"><polygon points="30.83 417.83 73.72 374.94 73.72 346.47 23.58 346.47 23.58 417.83 30.83 417.83" style="fill:none; stroke-width:0px;"/></clipPath><clipPath id="clippath-6"><polygon points="20.03 428.5 60.96 387.57 72.07 387.57 72.07 428.5 20.03 428.5" style="fill:none; stroke-width:0px;"/></clipPath><clipPath id="clippath-7"><polygon points="20.03 428.5 60.96 387.57 60.96 376.46 20.03 376.46 20.03 428.5" style="fill:none; stroke-width:0px;"/></clipPath><clipPath id="clippath-8"><polygon points="1151.23 417.8 1108.33 374.9 1108.33 346.44 1158.48 346.44 1158.48 417.8 1151.23 417.8" style="fill:none; stroke-width:0px;"/></clipPath><clipPath id="clippath-9"><polygon points="1151.23 417.8 1108.33 374.9 1079.87 374.9 1079.87 425.05 1151.23 425.05 1151.23 417.8" style="fill:none; stroke-width:0px;"/></clipPath><clipPath id="clippath-10"><polygon points="1161.9 428.59 1120.97 387.66 1120.97 376.55 1161.9 376.55 1161.9 428.59" style="fill:none; stroke-width:0px;"/></clipPath><clipPath id="clippath-11"><polygon points="1161.9 428.59 1120.97 387.66 1109.86 387.66 1109.86 428.59 1161.9 428.59" style="fill:none; stroke-width:0px;"/></clipPath><clipPath id="clippath-12"><polygon points="1151.23 11.44 1108.33 54.34 1079.87 54.34 1079.87 4.19 1151.23 4.19 1151.23 11.44" style="fill:none; stroke-width:0px;"/></clipPath><clipPath id="clippath-13"><polygon points="1151.23 11.44 1108.33 54.34 1108.33 82.8 1158.48 82.8 1158.48 11.44 1151.23 11.44" style="fill:none; stroke-width:0px;"/></clipPath><clipPath id="clippath-14"><polygon points="1162.02 .77 1121.09 41.7 1109.98 41.7 1109.98 .77 1162.02 .77" style="fill:none; stroke-width:0px;"/></clipPath><clipPath id="clippath-15"><polygon points="1162.02 .77 1121.09 41.7 1121.09 52.81 1162.02 52.81 1162.02 .77" style="fill:none; stroke-width:0px;"/></clipPath></defs><g id="Frame"><g id="_Mirror_Repeat_"><g style="clip-path:url(#clippath);"><path d="M73.24,53.95c-41.66-7.48-51.28,26.6-48.72,27.99,2.56,1.4,7.47-.8,11.51-20.31,4.04-19.51-4.53-50.01-4.53-50.01" style="fill:none; stroke:#ff002b; stroke-miterlimit:10; stroke-width:1.11px;"/><path d="M40.01,79.67s2.96-14.79,33.51-26.04" style="fill:none; stroke:#ff002b; stroke-miterlimit:10; stroke-width:1.11px;"/></g></g><g id="_Mirror_Repeat_-2"><g style="clip-path:url(#clippath-1);"><path d="M73.3,53.88C65.82,12.22,99.9,2.6,101.29,5.16c1.4,2.56-.8,7.47-20.31,11.51-19.51,4.04-50.01-4.53-50.01-4.53" style="fill:none; stroke:#ff002b; stroke-miterlimit:10; stroke-width:1.11px;"/><path d="M99.02,20.66s-14.79,2.96-26.04,33.51" style="fill:none; stroke:#ff002b; stroke-miterlimit:10; stroke-width:1.11px;"/></g></g><g id="_Mirror_Repeat_-3"><g style="clip-path:url(#clippath-2);"><polyline points="60.53 52.72 60.53 40.82 20.71 40.82 20.71 0" style="fill:none; stroke:#ff002b; stroke-miterlimit:10; stroke-width:1.11px;"/></g></g><g id="_Mirror_Repeat_-4"><g style="clip-path:url(#clippath-3);"><polyline points="72.19 41.06 60.29 41.06 60.29 1.24 19.47 1.24" style="fill:none; stroke:#ff002b; stroke-miterlimit:10; stroke-width:1.11px;"/></g></g><g id="_Mirror_Repeat_-5"><g style="clip-path:url(#clippath-4);"><path d="M73.3,375.42c-7.48,41.66,26.6,51.28,27.99,48.72s-.8-7.47-20.31-11.51c-19.51-4.04-50.01,4.53-50.01,4.53" style="fill:none; stroke:#ff002b; stroke-miterlimit:10; stroke-width:1.11px;"/><path d="M99.02,408.64s-14.79-2.96-26.04-33.51" style="fill:none; stroke:#ff002b; stroke-miterlimit:10; stroke-width:1.11px;"/></g></g><g id="_Mirror_Repeat_-6"><g style="clip-path:url(#clippath-5);"><path d="M73.24,375.35c-41.66,7.48-51.28-26.6-48.72-27.99s7.47.8,11.51,20.31c4.04,19.51-4.53,50.01-4.53,50.01" style="fill:none; stroke:#ff002b; stroke-miterlimit:10; stroke-width:1.11px;"/><path d="M40.01,349.63s2.96,14.79,33.51,26.04" style="fill:none; stroke:#ff002b; stroke-miterlimit:10; stroke-width:1.11px;"/></g></g><g id="_Mirror_Repeat_-7"><g style="clip-path:url(#clippath-6);"><polyline points="72.07 388.13 60.17 388.13 60.17 427.95 19.35 427.95" style="fill:none; stroke:#ff002b; stroke-miterlimit:10; stroke-width:1.11px;"/></g></g><g id="_Mirror_Repeat_-8"><g style="clip-path:url(#clippath-7);"><polyline points="60.41 376.46 60.41 388.36 20.59 388.36 20.59 429.18" style="fill:none; stroke:#ff002b; stroke-miterlimit:10; stroke-width:1.11px;"/></g></g><line x1="39.99" y1="79.66" x2="39.99" y2="349.7" style="fill:none; stroke:#ff002b; stroke-miterlimit:10; stroke-width:1.11px;"/><line x1="25.51" y1="82.84" x2="25.51" y2="346.73" style="fill:none; stroke:#ff002b; stroke-miterlimit:10; stroke-width:1.11px;"/><g id="_Mirror_Repeat_-9"><g style="clip-path:url(#clippath-8);"><path d="M1108.82,375.32c41.66,7.48,51.28-26.6,48.72-27.99s-7.47.8-11.51,20.31c-4.04,19.51,4.53,50.01,4.53,50.01" style="fill:none; stroke:#ff002b; stroke-miterlimit:10; stroke-width:1.11px;"/><path d="M1142.04,349.6s-2.96,14.79-33.51,26.04" style="fill:none; stroke:#ff002b; stroke-miterlimit:10; stroke-width:1.11px;"/></g></g><g id="_Mirror_Repeat_-10"><g style="clip-path:url(#clippath-9);"><path d="M1108.75,375.39c7.48,41.66-26.6,51.28-27.99,48.72s.8-7.47,20.31-11.51c19.51-4.04,50.01,4.53,50.01,4.53" style="fill:none; stroke:#ff002b; stroke-miterlimit:10; stroke-width:1.11px;"/><path d="M1083.03,408.61s14.79-2.96,26.04-33.51" style="fill:none; stroke:#ff002b; stroke-miterlimit:10; stroke-width:1.11px;"/></g></g><g id="_Mirror_Repeat_-11"><g style="clip-path:url(#clippath-10);"><polyline points="1121.53 376.55 1121.53 388.45 1161.35 388.45 1161.35 429.27" style="fill:none; stroke:#ff002b; stroke-miterlimit:10; stroke-width:1.11px;"/></g></g><g id="_Mirror_Repeat_-12"><g style="clip-path:url(#clippath-11);"><polyline points="1109.86 388.21 1121.76 388.21 1121.76 428.03 1162.58 428.03" style="fill:none; stroke:#ff002b; stroke-miterlimit:10; stroke-width:1.11px;"/></g></g><g id="_Mirror_Repeat_-13"><g style="clip-path:url(#clippath-12);"><path d="M1108.75,53.85c7.48-41.66-26.6-51.28-27.99-48.72s.8,7.47,20.31,11.51c19.51,4.04,50.01-4.53,50.01-4.53" style="fill:none; stroke:#ff002b; stroke-miterlimit:10; stroke-width:1.11px;"/><path d="M1083.03,20.63s14.79,2.96,26.04,33.51" style="fill:none; stroke:#ff002b; stroke-miterlimit:10; stroke-width:1.11px;"/></g></g><g id="_Mirror_Repeat_-14"><g style="clip-path:url(#clippath-13);"><path d="M1108.82,53.92c41.66-7.48,51.28,26.6,48.72,27.99s-7.47-.8-11.51-20.31c-4.04-19.51,4.53-50.01,4.53-50.01" style="fill:none; stroke:#ff002b; stroke-miterlimit:10; stroke-width:1.11px;"/><path d="M1142.04,79.64s-2.96-14.79-33.51-26.04" style="fill:none; stroke:#ff002b; stroke-miterlimit:10; stroke-width:1.11px;"/></g></g><g id="_Mirror_Repeat_-15"><g style="clip-path:url(#clippath-14);"><polyline points="1109.98 41.14 1121.88 41.14 1121.88 1.32 1162.7 1.32" style="fill:none; stroke:#ff002b; stroke-miterlimit:10; stroke-width:1.11px;"/></g></g><g id="_Mirror_Repeat_-16"><g style="clip-path:url(#clippath-15);"><polyline points="1121.64 52.81 1121.64 40.91 1161.46 40.91 1161.46 .09" style="fill:none; stroke:#ff002b; stroke-miterlimit:10; stroke-width:1.11px;"/></g></g><line x1="1142.07" y1="349.62" x2="1142.07" y2="79.57" style="fill:none; stroke:#ff002b; stroke-miterlimit:10; stroke-width:1.11px;"/><line x1="1156.31" y1="346.44" x2="1156.31" y2="82.54" style="fill:none; stroke:#ff002b; stroke-miterlimit:10; stroke-width:1.11px;"/><line x1="98.89" y1="20.57" x2="1079.87" y2="20.57" style="fill:none; stroke:#ff002b; stroke-miterlimit:10; stroke-width:1.6px;"/><line x1="104.4" y1="5.73" x2="1073.45" y2="5.73" style="fill:none; stroke:#ff002b; stroke-miterlimit:10; stroke-width:1.6px;"/><line x1="1079.87" y1="408.61" x2="98.89" y2="408.61" style="fill:none; stroke:#ff002b; stroke-miterlimit:10; stroke-width:1.6px;"/><line x1="1074.35" y1="423.45" x2="105.31" y2="423.45" style="fill:none; stroke:#ff002b; stroke-miterlimit:10; stroke-width:1.6px;"/><path d="M22.7,310.96c.34,1.19.71,2.34,2.34,2.08.57,1.49,1.08,3,1.72,4.46,1.79,4.06,3.63,8.09,5.46,12.13.84.91,1.68,1.83,2.51,2.74,1.15,3.57,2.2,7.18,3.46,10.71,1.96,5.48,3.51,11.17,7.5,15.69,2.25,2.55,4.44,5.17,7.02,8.18-1.33.69-2.43,1.46-3.65,1.85-4.9,1.55-9.51,0-14.09-1.55-.81-.36-1.61-.72-2.42-1.07-1.02-.67-2.04-1.35-3.07-2.02-.02-.5-.04-1-.07-1.51.75.2,1.55.31,2.26.63,2.6,1.18,5.09,2.71,7.78,3.59,3.31,1.07,6.75,1.26,10.1-.47-.33-.65-.4-.88-.55-1.05-.37-.44-.76-.86-1.17-1.27-6.12-6.07-9.82-13.46-11.61-21.81-.68-3.16-1.39-6.19-3.25-8.93-1.91-2.83-3.64-5.81-5.21-8.85-1.3-2.53-1.98-5.4-3.41-7.85-3.22-5.53-7.57-9.99-13.5-12.71-.14-.1-.27-.21-.41-.31.1.14.21.28.31.41.35.94.63,1.9,1.05,2.8,2.86,6.23,6.04,12.33,8.53,18.7,1.98,5.07,2.94,10.52,4.66,15.7,2.24,6.78,2.91,13.81,3.79,20.81-.5-.02-.99-.03-1.49-.05-.41-.01-.82-.03-1.23-.04-.01-1.15-.02-2.29-.03-3.44,1.03-1.03.9-1.74-.56-2.09-.94-8.65-3.35-16.97-5.84-25.26-3.54-11.78-8.19-21.26-11.11-22.74-.63,2.75-1.53,5.47-1.83,8.25-.32,3-.58,6.18.03,9.08,1.65,7.81-.19,14.95-3.46,21.86-1.3,2.74-1.95,5.32-.83,8.22.78,2.02,1.48,4.08,2.21,6.12-.39.05-.77.11-1.16.16-3.52-5.18-5.24-10.47-.99-16.12.14-.18.32-.37.37-.58,1.49-6.19,3.73-12.34,1.95-18.84-.85-3.1-.63-5.99.07-9.12,1.05-4.66,1.42-9.48,2.08-14.23.8-.85,1.6-1.7,2.41-2.56,3.47,2.47,6.97,4.9,10.4,7.43,1.08.8,1.96,1.89,2.92,2.85Z" style="fill:#76a278; stroke-width:0px;"/><path d="M146.66,436.32c-.67-.3-1.35-.59-2.02-.89-.88-.31-1.77-.62-2.65-.93h0c-.33-.17-.66-.34-.98-.51-.17.02-.3-.05-.39-.19.04-.27.09-.54.13-.81,1.52.16,3.04.32,5.02.53-.55-1.1-.78-1.86-1.24-2.43-3.01-3.74-5.86-7.62-9.14-11.1-7.49-7.97-16.43-13.65-27.11-16.54-7.39-2-13.86.07-19.71,4.25-2.4,1.71-3.77,4.65-4.84,8.27,3.07-.6,5.47-1.06,7.87-1.53-.23.48-.46.96-.68,1.44-2.97.6-5.93,1.2-8.9,1.8.45-1.97.89-3.95,1.34-5.92,1.61-2.04,2.91-4.48,4.9-6.04,5.27-4.12,11.39-5.5,18.06-4.46,1.65.26,3.35.19,5.17.27.27-5.7,2.31-10.51,4.65-15.23,2.92-5.89,7.79-9.65,13.43-12.61.25.73.5,1.45.75,2.18-.9,3.45-1.8,6.89-2.71,10.34-1.18,1.32-1.06,2.68-.13,4.07,0,.72,0,1.43,0,2.15-.21.91-.43,1.81-.64,2.72-.24-.48-.7-.98-.67-1.45.27-3.86.57-7.71,1.01-11.55.19-1.64.83-3.24-.31-5.07-6.08,5.24-11.09,10.84-12.83,18.74-1.05,4.79-.61,5.61,3.62,7.91,8.87,4.83,17.19,10.44,23.44,18.55,2.83,3.67,5.23,7.68,7.82,11.53-.23.45-.47.9-.7,1.36-.51.39-1.02.78-1.54,1.17ZM112.56,402.64c0-.17,0-.33.01-.5-.36.03-.73.06-1.09.1-.02,0-.03.22-.02.22.36.07.73.12,1.09.17Z" style="fill:#68996b; stroke-width:0px;"/><path d="M14.32,404.61c.56-.64,1.11-1.29,1.67-1.93.58-.46,1.16-.92,1.75-1.38l-.03.03c2.55.46,5.11.93,7.66,1.39,2.23,1.41,1.17,3.6,1.32,5.5-1.32.95-2.7,1.83-3.94,2.88-.64.54-1.02,1.38-1.51,2.08-3.06-1.14-6.14-2.12-10-.79.37-1.72.52-2.91.9-4.01.35-1.03.96-1.96,1.46-2.94l-.03.04c.25-.29.5-.59.76-.88Z" style="fill:#eac975; stroke-width:0px;"/><path d="M150.14,423.63c.22.68.44,1.37.66,2.05,1.33,5.58,2.67,11.16,4,16.74l-1.13.53c-.91-1.3-1.83-2.61-2.74-3.91-.21-.83-.43-1.67-.64-2.5l.34-.02s.34.03.34.03c.23-.23.46-.46.69-.69-.16-3.79-1.08-7.33-3.6-10.29-1.4-1.65-2.78-3.32-4.28-4.89-1.88-1.97-3.12-4.13-3.23-6.96-.05-1.18-.47-2.52-1.16-3.47-2.36-3.28-4.1-7.22-8.59-8.4-.76-.2-1.3-1.21-1.94-1.85-.23-.24-.47-.47-.7-.71,0,0,0,0,0,0-.23-.23-.46-.47-.69-.7,0,0,0,0,0,0,.09-.82.17-1.64.26-2.45,1.87,1.55,3.75,3.1,5.62,4.66,1.38,1.15,3.11,2.07,4.05,3.5,1.97,3,3.53,6.28,5.25,9.45.03.26.06.51.09.77.18.24.35.48.53.72l-.03.05.04.72c.91,3.77,3.86,5.71,6.85,7.62Z" style="fill:#759a77; stroke-width:0px;"/><path d="M3.5,362.12c.39-.05.77-.11,1.16-.16h-.02c.22.47.44.94.66,1.41,1.15,3.18,2.91,6.29,3.29,9.56.38,3.34-.59,6.83-1.06,11.09,2.15-1.17,3.79-1.89,5.23-2.9,2.4-1.69,4.67-3.57,6.99-5.37.48.01.96.02,1.44.04.01.13.02.26,0,.39-4.23,5.19-9.79,8.34-16.38,10.85.69-3.54,1.3-6.64,1.89-9.75.48-2.53.24-4.87-.9-7.32-1.14-2.44-1.56-5.22-2.3-7.84Z" style="fill:#759a77; stroke-width:0px;"/><path d="M65.29,427.37c-.19-.11-.38-.23-.58-.34-.23-.3-.46-.61-.69-.91-.02-.91-.04-1.81-.07-2.72v.02c.24-.46.48-.91.72-1.37,0,0,0,0,0,0,.2-.29.4-.57.6-.86.04-.41.08-.81.13-1.22.2-.5.39-1,.59-1.5-.02-.19,0-.37.03-.56.7-.7,1.4-1.4,2.1-2.1,0,0-.01.01-.01.01.24-.2.49-.41.73-.61.04-.21.11-.42.18-.62.36-.09.73-.18,1.09-.27.92.53,1.84,1.06,2.76,1.59.31.42.62.83.93,1.25.18.23.37.46.55.69.19,1.6.39,3.19.58,4.79-1.37.53-2.75,1.06-4.12,1.58l-.29-.02c-.33.22-.66.44-.99.67h.06c-1.36.79-3.58-.3-4.26,1.97,0,.18-.02.36-.06.53Z" style="fill:#eac975; stroke-width:0px;"/><path d="M102.62,425.49c-1.03.49-2.06.97-3.09,1.46-1.54.1-2.71-.21-2.4-2.16,1.06.04,2.54.53,3.1.02,1.77-1.59,3.19-3.57,5.01-5.71-3.99-.49-7.47,2.27-8.09,5.71-.23,0-.46,0-.69-.03-.26-1.03-.53-2.06-.79-3.09,1.45-1.03,2.91-2.04,4.35-3.09,1.03-.75,1.73-1.56.25-2.56.32-.29.64-.58.95-.86.9.59,1.79,1.2,2.7,1.77.92.58,1.87,1.11,2.81,1.67,1.17.65,2.34,1.3,3.51,1.95,1.48.37,2.95.73,4.43,1.1-1.94,2.24-3.97.4-5.8-.08-2.1-.55-3.46-.36-4.25,1.76-.67.71-1.34,1.43-2,2.14Z" style="fill:#759a77; stroke-width:0px;"/><path d="M126.77,425.48c-1.54-.7-3.08-1.41-4.63-2.11-2.22-.53-4.45-1.06-6.67-1.6,1.99-1.23,4.04-1.38,6.2-.41,4.35,1.96,8.87,3.6,13.01,5.91,2.16,1.21,3.68,3.56,5.49,5.39-.1.15-.18.31-.26.47-2.43-1.67-4.79-3.45-7.31-4.96-1.83-1.09-3.88-1.81-5.83-2.7Z" style="fill:#759a77; stroke-width:0px;"/><path d="M39.98,425.9c-.45,1.97-1.53,3.27-3.67,3.47-.44.04-.96.18-1.27.46-3.53,3.08-7.28,2.39-11.13.77-.62-.26-1.34-.28-2.01-.41.52-.2,1.04-.41,1.55-.61,6.19,1.78,11.58.48,16.09-4.18.21.11.36.28.44.5Z" style="fill:#9b927f; stroke-width:0px;"/><path d="M13.59,405.45c-.5.98-1.1,1.91-1.46,2.94-.38,1.1-.53,2.29-.9,4.01,3.85-1.33,6.94-.35,10,.79,0,.4,0,.8-.01,1.21-3.19-.58-6.32-2.25-9.64-.54-.48-.27-.96-.53-1.45-.8-.49-3.29.02-6.12,3.47-7.61Z" style="fill:#938363; stroke-width:0px;"/><path d="M12.96,428.07c-.15.1-.32.14-.5.13-2.47-1.4-3.47-3.28-2.52-6.19.39-1.2-.05-2.66-.08-4-.03-1.2-.03-2.4-.04-3.6.36.02.72.04,1.08.06.2,2.47,1.03,5.11.46,7.39-.79,3.17.27,4.66,2.9,5.72-.43.16-.87.33-1.3.49Z" style="fill:#9b927f; stroke-width:0px;"/><path d="M52.96,425.48c-1.61-1.36-3.23-2.71-4.74-3.99-1.77.76-3.3,1.42-4.83,2.08-.04-.3-.08-.61-.12-.91,2.28-1.19,4.07-2.7,3.72-5.65-.02-.15.26-.34.41-.51.02.91-.18,1.89.12,2.69.22.6,1.08.97,1.66,1.44,1.96,1.07,3.8,2.24,3.8,4.85h0Z" style="fill:#9b927f; stroke-width:0px;"/><path d="M28.89,395.14c-1.38-1.77-2.81-3.51-4.12-5.33-1.29-1.8-.2-3.42.56-5.04.24.02.48.04.72.06,0,.53.02,1.06.03,1.58.03,1-.24,2.14.15,2.97.95,1.99,2.21,3.84,3.34,5.74-.22.07-.45.07-.68.02Z" style="fill:#9b927f; stroke-width:0px;"/><path d="M26.05,384.82c-.24-.02-.48-.04-.72-.06l-1.28-7.54c.27-.99.55-1.98.82-2.97.39.72,1.01,1.4,1.1,2.15.18,1.44.02,2.92.08,4.38.06,1.49.18,2.98,2.07,3.36-.69.22-1.38.45-2.08.67Z" style="fill:#68996b; stroke-width:0px;"/><path d="M12.96,428.07c.43-.16.87-.33,1.3-.49,2.29,1.16,4.59,2.05,6.86-.04.45.02.9.05,1.35.07.33.66.65,1.31.98,1.97-.52.2-1.04.41-1.55.61l-.31.1-.32-.04c-1.89-.21-3.78-.42-5.67-.63-.41-.22-.83-.44-1.24-.66-.46-.29-.93-.59-1.39-.88Z" style="fill:#7d7151; stroke-width:0px;"/><path d="M26.68,408.23c-.15-1.9.91-4.1-1.32-5.5,0-.36.02-.72.02-1.09.66-.13,1.32-.27,1.98-.4.23.27.46.54.69.82.13,2.12-.54,4.45,1.56,6.06-.98.04-1.96.08-2.94.11Z" style="fill:#938363; stroke-width:0px;"/><path d="M97.13,424.79c-.3,1.95.87,2.26,2.4,2.16-3.13,2.43-6.77,3.05-10.6,3.02.68-.34,1.34-.75,2.06-1,.86-.31,1.77-.5,2.66-.74v.02c2.57.2,2.73-1.54,2.74-3.41l.07-.06c.23.02.46.02.69.03l-.02-.02Z" style="fill:#7d7151; stroke-width:0px;"/><path d="M25.38,401.64c0,.36-.02.72-.02,1.09-2.55-.46-5.11-.93-7.66-1.39,1.32-1.89,3.09-1.63,4.89-.97.96.35,1.86.85,2.79,1.28Z" style="fill:#9b927f; stroke-width:0px;"/><path d="M93.65,428.23c-.89.24-1.8.43-2.66.74-.71.26-1.37.66-2.06,1-.51.02-1.03.03-1.54.05-.7-.36-1.36-.82-2.09-1.04-1.11-.34-2.26-.53-3.4-.78,3.92.01,7.83.02,11.75.03Z" style="fill:#76a278; stroke-width:0px;"/><path d="M24.87,374.25c-.27.99-.55,1.98-.82,2.97-.95-.35-1.9-.7-2.86-1.04,0-.13,0-.26,0-.39.21-.7.43-1.41.64-2.11h0c.97-.02,1.94-.03,2.91-.05,0,.22.05.42.12.63Z" style="fill:#938363; stroke-width:0px;"/><path d="M9.38,300.68c-.8.85-1.6,1.7-2.41,2.56-.49-1.22-.99-2.44-1.48-3.67.18-.21.35-.41.53-.62,1.12.58,2.24,1.15,3.36,1.73Z" style="fill:#7d7151; stroke-width:0px;"/><path d="M28.89,395.14c.23.05.45.04.68-.02v.13c.19.15.4.31.6.46l.11.11c.18.21.36.42.55.62.08.25.16.5.25.74-.09.71-.18,1.41-.27,2.12-.2.2-.4.4-.61.6-.45.03-.9.06-1.36.09l-.3-.02c.12-1.61.23-3.22.35-4.84Z" style="fill:#7d7151; stroke-width:0px;"/><path d="M81.9,428.2c1.14.25,2.29.44,3.4.78.73.23,1.4.69,2.09,1.04l-6.19-.37c0-.43,0-.87,0-1.3.23-.05.47-.1.7-.15Z" style="fill:#7d7151; stroke-width:0px;"/><path d="M43.27,422.65c.04.3.08.61.12.91-1.14.78-2.27,1.55-3.41,2.33-.08-.22-.23-.39-.44-.5,0-.63-.01-1.25-.02-1.88.79-.2,1.57-.4,2.36-.6.46-.09.92-.17,1.38-.26Z" style="fill:#7d7151; stroke-width:0px;"/><path d="M60.52,425.44c-2.07.25-4.13.5-6.2.76.02-.21.03-.43.05-.64,2.06-.25,4.11-.49,6.17-.74,0,.21,0,.42-.02.62Z" style="fill:#938363; stroke-width:0px;"/><path d="M69.61,424.88c.04.33.07.65.11.98-.08.25-.25.37-.52.34-1.28.21-2.57.42-3.85.63.68-2.27,2.9-1.18,4.26-1.96Z" style="fill:#d6bf88; stroke-width:0px;"/><path d="M150.29,436.53c.21.83.43,1.67.64,2.5-.9-.6-1.81-1.21-2.71-1.81.25-.43.49-.86.74-1.3.22-.03.44-.06.65-.09h-.01c.23.23.47.47.7.71v-.02Z" style="fill:#7d7151; stroke-width:0px;"/><path d="M63.95,423.4c.02.91.04,1.81.07,2.72-.34.03-.68.06-1.02.09-.37-.13-.74-.26-1.1-.38.26-.55.51-1.09.77-1.64.43-.26.86-.53,1.29-.79Z" style="fill:#d6bf88; stroke-width:0px;"/><path d="M62.67,424.19c-.26.55-.51,1.09-.77,1.64-.46-.13-.92-.26-1.38-.39.02-.21.02-.41.02-.62.5-.45.99-.89,1.49-1.34.21.24.42.48.63.71Z" style="fill:#7d7151; stroke-width:0px;"/><path d="M148.96,435.93c-.25.43-.49.86-.74,1.3-.52-.3-1.04-.61-1.56-.91.51-.39,1.02-.78,1.54-1.17.25.26.51.52.76.79Z" style="fill:#9b927f; stroke-width:0px;"/><path d="M65.35,426.84c1.28-.21,2.57-.42,3.85-.63-.97,1.5-2.34,1.67-3.91,1.16.04-.17.06-.35.06-.53Z" style="fill:#9b927f; stroke-width:0px;"/><path d="M17.73,401.3c-.58.46-1.16.92-1.75,1.38.58-.46,1.16-.92,1.75-1.38Z" style="fill:#9b927f; stroke-width:0px;"/><path d="M28.06,402.05c-.23-.27-.46-.54-.69-.82.39-.42.79-.84,1.18-1.26l.3.02c-.26.69-.52,1.37-.78,2.06Z" style="fill:#9b927f; stroke-width:0px;"/><path d="M141.99,434.49c.88.31,1.77.62,2.65.93-.88-.31-1.77-.62-2.65-.93Z" style="fill:#9b927f; stroke-width:0px;"/><path d="M10.9,414.47c-.36-.02-.72-.04-1.08-.06.1-.45.2-.9.3-1.35.48.27.96.53,1.45.8-.22.2-.45.41-.67.61Z" style="fill:#7d7151; stroke-width:0px;"/><path d="M54.37,425.55c-.01.21-.03.43-.05.64-.46-.24-.91-.48-1.37-.72h0c.47.03.94.05,1.41.08Z" style="fill:#9b927f; stroke-width:0px;"/><path d="M63,426.21c.34-.03.68-.06,1.02-.09.23.3.46.61.69.91-.57-.27-1.14-.55-1.71-.82Z" style="fill:#9b927f; stroke-width:0px;"/><path d="M14.32,404.61c-.25.29-.5.59-.76.88.25-.29.5-.59.76-.88Z" style="fill:#938363; stroke-width:0px;"/><path d="M140.73,432.99c-.04.27-.09.54-.13.81-.23-.22-.46-.44-.7-.66.08-.16.17-.32.26-.47.15.17.34.28.56.32Z" style="fill:#9b927f; stroke-width:0px;"/><path d="M141,433.99c.33.17.66.34.98.5-.33-.17-.66-.34-.98-.5Z" style="fill:#9b927f; stroke-width:0px;"/><path d="M19.75,375.75c-2.32,1.8-4.59,3.68-6.99,5.37-1.44,1.01-3.08,1.72-5.23,2.9.47-4.26,1.44-7.76,1.06-11.09-.38-3.27-2.13-6.38-3.29-9.56-.22-.47-.44-.94-.66-1.41h.02c-.74-2.04-1.43-4.1-2.21-6.12-1.12-2.9-.47-5.47.83-8.22,3.27-6.91,5.12-14.04,3.46-21.86-.62-2.91-.35-6.08-.03-9.08.29-2.79,1.19-5.51,1.83-8.25,2.93,1.47,7.57,10.96,11.11,22.74,2.49,8.29,4.9,16.61,5.84,25.26.19.7.38,1.4.56,2.09.01,1.15.02,2.29.03,3.44.41,4.56-2.45,7.94-4.25,11.7h0c-.69.7-1.38,1.39-2.08,2.09Z" style="fill:#2fa43a; stroke-width:0px;"/><path d="M28.8,362.05c-.89-7.01-1.55-14.03-3.79-20.81-1.71-5.18-2.68-10.63-4.66-15.7-2.49-6.37-5.67-12.47-8.53-18.7-.42-.9-.7-1.87-1.05-2.8l.1-.1c5.93,2.71,10.28,7.17,13.5,12.71,1.42,2.45,2.1,5.32,3.41,7.85,1.56,3.04,3.29,6.02,5.21,8.85,1.86,2.75,2.57,5.78,3.25,8.93,1.79,8.35,5.49,15.74,11.61,21.81.41.4.8.83,1.17,1.27.14.17.21.4.55,1.05-3.35,1.73-6.79,1.54-10.1.47-2.7-.87-5.18-2.4-7.78-3.59-.7-.32-1.5-.43-2.26-.63-.21-.2-.41-.4-.62-.6Z" style="fill:#30a33b; stroke-width:0px;"/><path d="M28.56,365.41c.08,2.07.17,4.15.25,6.22-.03.92-.06,1.84-.09,2.75-.02.47-.04.94-.06,1.41-.2,0-.4,0-.6,0-.34-1.87-.68-3.75-1.01-5.57-.8.97-1.58,1.91-2.36,2.85-.09-.32-.18-.65-.27-.97-.13.08-.27.15-.4.23.22.26.44.52.65.77.04.17.06.35.07.52-.97.01-1.94.03-2.91.04,1.8-3.76,4.66-7.14,4.25-11.7.41.01.82.03,1.23.04.44,1.13-.85,2.88,1.24,3.41Z" style="fill:#68996b; stroke-width:0px;"/><path d="M28.56,365.41c-2.09-.53-.8-2.28-1.24-3.41.5.02.99.03,1.49.05.21.2.41.4.62.6.02.5.04,1,.07,1.51-.31.42-.62.84-.93,1.26Z" style="fill:#7d7151; stroke-width:0px;"/><path d="M26.05,358.53c-.19-.7-.38-1.4-.56-2.09,1.46.36,1.6,1.07.56,2.09Z" style="fill:#68996b; stroke-width:0px;"/><path d="M10.78,304.04c-.1-.14-.21-.28-.31-.41.14.1.27.21.41.31l-.1.1Z" style="fill:#30a33b; stroke-width:0px;"/><path d="M140.73,432.99c-.22-.04-.41-.14-.56-.32-1.81-1.83-3.33-4.19-5.49-5.39-4.15-2.31-8.67-3.96-13.01-5.91-2.16-.97-4.2-.82-6.2.41-.27-.03-.54-.07-.8-.1-1.48-.37-2.95-.73-4.43-1.1-.46-1.93-2-1.9-3.51-1.95-.94-.55-1.88-1.09-2.81-1.67-.91-.57-1.8-1.18-2.7-1.77-.23-.23-.46-.46-.69-.68l-1.36-.65c-.21-.04-.43-.07-.65-.09-2.48-1.41-4.74-.67-6.95.68,0,0,0,0,0,0-2.4.47-4.8.93-7.87,1.53,1.07-3.62,2.44-6.56,4.84-8.27,5.86-4.17,12.32-6.24,19.71-4.25,10.68,2.89,19.62,8.57,27.11,16.54,3.28,3.49,6.13,7.37,9.14,11.1.46.57.69,1.33,1.24,2.43-1.98-.21-3.5-.37-5.02-.53Z" style="fill:#2fa43a; stroke-width:0px;"/><path d="M128.86,400c.64.64,1.18,1.65,1.94,1.85,4.5,1.18,6.23,5.12,8.59,8.4.69.95,1.11,2.29,1.16,3.47.11,2.83,1.35,4.99,3.23,6.96,1.49,1.56,2.87,3.24,4.28,4.89,2.52,2.96,3.44,6.5,3.6,10.29-.23.23-.46.46-.69.69,0,0-.34-.03-.34-.03l-.34.02v.02c-.22-.24-.45-.47-.69-.71h.01c-.24-.68-.48-1.37-.72-2.05-2.59-3.85-5-7.85-7.82-11.53-6.25-8.11-14.57-13.72-23.44-18.55-4.22-2.3-4.67-3.12-3.62-7.91,1.74-7.91,6.75-13.5,12.83-18.74,1.14,1.83.5,3.43.31,5.07-.44,3.84-.74,7.7-1.01,11.55-.03.47.43.97.67,1.45,0,0,0-.02,0-.02,0,.24-.01.47-.02.71.22.93.45,1.85.67,2.78h0c.23.23.46.46.69.7h0c.23.23.47.47.7.71Z" style="fill:#30a33b; stroke-width:0px;"/><path d="M82,417.66c-.44.33-.88.66-1.32.99-.31-.03-.63-.07-.94-.1.48-2.68,1.1-5.35,1.39-8.05.14-1.33-.18-2.82-2.03-3.03.57-.78,2.53-1.16.77-2.63-.05-2.68-2.81-7.87-4.72-8.27-3.06-.63-6.19-.93-9.29-1.36-.21,0-.43-.03-.64-.06-.01-.18.01-.34.09-.5.93-.1,1.86-.21,2.78-.31.46-.12.93-.25,1.39-.37,2.58.48,5.17.96,7.34,1.36,1.3,1.86,2.47,3.37,3.46,4.99.51.83.87,1.83,1.05,2.79.53,2.78.94,5.58,1.43,8.37.02.12.38.19.58.28-.45,1.97-.89,3.95-1.34,5.92Z" style="fill:#9b927f; stroke-width:0px;"/><path d="M100.27,416.04c-3.13-.06-6.25-.12-9.38-.18l.68-1.44h0c2.32-.22,4.63-.44,6.95-.67.22.02.43.05.65.09l1.36.65c.23.23.46.46.69.68-.32.29-.64.58-.95.86Z" style="fill:#938363; stroke-width:0px;"/><path d="M129.55,373.67c.44-.06.88-.11,1.32-.17-.19.78-.38,1.57-.57,2.35-.25-.73-.5-1.45-.75-2.18Z" style="fill:#7d7151; stroke-width:0px;"/><path d="M127.59,386.18c-.04,1.36-.09,2.71-.13,4.07-.93-1.39-1.05-2.75.13-4.07Z" style="fill:#7d7151; stroke-width:0px;"/><path d="M148.9,433.79c.24.69.48,1.37.72,2.06-.22.03-.44.05-.65.09-.25-.26-.51-.52-.76-.79.23-.45.47-.9.7-1.36Z" style="fill:#759a77; stroke-width:0px;"/><path d="M127.46,392.41c.04.9.08,1.81.12,2.71-.25,0-.5,0-.76-.01v.02c.21-.91.42-1.81.63-2.72Z" style="fill:#7d7151; stroke-width:0px;"/><path d="M112.56,402.64c-.36-.05-.73-.11-1.09-.17,0,0,0-.22.02-.22.36-.04.73-.07,1.09-.1,0,.17,0,.33-.01.5Z" style="fill:#7d7151; stroke-width:0px;"/><path d="M26.68,408.23c.98-.04,1.96-.08,2.94-.11.41.05.81.1,1.22.15,0,.27,0,.54,0,.81-2.46.98-2.86,1.97-1.23,3.76,1.15,1.26,2.62,2.23,4.42,3.72.09-1.71.15-2.88.21-4.06.45.16.91.32,1.36.48.04,1.62.09,3.23.13,4.85,0,.29-.01.58-.02.86-1.16.21-2.32.42-3.47.62.18-1.85-.17-3.57-2.17-4.1-.94-.25-2.44-.08-3.07.54-.92.9-1.29,2.37-1.78,3.39,2.72,2.84,4.83.41,7.03.16-.81,2.27-2.85,2.12-4.68,2.39-.97.15-1.92.36-2.88.55-.23-.75-.45-1.51-.68-2.26-.93-1.86-1.87-3.72-2.8-5.58,0-.4,0-.8.01-1.21.5-.7.88-1.55,1.51-2.08,1.24-1.05,2.62-1.93,3.94-2.88ZM25.31,410.27c-.01.77-.02,1.54-.03,2.3-.02.55-.03,1.1-.05,1.65-.57-.23-1.13-.45-2.16-.86.35,1.45.6,2.48.84,3.51.2-.04.4-.07.6-.11.24-.85.47-1.7.71-2.56q3.02-.05,2.18-3.22c-.17-1.85-1-1.7-2.11-.7l.02-.02Z" style="fill:#7d7151; stroke-width:0px;"/><path d="M127.48,398.6c-.22-.93-.45-1.85-.67-2.78.29,0,.57-.02.86-.02.12.09.15.21.08.35-.09.82-.17,1.64-.26,2.45Z" style="fill:#68996b; stroke-width:0px;"/><path d="M128.17,399.29c-.23-.23-.46-.47-.69-.7.23.23.46.47.69.7Z" style="fill:#68996b; stroke-width:0px;"/><path d="M128.86,400c-.23-.24-.47-.47-.7-.71.23.24.47.47.7.71Z" style="fill:#68996b; stroke-width:0px;"/><path d="M142.74,414.52c.18.24.35.48.53.72-.18-.24-.35-.48-.53-.72Z" style="fill:#db4658; stroke-width:0px;"/><path d="M150.97,436.54c.23-.23.46-.46.69-.69-.23.23-.46.46-.69.69Z" style="fill:#68996b; stroke-width:0px;"/><path d="M19.75,375.75c.69-.69,1.38-1.38,2.08-2.08-.21.7-.43,1.41-.64,2.11-.48-.01-.96-.02-1.44-.04Z" style="fill:#68996b; stroke-width:0px;"/><path d="M4.64,361.95c.22.47.44.94.66,1.41-.22-.47-.44-.94-.66-1.41Z" style="fill:#76a278; stroke-width:0px;"/><path d="M79.87,404.83c1.75,1.47-.2,1.85-.77,2.63-2.17.55-4.34,1.11-6.1,1.56-.75,1.96-1.34,3.52-1.94,5.08-.31.08-.62.15-.93.23-.36.09-.73.18-1.09.27-.35-.06-.7-.12-1.05-.18.44-1.59.39-3.15-1.62-3.26-1.74-.09-4.08-1.06-4.79,1.83-.34.03-.68.06-1.02.09-.43-.88-.86-1.75-1.37-2.8h-4.56c-.12-.27-.23-.55-.35-.82,3.77.39,5.91-2.05,8.34-3.98-.49,1.46-.99,2.92-1.47,4.35,2.82,1.32,4.46-.27,6.13-1.75.1.11.21.22.31.34-.85,2.63,1.67,2.69,2.64,3.94.24-.06.48-.12.72-.19v-5.3c3.35.99,6.45.87,8.92-2.02Z" style="fill:#7d7151; stroke-width:0px;"/><path d="M67.98,414.42c.35.06.7.12,1.05.18-.08.2-.14.41-.18.62-.24.2-.49.41-.73.61h.01c-1.53-.14-2.3.49-2.1,2.09-.04.18-.05.37-.03.56-.2.5-.39,1-.59,1.5-.04.41-.08.81-.13,1.22-.2.29-.4.57-.6.86h0c-.24.45-.48.91-.73,1.36v-.02c-.43.26-.85.53-1.28.79-.21-.24-.42-.48-.63-.71.98-2.33,1.96-4.67,2.76-6.58-1.78-1.6-3.02-2.71-4.25-3.82.34-.03.68-.06,1.02-.09,1.89,1.56,4.12,1.64,6.41,1.44Z" style="fill:#938363; stroke-width:0px;"/><path d="M79.74,418.55c.31.03.63.07.94.1-.88.69-1.77,1.39-2.65,2.08-.57.44-1.13.87-1.7,1.31-.21.02-.43.03-.64.03-.44-1.4-.88-2.81-1.32-4.21-.18-.23-.37-.46-.55-.69-.05-.45-.09-.89-.14-1.34,1.28,1.24,2.57,2.47,4.01,3.85.51-.28,1.29-.71,2.07-1.13Z" style="fill:#938363; stroke-width:0px;"/><path d="M74.36,417.85c.44,1.4.88,2.81,1.32,4.21-.22.22-.44.44-.66.66l-.08-.09c-.19-1.6-.39-3.19-.58-4.79Z" style="fill:#d6bf88; stroke-width:0px;"/><path d="M72.07,424.24c-.41,0-.83,0-1.24-.01,1.37-.53,2.75-1.06,4.12-1.58l.08.09c-.46.42-.92.84-1.38,1.25-.53.09-1.06.17-1.58.26Z" style="fill:#d6bf88; stroke-width:0px;"/><path d="M70.12,414.33c.31-.08.62-.15.93-.23.29.12.58.23.87.35.35.23.7.46,1.04.69,0,0,.01,0,.01,0-.01.24-.02.47-.03.71l-.07.07c-.92-.53-1.84-1.06-2.76-1.59Z" style="fill:#d6bf88; stroke-width:0px;"/><path d="M66.02,417.92c-.2-1.6.58-2.23,2.1-2.1-.7.7-1.4,1.4-2.1,2.1Z" style="fill:#d6bf88; stroke-width:0px;"/><path d="M73.67,415.82c.05.45.09.89.14,1.34-.31-.42-.62-.83-.93-1.25,0,0,.07-.07.07-.07.24,0,.47-.02.71-.03h0Z" style="fill:#d6bf88; stroke-width:0px;"/><path d="M65.41,419.97c.2-.5.39-1,.59-1.5-.2.5-.39,1-.59,1.5Z" style="fill:#d6bf88; stroke-width:0px;"/><path d="M63.95,423.42c.24-.46.48-.91.73-1.37-.24.46-.48.91-.73,1.37Z" style="fill:#d6bf88; stroke-width:0px;"/><path d="M68.11,415.83c.24-.2.49-.41.73-.61-.24.2-.49.41-.73.61Z" style="fill:#d6bf88; stroke-width:0px;"/><path d="M64.67,422.05c.2-.29.4-.57.6-.86-.2.29-.4.57-.6.86Z" style="fill:#d6bf88; stroke-width:0px;"/><path d="M70.54,424.21c-.33.22-.66.44-.99.67.33-.22.66-.44.99-.67Z" style="fill:#d6bf88; stroke-width:0px;"/><path d="M97.15,424.81c.63-3.44,4.11-6.2,8.09-5.71-1.82,2.14-3.24,4.12-5.01,5.71-.57.51-2.04.02-3.1-.02l.02.02Z" style="fill:#30a33b; stroke-width:0px;"/><path d="M106.73,418.62c1.5.05,3.05.02,3.51,1.95-1.17-.65-2.34-1.3-3.51-1.95Z" style="fill:#30a33b; stroke-width:0px;"/><path d="M94.03,422.6c.55-.3,1.09-.6,1.64-.9.26,1.03.53,2.06.79,3.09l-.07.06c-.46-.24-.91-.48-1.37-.72l.02.03c-.34-.52-.68-1.04-1.01-1.56Z" style="fill:#7d7151; stroke-width:0px;"/><path d="M81.9,428.2c-.23.05-.47.1-.7.15l.05-.06c-.54-.23-1.08-.46-1.62-.69l-.18.02-.18-.04c.12-1.05.23-2.11.34-3.01,2.87.13,5.25.37,7.62.3,2.61-.08,5.21-.46,7.82-.71l-.02-.03c.13,1.57.17,3.11-1.38,4.13v-.02c-3.91-.01-7.83-.02-11.74-.03Z" style="fill:#30a33b; stroke-width:0px;"/><path d="M95.05,424.15c-2.61.25-5.21.63-7.82.71-2.37.08-4.74-.17-7.62-.3-.1.91-.22,1.96-.34,3.01-.52-.42-1.04-.84-1.57-1.26l.1-.14c.68-.93,1.35-1.86,2.03-2.79,2.77.24,5.53.48,8.3.72.69-.19,1.38-.39,2.07-.58,1.28-.31,2.56-.62,3.83-.93.34.52.68,1.04,1.01,1.56Z" style="fill:#76a278; stroke-width:0px;"/><path d="M77.71,426.32c-.96-.19-1.92-.38-2.88-.56l.21-.26c1.76.5,1.92-1.14,2.67-1.99.03.89.06,1.79.09,2.68l-.1.14Z" style="fill:#759a77; stroke-width:0px;"/><path d="M74.83,425.75c-.86-.3-1.71-.61-2.57-.91l1.46-.02c.44.22.88.45,1.32.67l-.21.26Z" style="fill:#759a77; stroke-width:0px;"/><path d="M79.63,427.6c.54.23,1.08.46,1.62.69-.54-.23-1.08-.46-1.62-.69Z" style="fill:#76a278; stroke-width:0px;"/><path d="M73.72,424.82l-1.46.02c-.07-.2-.13-.4-.19-.6.53-.09,1.06-.17,1.58-.26.02.28.05.56.07.84Z" style="fill:#7d7151; stroke-width:0px;"/><path d="M32.24,419.31c1.16-.21,2.32-.42,3.47-.62.22-.03.45-.05.67-.08l-.02-.02c.24.24.48.48.71.71l-.02-.03c.24.47.47.94.71,1.41l-.02-.03c.59.95,1.19,1.9,1.78,2.86,0,.63.01,1.25.02,1.88-4.52,4.66-9.9,5.97-16.09,4.18-.33-.66-.65-1.31-.98-1.97.74-1.79,1.48-3.58,2.23-5.37.96-.19,1.91-.4,2.88-.55,1.83-.28,3.87-.12,4.68-2.39h-.01Z" style="fill:#eac975; stroke-width:0px;"/><path d="M21.22,414.4c.93,1.86,1.87,3.72,2.8,5.58-.96,2.52-1.93,5.04-2.89,7.56-2.27,2.09-4.57,1.2-6.86.04-2.63-1.07-3.7-2.56-2.9-5.72.57-2.28-.25-4.91-.46-7.39.22-.2.45-.41.67-.61,3.32-1.72,6.45-.04,9.64.54Z" style="fill:#eac975; stroke-width:0px;"/><path d="M60.55,413.07c1.23,1.11,2.47,2.22,4.25,3.82-.8,1.91-1.78,4.25-2.76,6.58-.5.45-.99.89-1.49,1.34-2.06.25-4.11.49-6.17.74-.47-.02-.94-.05-1.41-.07,0-2.61-1.84-3.78-3.8-4.85-.86-2.36-.69-4.62.59-6.79.42-.44.85-.88,1.27-1.31.23-.23.46-.45.69-.68l1.76-1.11-.49-.66c-.55.46-1.09.92-1.64,1.38l-.7.69c-1.01.38-2.13,1.15-2.61-.63-.23-.86-.4-1.73-.6-2.59.02-.95.04-1.89.06-2.84.46-.79.92-1.57,1.37-2.36.56-.67,1.12-1.34,1.67-2,.42-.14.85-.28,1.27-.41,2.41-1.31,4.81-2.61,7.22-3.92,1.08.24,2.15.49,3.43.78.33,1.75.66,3.48.99,5.22-.13.19-.23.4-.29.62-.19.49-.38.98-.58,1.47l.02-.02c-2.43,1.94-4.57,4.37-8.34,3.98.12.27.23.55.35.82h4.56c.51,1.05.94,1.93,1.37,2.8Z" style="fill:#eac975; stroke-width:0px;"/><path d="M35.74,417.82c-.04-1.62-.09-3.23-.13-4.85,3.43-.8,6.85-1.6,10.43-2.44.49,1.26,1.19,3.04,1.89,4.82-.18.38-.36.77-.53,1.15-.14.17-.42.36-.41.51.35,2.94-1.44,4.45-3.72,5.65-.46.09-.92.17-1.38.26-1.38-.75-2.76-1.5-4.14-2.26l.02.03c-.24-.47-.47-.94-.71-1.41,0,0,.02.03.02.03-.24-.24-.48-.48-.71-.71,0,0,.02.02.02.02-.22-.26-.44-.52-.65-.78Z" style="fill:#eac975; stroke-width:0px;"/><path d="M47.39,416.5c.18-.38.36-.77.53-1.15.61-.5,1.22-1.01,1.83-1.51-1.28,2.17-1.45,4.44-.59,6.79-.58-.47-1.43-.84-1.66-1.44-.3-.8-.1-1.78-.12-2.69Z" style="fill:#7d7151; stroke-width:0px;"/><path d="M31.07,397.18c-.08-.25-.16-.5-.25-.74-.18-.21-.36-.42-.55-.62l-.11-.11-.61-.46v-.13c-1.12-1.9-2.38-3.75-3.33-5.74-.39-.83-.12-1.97-.15-2.97,1.36-.31,2.72-.63,4.07-.94,1.35,2.8,2.7,5.6,4.05,8.39.23.23.45.47.68.7.24.23.47.46.71.68.03.19.06.37.1.56-.01.53-.03,1.06-.04,1.59-1.26-.07-2.51-.13-3.77-.2-.26,0-.53,0-.79-.01Z" style="fill:#eac975; stroke-width:0px;"/><path d="M30.15,385.46c-1.36.31-2.72.63-4.07.94,0-.53-.02-1.06-.03-1.58.69-.22,1.38-.45,2.08-.67.03-.47.05-.95.08-1.42.16-.7.33-1.4.49-2.1-.01-1.61-.03-3.22-.04-4.82.02-.47.04-.94.06-1.41.21.01.43,0,.64-.06,1.11,2.01-.04,4.78,2.18,6.41.09.28.17.56.26.84-.29.8-.58,1.6-.87,2.39-.26.49-.52.98-.78,1.47Z" style="fill:#7d7151; stroke-width:0px;"/><path d="M28.2,382.73c-.03.47-.05.95-.08,1.42-1.89-.38-2.01-1.88-2.07-3.36-.06-1.46.1-2.94-.08-4.38-.09-.75-.72-1.44-1.1-2.15-.08-.2-.12-.41-.12-.63,0-.18-.02-.35-.07-.52v-.03c.79-.94,1.57-1.88,2.37-2.85.33,1.82.67,3.7,1.01,5.57,0,.45.01.9.02,1.36,0,.23.01.46.02.68.01.92.02,1.85.04,2.77.02.71.05,1.41.07,2.12Z" style="fill:#30a33b; stroke-width:0px;"/><path d="M21.12,427.54c.96-2.52,1.93-5.04,2.89-7.56.23.75.45,1.51.68,2.26-.74,1.79-1.48,3.58-2.23,5.37-.45-.02-.9-.05-1.35-.07Z" style="fill:#938363; stroke-width:0px;"/><path d="M30.84,408.27c-.41-.05-.81-.1-1.22-.15-2.1-1.61-1.44-3.94-1.56-6.06.26-.69.52-1.37.78-2.06.45-.03.9-.06,1.36-.09.31,0,.62,0,.93.01.79.01,1.58.03,2.37.04,1.19-.2,2.38-.4,3.57-.59.45.18.89.37,1.34.55,1.39.72,2.78,1.43,4.17,2.15.16-.05.32-.09.49-.1.11.2.16.41.15.64.04.27.08.54.11.81l-.02-.03c.68,1.04,1.36,2.07,2.04,3.11l.04.15c-.04.53-.08,1.07-.12,1.6-.09.22-.18.43-.27.65-3.36,1.55-6.67,3.31-10.58,2.68-.04-.18-.11-.34-.22-.49-1.12-.93-2.23-1.87-3.35-2.8Z" style="fill:#eac975; stroke-width:0px;"/><path d="M93.65,428.25c1.55-1.01,1.51-2.56,1.38-4.13.46.24.91.48,1.37.72-.01,1.86-.17,3.61-2.74,3.41Z" style="fill:#76a278; stroke-width:0px;"/><path d="M30.28,395.81c.18.21.36.42.55.62-.18-.21-.36-.42-.55-.62Z" style="fill:#db4658; stroke-width:0px;"/><path d="M29.55,395.24l.61.46-.61-.46Z" style="fill:#db4658; stroke-width:0px;"/><path d="M37.74,420.66c1.38.75,2.76,1.5,4.14,2.25l-2.36.6c-.59-.95-1.19-1.9-1.78-2.86Z" style="fill:#938363; stroke-width:0px;"/><path d="M149.6,435.84l.7.71-.7-.71Z" style="fill:#759a77; stroke-width:0px;"/><path d="M48.13,372.17c.91-.07,1.83-.14,2.74-.21.22.72.34,1.52.72,2.14.18.28.89.23,1.36.33.49.44.97.88,1.46,1.32-1.61-.14-2.35.59-2.2,2.2-1.3-2.55-3.73-3.06-6.9-1.45-.25-.02-.49-.03-.74-.05-.49-2.82,1.97-3.19,3.56-4.28Z" style="fill:#d6bf88; stroke-width:0px;"/><path d="M54.42,375.74c-.49-.44-.97-.88-1.46-1.32,0-.47-.01-.93-.02-1.4,4.18,2.3,5.39,4.95,4.43,9.72-.31,0-.61,0-.92,0-.05-.93-.1-1.85-.16-2.78-.63-1.41-1.26-2.81-1.89-4.22Z" style="fill:#9b927f; stroke-width:0px;"/><path d="M35.46,374.33c.31-.59.61-1.17.92-1.76,1.42-.17,2.84-.39,4.27-.49,1.17-.08,2.35,0,3.52.02-.1.12-.2.23-.31.34-2.52.76-5.04,1.52-7.56,2.28-.28-.13-.56-.26-.84-.39Z" style="fill:#7d7151; stroke-width:0px;"/><path d="M48.13,372.17c-1.59,1.09-4.04,1.46-3.56,4.28-.42-.04-.84-.08-1.26-.12-.03-.43-.06-.86-.09-1.3.21-.86.42-1.73.63-2.59.11-.11.21-.22.31-.34,1.32.02,2.64.05,3.96.07Z" style="fill:#7d7151; stroke-width:0px;"/><path d="M52.94,373.03c0,.47.01.93.02,1.4-.47-.1-1.19-.05-1.36-.33-.39-.62-.5-1.42-.72-2.14.69.36,1.38.71,2.07,1.07Z" style="fill:#7d7151; stroke-width:0px;"/><path d="M56.46,382.74c.31,0,.61,0,.92,0-.09.86-.18,1.72-.27,2.59l-.72.12-.25-.2c.11-.84.21-1.67.32-2.51Z" style="fill:#7d7151; stroke-width:0px;"/><path d="M69.47,393.95c-.46.12-.93.25-1.39.37.46-.12.93-.25,1.39-.37Z" style="fill:#d6bf88; stroke-width:0px;"/><path d="M127.66,395.79c-.29,0-.57.02-.86.02,0-.24.01-.47.02-.71.25,0,.5,0,.76.01.03.22.06.45.08.67Z" style="fill:#759a77; stroke-width:0px;"/><path d="M43.86,372.44c-.21.86-.42,1.73-.63,2.59-1.56.56-3.09,1.23-4.68,1.64-.7.18-1.53-.14-2.3-.23.04-.58.08-1.15.12-1.73h-.08c2.52-.75,5.04-1.51,7.56-2.27Z" style="fill:#d6bf88; stroke-width:0px;"/><path d="M36.26,376.44c.77.09,1.6.41,2.3.23,1.59-.42,3.12-1.08,4.68-1.64.03.43.06.86.09,1.3-1.73.53-3.47,1.06-5.2,1.59-.71,0-1.42,0-2.12,0-.51-.15-1.03-.31-1.12-.34-1.14,1.48-2.11,2.75-3.08,4.01-.09-.28-.17-.56-.26-.84.46-.98.88-1.99,1.4-2.94.39-.71.89-1.36,1.35-2.03.66.22,1.31.44,1.97.66Z" style="fill:#938363; stroke-width:0px;"/><path d="M29.36,374.34c-.21.05-.42.07-.64.06.03-.92.06-1.84.09-2.75.18.9.36,1.8.55,2.7Z" style="fill:#759a77; stroke-width:0px;"/><path d="M36.26,376.44c-.66-.22-1.31-.44-1.97-.66.69-.36,1.39-.71,2.08-1.07-.04.58-.08,1.15-.12,1.73Z" style="fill:#7d7151; stroke-width:0px;"/><path d="M28.13,380.61c-.01-.92-.02-1.85-.04-2.77,0-.23,0-.46-.02-.68,0-.45-.01-.9-.02-1.36.2,0,.4,0,.6,0,.01,1.61.03,3.22.04,4.82-.19,0-.38,0-.57-.01Z" style="fill:#759a77; stroke-width:0px;"/><path d="M24.68,373.1c-.22-.26-.44-.52-.65-.77.13-.08.27-.15.4-.23.09.32.18.65.27.97v.03Z" style="fill:#7d7151; stroke-width:0px;"/><path d="M98.53,413.75c-2.32.23-4.63.45-6.95.68,2.21-1.35,4.47-2.08,6.95-.68Z" style="fill:#68996b; stroke-width:0px;"/><path d="M100.53,414.49c-.45-.22-.9-.44-1.36-.65.45.22.9.44,1.36.65Z" style="fill:#68996b; stroke-width:0px;"/><path d="M77.81,426.18c-.03-.89-.06-1.79-.09-2.68-.46-.49-.92-.98-1.39-1.47.57-.44,1.13-.87,1.7-1.31.63.63,1.27,1.26,1.9,1.89-.03.26-.07.51-.1.77-.68.93-1.35,1.86-2.03,2.79Z" style="fill:#7d7151; stroke-width:0px;"/><path d="M79.83,423.38c.03-.26.07-.51.1-.77,2.73.3,5.47.61,8.2.91,0,.19,0,.38,0,.57-2.77-.24-5.53-.48-8.3-.72Z" style="fill:#68996b; stroke-width:0px;"/><path d="M88.13,424.11c.01-.19.01-.38,0-.57.69,0,1.38,0,2.06,0-.69.19-1.38.39-2.07.58Z" style="fill:#759a77; stroke-width:0px;"/><path d="M79.87,404.83c-2.47,2.89-5.57,3.01-8.92,2.02h-.03c.07-1.47-.58-2.2-2.08-2.08h.02c-.33-2.5-2.69-.88-3.87-1.94-1.52-2.67-1.38-5.26.88-7.63,3.1.44,6.23.73,9.29,1.36,1.91.4,4.67,5.59,4.72,8.27Z" style="fill:#eac975; stroke-width:0px;"/><path d="M71.92,414.44c-.29-.12-.58-.23-.87-.35.59-1.56,1.19-3.11,1.94-5.08,1.76-.45,3.93-1,6.1-1.56,1.85.22,2.18,1.7,2.03,3.03-.29,2.7-.9,5.37-1.39,8.05-.78.43-1.55.85-2.07,1.13-1.44-1.38-2.72-2.62-4.01-3.85,0,0,0,0,0,0-.23-.23-.45-.46-.68-.68h-.01c-.35-.24-.7-.47-1.04-.7Z" style="fill:#eac975; stroke-width:0px;"/><path d="M65.85,395.2c-2.26,2.37-2.39,4.96-.88,7.63,1.18,1.06,3.54-.56,3.87,1.95-1.55-.15-3.1-.31-4.65-.46-.09-.09-.17-.17-.26-.26-.16-.22-.32-.44-.49-.66-.33-1.74-.66-3.47-.99-5.22-1.28-.29-2.35-.54-3.43-.78.1-.39.21-.78.31-1.16.79.14,1.6.22,2.37.42,1.28.34,1.67-.3,1.72-1.41l1.79-.11c.21.04.43.06.64.06Z" style="fill:#7d7151; stroke-width:0px;"/><path d="M32.26,419.3c-2.2.25-4.31,2.68-7.03-.16.5-1.02.86-2.49,1.78-3.39.63-.61,2.12-.78,3.07-.54,1.99.52,2.35,2.24,2.17,4.1h.01Z" style="fill:#d6b763; stroke-width:0px;"/><path d="M34.4,411.56c3.91.64,7.22-1.12,10.58-2.68.81.01,1.63.03,2.44.04.2.86.38,1.74.6,2.59.47,1.79,1.59,1.01,2.61.63.13.13.26.25.39.38-.42.44-.85.88-1.27,1.31-.61.5-1.22,1.01-1.83,1.51-.7-1.78-1.4-3.56-1.89-4.82-3.58.84-7.01,1.64-10.43,2.44-.45-.16-.91-.32-1.36-.48l.02-.08c.05-.28.09-.57.14-.85Z" style="fill:#938363; stroke-width:0px;"/><path d="M34.24,412.49c-.06,1.18-.12,2.36-.21,4.06-1.8-1.49-3.27-2.45-4.42-3.72-1.62-1.79-1.22-2.78,1.23-3.76.9.89,1.81,1.79,2.71,2.68.24.22.47.43.71.65,0,0-.02.08-.02.08Z" style="fill:#d6b763; stroke-width:0px;"/><path d="M27.4,410.99q.84,3.17-2.18,3.22v.02c.03-.55.04-1.1.06-1.65.01-.77.02-1.54.03-2.3l-.02.02c.7.23,1.41.47,2.11.7Z" style="fill:#d6b763; stroke-width:0px;"/><path d="M33.56,411.76c-.9-.89-1.81-1.79-2.71-2.68,0-.27,0-.54,0-.81,1.12.93,2.23,1.87,3.35,2.8-.21.23-.42.46-.63.69Z" style="fill:#938363; stroke-width:0px;"/><path d="M27.4,410.99c-.7-.23-1.41-.47-2.11-.7,1.11-1,1.94-1.15,2.11.7Z" style="fill:#eac975; stroke-width:0px;"/><path d="M25.31,410.27c-.01.77-.02,1.54-.03,2.3.01-.77.02-1.54.03-2.3Z" style="fill:#eac975; stroke-width:0px;"/><path d="M35.74,417.82c.22.26.44.52.65.78-.22.03-.45.05-.67.08,0-.29.01-.58.02-.86Z" style="fill:#938363; stroke-width:0px;"/><path d="M64.2,404.31c1.55.15,3.1.31,4.65.46h-.02c.58.79.23,2.53,2.08,2.06h.03v5.31c-.24.06-.48.12-.72.19-.97-1.25-3.49-1.3-2.64-3.94.4-.31.8-.62,1.2-.92-.11-.13-.22-.26-.33-.39-.39.33-.79.65-1.18.98-1.68,1.48-3.32,3.08-6.13,1.75.49-1.44.98-2.9,1.47-4.35l-.02.02c.54-.39,1.08-.78,1.61-1.17Z" style="fill:#d6b763; stroke-width:0px;"/><path d="M67.98,414.42c-2.29.2-4.52.13-6.41-1.44.71-2.89,3.05-1.92,4.79-1.83,2.01.11,2.07,1.68,1.62,3.26Z" style="fill:#d6b763; stroke-width:0px;"/><path d="M76.33,422.03c.46.49.92.98,1.39,1.47-.75.86-.92,2.49-2.67,1.99-.44-.22-.88-.45-1.32-.67-.02-.28-.05-.56-.07-.84.46-.42.92-.84,1.38-1.25.22-.22.44-.44.66-.66.22,0,.43-.02.64-.03Z" style="fill:#68996b; stroke-width:0px;"/><path d="M72.98,415.14c.23.23.45.46.68.68-.24,0-.47.02-.71.03.01-.24.02-.47.03-.71Z" style="fill:#938363; stroke-width:0px;"/><path d="M71.92,414.44c.35.23.7.46,1.04.69-.35-.23-.7-.46-1.04-.69Z" style="fill:#938363; stroke-width:0px;"/><path d="M37.06,419.27c.24.47.47.94.71,1.41-.24-.47-.47-.94-.71-1.41Z" style="fill:#938363; stroke-width:0px;"/><path d="M36.36,418.59c.24.24.48.48.71.71-.24-.24-.48-.48-.71-.71Z" style="fill:#938363; stroke-width:0px;"/><path d="M45.92,406.75c.52-.22,1.05-.44,1.57-.67-.02.95-.04,1.89-.06,2.84-.81-.01-1.63-.03-2.44-.04.09-.22.18-.43.27-.65.22-.49.44-.99.66-1.48Z" style="fill:#7d7151; stroke-width:0px;"/><path d="M48.86,403.73c-.52-1-1.04-2-1.56-3,.5-.02,1-.04,1.49-.06.44.19.87.38,1.31.56.13.18.27.34.43.49-.56.67-1.12,1.34-1.67,2Z" style="fill:#7d7151; stroke-width:0px;"/><path d="M51.33,411.46c.55-.46,1.09-.92,1.64-1.38l.49.66-1.76,1.11c-.13-.13-.25-.26-.38-.39Z" style="fill:#938363; stroke-width:0px;"/><path d="M64.2,404.31c-.54.39-1.08.78-1.61,1.17.19-.49.38-.98.58-1.47.26.01.52.03.77.04.09.08.18.17.26.26Z" style="fill:#7d7151; stroke-width:0px;"/><path d="M51.01,400.52c.27.26.53.53.8.79-.42.14-.85.28-1.27.41-.16-.15-.3-.32-.43-.49.3-.24.6-.47.9-.71Z" style="fill:#7d7151; stroke-width:0px;"/><path d="M51.71,411.85c-.23.23-.46.45-.69.68-.13-.13-.26-.25-.39-.38l.7-.69c.13.13.25.26.38.39Z" style="fill:#938363; stroke-width:0px;"/><path d="M63.93,404.05c-.26-.01-.52-.03-.77-.04.06-.22.16-.43.29-.62.16.22.32.44.49.66Z" style="fill:#938363; stroke-width:0px;"/><path d="M30.15,385.46c.26-.49.52-.98.78-1.47,1.2,3.19,2.4,6.39,3.59,9.58-.11.09-.22.19-.33.28-1.35-2.8-2.7-5.6-4.05-8.39Z" style="fill:#938363; stroke-width:0px;"/><path d="M33.49,399.95c1.35-2.03-1.21-1.77-1.62-2.76,1.26.07,2.51.13,3.77.2.93.18,1.87.37,2.8.55.03.18.03.37.02.55l-1.4.87c-1.19.2-2.38.4-3.57.59Z" style="fill:#938363; stroke-width:0px;"/><path d="M35.68,395.8c-.04-.19-.07-.37-.1-.56.1-.11.19-.22.28-.33,1.11.5,2.22,1,3.33,1.5-.21.26-.42.52-.63.79-.96-.47-1.92-.93-2.88-1.4Z" style="fill:#938363; stroke-width:0px;"/><path d="M35.68,395.8c.96.47,1.92.93,2.88,1.4-.04.25-.08.5-.12.74-.93-.18-1.87-.37-2.8-.55.01-.53.03-1.06.04-1.59Z" style="fill:#d6bf88; stroke-width:0px;"/><path d="M35.58,395.24c-.24-.23-.47-.46-.71-.68.11-.1.21-.21.32-.31.22.22.45.45.67.67-.09.11-.19.22-.28.33Z" style="fill:#938363; stroke-width:0px;"/><path d="M34.87,394.55c-.23-.23-.45-.47-.68-.7.11-.1.22-.19.33-.28.22.23.44.45.66.68-.11.1-.21.21-.32.31Z" style="fill:#938363; stroke-width:0px;"/><path d="M35.19,394.24l-.66-.68c-1.2-3.19-2.4-6.39-3.59-9.58l.87-2.39c.97-1.27,1.94-2.53,3.08-4.01.09.03.61.18,1.12.34.35.91.7,1.82,1.04,2.72.93,5.49,3.31,10.19,7.59,13.85-.92,3.15-3.49,1.68-5.44,1.93-1.11-.5-2.22-1-3.33-1.5-.22-.22-.45-.45-.67-.67Z" style="fill:#eac975; stroke-width:0px;"/><path d="M28.13,380.61c.19,0,.38,0,.57.01-.16.7-.33,1.4-.49,2.1-.02-.71-.05-1.41-.07-2.12Z" style="fill:#68996b; stroke-width:0px;"/><path d="M28.08,377.16c.02.23.02.46.02.68,0-.23-.01-.46-.02-.68Z" style="fill:#68996b; stroke-width:0px;"/><path d="M43.29,403.37c.7.63,1.41,1.27,2.11,1.9-.02.4-.05.8-.07,1.2-.68-1.04-1.36-2.07-2.04-3.11Z" style="fill:#7d7151; stroke-width:0px;"/><path d="M45.92,406.75c-.22.49-.44.99-.66,1.48.04-.53.08-1.07.12-1.6.17.07.36.11.54.12Z" style="fill:#938363; stroke-width:0px;"/><path d="M33.56,411.76c.21-.23.42-.46.63-.69.1.15.18.31.22.49-.05.28-.09.57-.14.85-.24-.22-.47-.43-.71-.65Z" style="fill:#7d7151; stroke-width:0px;"/><path d="M43.2,402.6c.04.27.08.54.11.81-.04-.27-.08-.54-.11-.81Z" style="fill:#7d7151; stroke-width:0px;"/><path d="M43.05,401.59c.06.12.07.25,0,.37-.17.01-.33.05-.49.1.16-.16.32-.32.48-.47Z" style="fill:#7d7151; stroke-width:0px;"/><path d="M56.38,385.45c-.18.58-.37,1.17-.55,1.75-.04.13-.09.26-.16.38-.21-.47-.43-.95-.64-1.42h0c.37-.3.74-.61,1.11-.91,0,0,.25.2.25.2Z" style="fill:#7d7151; stroke-width:0px;"/><path d="M54.85,388.79c-.11.17-.23.35-.34.52-.33.54-.67,1.09-1,1.63-.21.03-.42.07-.62.13l-.02-.06c-.03-.3-.07-.6-.1-.91.7-.44,1.39-.88,2.09-1.32Z" style="fill:#7d7151; stroke-width:0px;"/><path d="M52.89,391.07c.2-.06.41-.1.62-.13.22.13.44.26.65.39-.4.06-.8.12-1.2.18-.01-.15-.04-.3-.07-.45Z" style="fill:#938363; stroke-width:0px;"/><path d="M38.12,377.91c1.73-.53,3.47-1.06,5.2-1.59.42.04.84.08,1.26.12.25.02.49.03.74.05,1.02.03,2.05-.02,3.06.1,1.49.17,2.62.78,2.52,2.57,0,1.88,0,3.76-.01,5.64-.48,2.73-.96,5.46-1.44,8.19h.01c-1.57.14-3.13.28-4.7.42-3.23-4.04-5.54-8.56-6.98-13.52.11-.66.23-1.33.34-1.99Z" style="fill:#eac975; stroke-width:0px;"/><path d="M54.42,375.74c.63,1.41,1.26,2.81,1.89,4.22-.42,2.07-.85,4.14-1.27,6.2h0c-.36.42-.69.87-1.07,1.27-.97,1.01-1.54.77-1.71-.59,0-.7-.02-1.39-.02-2.09.07-.23.15-.47.22-.7,2.11-1.9,1.32-3.71-.16-5.51-.07-.2-.09-.4-.07-.6-.14-1.61.59-2.35,2.2-2.2Z" style="fill:#eac975; stroke-width:0px;"/><path d="M52.45,384.05c-.07.23-.15.47-.22.7-.22.02-.45.02-.67,0l-.07-.06c-.2-1.84-.39-3.68-.59-5.53.11-1.78-1.03-2.4-2.52-2.57-1.01-.11-2.04-.07-3.06-.1,3.17-1.62,5.6-1.11,6.9,1.45-.03.21,0,.41.07.6.05,1.84.11,3.67.16,5.51Z" style="fill:#7d7151; stroke-width:0px;"/><path d="M55.03,386.16c.42-2.07.85-4.14,1.27-6.2.05.93.1,1.85.16,2.78-.11.84-.21,1.67-.32,2.51-.37.31-.74.61-1.11.92Z" style="fill:#d6bf88; stroke-width:0px;"/><path d="M38.12,377.91c-.11.66-.23,1.33-.34,1.99-.25.24-.49.49-.74.73-.35-.91-.7-1.82-1.04-2.72.71,0,1.42,0,2.12,0Z" style="fill:#7d7151; stroke-width:0px;"/><path d="M70.91,406.83c-1.85.48-1.5-1.27-2.08-2.07,1.5-.12,2.15.61,2.08,2.07Z" style="fill:#7d7151; stroke-width:0px;"/><path d="M67.27,408.06c.39-.33.79-.65,1.18-.98.11.13.22.26.33.39-.4.31-.8.62-1.2.92-.1-.11-.21-.22-.31-.34Z" style="fill:#7d7151; stroke-width:0px;"/><path d="M44.85,399.14c-.3-.42-.59-.84-.89-1.25.69-.71,1.38-1.42,2.06-2.12.27,1.14.54,2.27.81,3.41-.08.08-.17.16-.25.24-.58-.09-1.15-.18-1.73-.27Z" style="fill:#68996b; stroke-width:0px;"/><path d="M48.79,400.67c-.5.02-1,.04-1.49.06-.24-.44-.48-.88-.73-1.32.09-.08.17-.16.25-.24l2.68.81c-.24.23-.47.46-.71.69Z" style="fill:#68996b; stroke-width:0px;"/><path d="M48.79,400.67c.24-.23.47-.46.71-.69.43-1.94,2.17-4.04-.71-5.55.22-.48.44-.95.67-1.43,0,0-.01,0-.01,0,.74,0,1.49,0,2.23.01-.03,1.59-.05,3.17-.08,4.76-.19.92-.39,1.83-.58,2.75-.3.24-.6.47-.9.71-.44-.19-.87-.38-1.31-.56Z" style="fill:#759a77; stroke-width:0px;"/><path d="M49.45,393c-.22.48-.44.95-.67,1.43,0,0,.02-.01.02-.01-.49.23-.98.46-1.47.69-.44.22-.88.43-1.32.65-.69.71-1.38,1.42-2.06,2.12-1.83.2-3.67.4-5.5.6.02-.18.01-.37-.02-.55.04-.25.08-.5.12-.74.21-.26.42-.52.63-.79,1.95-.25,4.51,1.22,5.44-1.93.04-.35.08-.7.12-1.06,1.57-.14,3.13-.28,4.7-.42Z" style="fill:#7d7151; stroke-width:0px;"/><path d="M44.75,393.42c-.04.35-.08.7-.12,1.06-4.28-3.66-6.66-8.36-7.59-13.85.25-.24.49-.49.74-.73,1.44,4.96,3.74,9.48,6.98,13.52Z" style="fill:#938363; stroke-width:0px;"/><path d="M52.25,386.84c.17,1.36.75,1.59,1.71.59.38-.4.72-.85,1.07-1.27.21.47.43.95.64,1.42-.27.4-.55.81-.82,1.21l-2.09,1.32c.03.3.07.6.1.91l.02.06c.03.15.06.3.07.45l-1.02.19c-2.03-1.5-.1-3.18-.21-4.76.17-.05.34-.09.52-.1Z" style="fill:#d6bf88; stroke-width:0px;"/><path d="M51.73,386.95c.11,1.59-1.82,3.26.21,4.76-.09.43-.18.87-.26,1.3-.74,0-1.49,0-2.23-.01.48-2.73.96-5.46,1.44-8.19.19-.08.4-.12.61-.12l.07.06c.06.73.12,1.46.18,2.19Z" style="fill:#7d7151; stroke-width:0px;"/><path d="M52.87,391.02c-.03-.3-.07-.6-.1-.91.03.3.07.6.1.91Z" style="fill:#938363; stroke-width:0px;"/><path d="M51.49,384.69c-.21,0-.41.04-.61.12,0-1.88,0-3.76.01-5.64.2,1.84.39,3.68.59,5.53Z" style="fill:#d6bf88; stroke-width:0px;"/><path d="M52.45,384.05c-.05-1.84-.11-3.67-.16-5.51,1.49,1.79,2.27,3.61.16,5.51Z" style="fill:#d6bf88; stroke-width:0px;"/><path d="M51.73,386.95c-.06-.73-.12-1.46-.18-2.19.22.01.45.01.67,0,0,.7.02,1.39.02,2.09-.18.01-.35.05-.52.1Z" style="fill:#9b927f; stroke-width:0px;"/><path d="M46.02,395.76c.44-.22.88-.43,1.32-.65.49-.23.98-.46,1.47-.69h-.02c2.89,1.52,1.14,3.63.71,5.56l-2.68-.81c-.27-1.14-.54-2.27-.81-3.41Z" style="fill:#30a33b; stroke-width:0px;"/><path d="M48.81,394.42c-.49.23-.98.46-1.47.69.49-.23.98-.46,1.47-.69Z" style="fill:#759a77; stroke-width:0px;"/></g></svg>