<?xml version="1.0" encoding="utf-8"?>
<!-- Generator: Adobe Illustrator 28.3.0, SVG Export Plug-In . SVG Version: 6.00 Build 0)  -->
<svg version="1.1" id="Layer_2_00000069399256572327420830000008679853160415232941_"
	 xmlns="http://www.w3.org/2000/svg" xmlns:xlink="http://www.w3.org/1999/xlink" x="0px" y="0px" viewBox="0 0 651.7 443"
	 style="enable-background:new 0 0 651.7 443;" xml:space="preserve">
<style type="text/css">
	.st0{clip-path:url(#SVGID_00000117647507989863926250000013069186981001693629_);}
	.st1{fill:none;stroke:#81211B;stroke-width:1.11;stroke-miterlimit:10;}
	.st2{clip-path:url(#SVGID_00000066479765963225568870000006875028388460798648_);}
	.st3{clip-path:url(#SVGID_00000008830385750006910790000006182774903432089270_);}
	.st4{clip-path:url(#SVGID_00000092442761059996886090000010530025716587258245_);}
	.st5{clip-path:url(#SVGID_00000177475102595014383870000003764182336953005466_);}
	.st6{clip-path:url(#SVGID_00000108308275245090195500000004758318660837290882_);}
	.st7{clip-path:url(#SVGID_00000008861341725459983990000008294801014677579178_);}
	.st8{clip-path:url(#SVGID_00000028299317349225581530000007290316405224065449_);}
	.st9{clip-path:url(#SVGID_00000078032202251535305630000000962957118306519440_);}
	.st10{clip-path:url(#SVGID_00000023273201402600822120000006461508885891563686_);}
	.st11{clip-path:url(#SVGID_00000041276756014860346990000014334247464190447500_);}
	.st12{clip-path:url(#SVGID_00000078024241932389615550000014207643797062028478_);}
	.st13{clip-path:url(#SVGID_00000165225422873358079850000008233828738564205492_);}
	.st14{clip-path:url(#SVGID_00000062153241285845187630000009052717620478896264_);}
	.st15{clip-path:url(#SVGID_00000026125833866127723190000000781997220466537350_);}
	.st16{clip-path:url(#SVGID_00000162331309139614071080000006663527685809216146_);}
	.st17{fill:#76A278;}
	.st18{fill:#68996B;}
	.st19{fill:#EAC975;}
	.st20{fill:#759A77;}
	.st21{fill:#9B927F;}
	.st22{fill:#938363;}
	.st23{fill:#7D7151;}
	.st24{fill:#D6BF88;}
	.st25{fill:#2FA43A;}
	.st26{fill:#30A33B;}
	.st27{fill:#DB4658;}
	.st28{fill:#D6B763;}
</style>
<g>
	<g>
		<g>
			<g>
				<g id="_Mirror_Repeat_">
					<g>
						<defs>
							<polygon id="SVGID_1_" points="30.8,11.5 73.7,54.4 73.7,82.8 23.6,82.8 23.6,11.5 							"/>
						</defs>
						<clipPath id="SVGID_00000161593470233429543820000006805480996354898605_">
							<use xlink:href="#SVGID_1_"  style="overflow:visible;"/>
						</clipPath>
						<g style="clip-path:url(#SVGID_00000161593470233429543820000006805480996354898605_);">
							<path class="st1" d="M73.2,54c-41.7-7.5-51.3,26.6-48.7,28S32,81.1,36,61.6s-4.5-50-4.5-50"/>
							<path class="st1" d="M40,79.7c0,0,3-14.8,33.5-26"/>
						</g>
					</g>
				</g>
				<g id="_Mirror_Repeat_-2">
					<g>
						<defs>
							<polygon id="SVGID_00000000934948147488293250000018441193331289487496_" points="30.8,11.5 73.7,54.4 102.2,54.4 102.2,4.2 
								30.8,4.2 							"/>
						</defs>
						<clipPath id="SVGID_00000031911596438026299430000011662408874319240120_">
							<use xlink:href="#SVGID_00000000934948147488293250000018441193331289487496_"  style="overflow:visible;"/>
						</clipPath>
						<g style="clip-path:url(#SVGID_00000031911596438026299430000011662408874319240120_);">
							<path class="st1" d="M73.3,53.9c-7.5-41.7,26.6-51.3,28-48.7s-0.8,7.5-20.3,11.5s-50-4.5-50-4.5"/>
							<path class="st1" d="M99,20.7c0,0-14.8,3-26,33.5"/>
						</g>
					</g>
				</g>
			</g>
			<g>
				<g id="_Mirror_Repeat_-3">
					<g>
						<defs>
							<polygon id="SVGID_00000032608053387568854680000006169031169235734963_" points="20.1,0.7 61.1,41.6 61.1,52.7 20.1,52.7 
															"/>
						</defs>
						<clipPath id="SVGID_00000168078557549939345530000008264216067797819273_">
							<use xlink:href="#SVGID_00000032608053387568854680000006169031169235734963_"  style="overflow:visible;"/>
						</clipPath>
						<g style="clip-path:url(#SVGID_00000168078557549939345530000008264216067797819273_);">
							<polyline class="st1" points="60.5,52.7 60.5,40.8 20.7,40.8 20.7,0 							"/>
						</g>
					</g>
				</g>
				<g id="_Mirror_Repeat_-4">
					<g>
						<defs>
							<polygon id="SVGID_00000007414199938483817820000009536960773013310627_" points="20.1,0.7 61.1,41.6 72.2,41.6 72.2,0.7 
															"/>
						</defs>
						<clipPath id="SVGID_00000158737306656094833540000005873790563872040848_">
							<use xlink:href="#SVGID_00000007414199938483817820000009536960773013310627_"  style="overflow:visible;"/>
						</clipPath>
						<g style="clip-path:url(#SVGID_00000158737306656094833540000005873790563872040848_);">
							<polyline class="st1" points="72.2,41.1 60.3,41.1 60.3,1.2 19.5,1.2 							"/>
						</g>
					</g>
				</g>
			</g>
		</g>
		<g>
			<g>
				<g id="_Mirror_Repeat_-5">
					<g>
						<defs>
							<polygon id="SVGID_00000044881244581877887840000015983818131170621336_" points="30.8,417.8 73.7,374.9 102.2,374.9 
								102.2,425.1 30.8,425.1 							"/>
						</defs>
						<clipPath id="SVGID_00000018946212368704501800000013419891000745785227_">
							<use xlink:href="#SVGID_00000044881244581877887840000015983818131170621336_"  style="overflow:visible;"/>
						</clipPath>
						<g style="clip-path:url(#SVGID_00000018946212368704501800000013419891000745785227_);">
							<path class="st1" d="M73.3,375.4c-7.5,41.7,26.6,51.3,28,48.7s-0.8-7.5-20.3-11.5s-50,4.5-50,4.5"/>
							<path class="st1" d="M99,408.6c0,0-14.8-3-26-33.5"/>
						</g>
					</g>
				</g>
				<g id="_Mirror_Repeat_-6">
					<g>
						<defs>
							<polygon id="SVGID_00000177447466257081565890000012974295554889880450_" points="30.8,417.8 73.7,374.9 73.7,346.5 
								23.6,346.5 23.6,417.8 							"/>
						</defs>
						<clipPath id="SVGID_00000065034116662514185740000003957524493747778693_">
							<use xlink:href="#SVGID_00000177447466257081565890000012974295554889880450_"  style="overflow:visible;"/>
						</clipPath>
						<g style="clip-path:url(#SVGID_00000065034116662514185740000003957524493747778693_);">
							<path class="st1" d="M73.2,375.4c-41.7,7.5-51.3-26.6-48.7-28s7.5,0.8,11.5,20.3s-4.5,50-4.5,50"/>
							<path class="st1" d="M40,349.6c0,0,3,14.8,33.5,26"/>
						</g>
					</g>
				</g>
			</g>
			<g>
				<g id="_Mirror_Repeat_-7">
					<g>
						<defs>
							<polygon id="SVGID_00000026880181025851149950000004753261917952655036_" points="20,428.5 61,387.6 72.1,387.6 72.1,428.5 
															"/>
						</defs>
						<clipPath id="SVGID_00000126323675659561197700000002021779133794119043_">
							<use xlink:href="#SVGID_00000026880181025851149950000004753261917952655036_"  style="overflow:visible;"/>
						</clipPath>
						<g style="clip-path:url(#SVGID_00000126323675659561197700000002021779133794119043_);">
							<polyline class="st1" points="72.1,388.1 60.2,388.1 60.2,428 19.4,428 							"/>
						</g>
					</g>
				</g>
				<g id="_Mirror_Repeat_-8">
					<g>
						<defs>
							<polygon id="SVGID_00000014624124962750601680000004294877637833114014_" points="20,428.5 61,387.6 61,376.5 20,376.5 
															"/>
						</defs>
						<clipPath id="SVGID_00000031899702664730614490000014463546849257161359_">
							<use xlink:href="#SVGID_00000014624124962750601680000004294877637833114014_"  style="overflow:visible;"/>
						</clipPath>
						<g style="clip-path:url(#SVGID_00000031899702664730614490000014463546849257161359_);">
							<polyline class="st1" points="60.4,376.5 60.4,388.4 20.6,388.4 20.6,429.2 							"/>
						</g>
					</g>
				</g>
			</g>
		</g>
		<line class="st1" x1="40" y1="79.7" x2="40" y2="349.7"/>
		<line class="st1" x1="25.5" y1="82.8" x2="25.5" y2="346.7"/>
		<g>
			<g>
				<g id="_Mirror_Repeat_-9">
					<g>
						<defs>
							<polygon id="SVGID_00000082344042743585844200000004981486006176556446_" points="640.3,417.8 597.4,374.9 597.4,346.4 
								647.5,346.4 647.5,417.8 							"/>
						</defs>
						<clipPath id="SVGID_00000143603639920721662550000010146184298164808591_">
							<use xlink:href="#SVGID_00000082344042743585844200000004981486006176556446_"  style="overflow:visible;"/>
						</clipPath>
						<g style="clip-path:url(#SVGID_00000143603639920721662550000010146184298164808591_);">
							<path class="st1" d="M597.8,375.3c41.7,7.5,51.3-26.6,48.7-28s-7.5,0.8-11.5,20.3c-4,19.5,4.5,50,4.5,50"/>
							<path class="st1" d="M631.1,349.6c0,0-3,14.8-33.5,26"/>
						</g>
					</g>
				</g>
				<g id="_Mirror_Repeat_-10">
					<g>
						<defs>
							<polygon id="SVGID_00000163787982580069808190000006703982175449224606_" points="640.3,417.8 597.4,374.9 568.9,374.9 
								568.9,425 640.3,425 							"/>
						</defs>
						<clipPath id="SVGID_00000035496092638248064740000011245504122956654783_">
							<use xlink:href="#SVGID_00000163787982580069808190000006703982175449224606_"  style="overflow:visible;"/>
						</clipPath>
						<g style="clip-path:url(#SVGID_00000035496092638248064740000011245504122956654783_);">
							<path class="st1" d="M597.8,375.4c7.5,41.7-26.6,51.3-28,48.7s0.8-7.5,20.3-11.5s50,4.5,50,4.5"/>
							<path class="st1" d="M572.1,408.6c0,0,14.8-3,26-33.5"/>
						</g>
					</g>
				</g>
			</g>
			<g>
				<g id="_Mirror_Repeat_-11">
					<g>
						<defs>
							<polygon id="SVGID_00000027564358552920200720000011450953182242698897_" points="650.9,428.6 610,387.7 610,376.5 
								650.9,376.5 							"/>
						</defs>
						<clipPath id="SVGID_00000035525981364106128050000007982236843045422509_">
							<use xlink:href="#SVGID_00000027564358552920200720000011450953182242698897_"  style="overflow:visible;"/>
						</clipPath>
						<g style="clip-path:url(#SVGID_00000035525981364106128050000007982236843045422509_);">
							<polyline class="st1" points="610.6,376.5 610.6,388.5 650.4,388.5 650.4,429.3 							"/>
						</g>
					</g>
				</g>
				<g id="_Mirror_Repeat_-12">
					<g>
						<defs>
							<polygon id="SVGID_00000160179746775133354980000008657083355655910528_" points="650.9,428.6 610,387.7 598.9,387.7 
								598.9,428.6 							"/>
						</defs>
						<clipPath id="SVGID_00000089541688706360048480000010564164356954083482_">
							<use xlink:href="#SVGID_00000160179746775133354980000008657083355655910528_"  style="overflow:visible;"/>
						</clipPath>
						<g style="clip-path:url(#SVGID_00000089541688706360048480000010564164356954083482_);">
							<polyline class="st1" points="598.9,388.2 610.8,388.2 610.8,428 651.6,428 							"/>
						</g>
					</g>
				</g>
			</g>
		</g>
		<g>
			<g>
				<g id="_Mirror_Repeat_-13">
					<g>
						<defs>
							<polygon id="SVGID_00000034793099075615373100000011875998423263789725_" points="640.3,11.4 597.4,54.3 568.9,54.3 
								568.9,4.2 640.3,4.2 							"/>
						</defs>
						<clipPath id="SVGID_00000013185258952225915360000009600713103578008730_">
							<use xlink:href="#SVGID_00000034793099075615373100000011875998423263789725_"  style="overflow:visible;"/>
						</clipPath>
						<g style="clip-path:url(#SVGID_00000013185258952225915360000009600713103578008730_);">
							<path class="st1" d="M597.8,53.8c7.5-41.7-26.6-51.3-28-48.7s0.8,7.5,20.3,11.5s50-4.5,50-4.5"/>
							<path class="st1" d="M572.1,20.6c0,0,14.8,3,26,33.5"/>
						</g>
					</g>
				</g>
				<g id="_Mirror_Repeat_-14">
					<g>
						<defs>
							<polygon id="SVGID_00000075142458701598242290000003426631231525530301_" points="640.3,11.4 597.4,54.3 597.4,82.8 
								647.5,82.8 647.5,11.4 							"/>
						</defs>
						<clipPath id="SVGID_00000057107027111947958340000017822034068154465449_">
							<use xlink:href="#SVGID_00000075142458701598242290000003426631231525530301_"  style="overflow:visible;"/>
						</clipPath>
						<g style="clip-path:url(#SVGID_00000057107027111947958340000017822034068154465449_);">
							<path class="st1" d="M597.8,53.9c41.7-7.5,51.3,26.6,48.7,28s-7.5-0.8-11.5-20.3c-4-19.5,4.5-50,4.5-50"/>
							<path class="st1" d="M631.1,79.6c0,0-3-14.8-33.5-26"/>
						</g>
					</g>
				</g>
			</g>
			<g>
				<g id="_Mirror_Repeat_-15">
					<g>
						<defs>
							<polygon id="SVGID_00000104695178718160446040000006442676187990881180_" points="651,0.8 610.1,41.7 599,41.7 599,0.8 
															"/>
						</defs>
						<clipPath id="SVGID_00000027572199270296949290000017601015346870221993_">
							<use xlink:href="#SVGID_00000104695178718160446040000006442676187990881180_"  style="overflow:visible;"/>
						</clipPath>
						<g style="clip-path:url(#SVGID_00000027572199270296949290000017601015346870221993_);">
							<polyline class="st1" points="599,41.1 610.9,41.1 610.9,1.3 651.7,1.3 							"/>
						</g>
					</g>
				</g>
				<g id="_Mirror_Repeat_-16">
					<g>
						<defs>
							<polygon id="SVGID_00000035501784141718121740000007326445613853765259_" points="651,0.8 610.1,41.7 610.1,52.8 651,52.8 
															"/>
						</defs>
						<clipPath id="SVGID_00000023991339001889337550000002819893213739190944_">
							<use xlink:href="#SVGID_00000035501784141718121740000007326445613853765259_"  style="overflow:visible;"/>
						</clipPath>
						<g style="clip-path:url(#SVGID_00000023991339001889337550000002819893213739190944_);">
							<polyline class="st1" points="610.7,52.8 610.7,40.9 650.5,40.9 650.5,0.1 							"/>
						</g>
					</g>
				</g>
			</g>
		</g>
		<line class="st1" x1="631.1" y1="349.6" x2="631.1" y2="79.6"/>
		<line class="st1" x1="645.3" y1="346.4" x2="645.3" y2="82.5"/>
		<line class="st1" x1="98.9" y1="20.6" x2="572.3" y2="20.6"/>
		<line class="st1" x1="101.6" y1="5.7" x2="569.2" y2="5.7"/>
		<line class="st1" x1="572.3" y1="408.6" x2="98.9" y2="408.6"/>
		<line class="st1" x1="569.6" y1="423.5" x2="102" y2="423.5"/>
	</g>
	<g>
		<path class="st17" d="M22.7,311c0.3,1.2,0.7,2.3,2.3,2.1c0.6,1.5,1.1,3,1.7,4.5c1.8,4.1,3.6,8.1,5.5,12.1c0.8,0.9,1.7,1.8,2.5,2.7
			c1.2,3.6,2.2,7.2,3.5,10.7c2,5.5,3.5,11.2,7.5,15.7c2.2,2.5,4.4,5.2,7,8.2c-1.3,0.7-2.4,1.5-3.7,1.9c-4.9,1.5-9.5,0-14.1-1.5
			c-0.8-0.4-1.6-0.7-2.4-1.1c-1-0.7-2-1.4-3.1-2c0-0.5,0-1-0.1-1.5c0.8,0.2,1.5,0.3,2.3,0.6c2.6,1.2,5.1,2.7,7.8,3.6
			c3.3,1.1,6.8,1.3,10.1-0.5c-0.3-0.6-0.4-0.9-0.5-1c-0.4-0.4-0.8-0.9-1.2-1.3c-6.1-6.1-9.8-13.5-11.6-21.8
			c-0.7-3.2-1.4-6.2-3.2-8.9c-1.9-2.8-3.6-5.8-5.2-8.9c-1.3-2.5-2-5.4-3.4-7.9c-3.2-5.5-7.6-10-13.5-12.7c-0.1-0.1-0.3-0.2-0.4-0.3
			c0.1,0.1,0.2,0.3,0.3,0.4c0.4,0.9,0.6,1.9,1.1,2.8c2.9,6.2,6,12.3,8.5,18.7c2,5.1,2.9,10.5,4.7,15.7c2.2,6.8,2.9,13.8,3.8,20.8
			c-0.5,0-1,0-1.5,0c-0.4,0-0.8,0-1.2,0c0-1.1,0-2.3,0-3.4c1-1,0.9-1.7-0.6-2.1c-0.9-8.6-3.4-17-5.8-25.3
			c-3.5-11.8-8.2-21.3-11.1-22.7c-0.6,2.8-1.5,5.5-1.8,8.2c-0.3,3-0.6,6.2,0,9.1c1.7,7.8-0.2,15-3.5,21.9c-1.3,2.7-2,5.3-0.8,8.2
			c0.8,2,1.5,4.1,2.2,6.1c-0.4,0-0.8,0.1-1.2,0.2c-3.5-5.2-5.2-10.5-1-16.1c0.1-0.2,0.3-0.4,0.4-0.6c1.5-6.2,3.7-12.3,2-18.8
			c-0.8-3.1-0.6-6,0.1-9.1c1-4.7,1.4-9.5,2.1-14.2c0.8-0.9,1.6-1.7,2.4-2.6c3.5,2.5,7,4.9,10.4,7.4C20.9,308.9,21.7,310,22.7,311
			L22.7,311z"/>
		<path class="st18" d="M146.7,436.3c-0.7-0.3-1.4-0.6-2-0.9c-0.9-0.3-1.8-0.6-2.6-0.9l0,0c-0.3-0.2-0.7-0.3-1-0.5
			c-0.2,0-0.3,0-0.4-0.2c0-0.3,0.1-0.5,0.1-0.8c1.5,0.2,3,0.3,5,0.5c-0.6-1.1-0.8-1.9-1.2-2.4c-3-3.7-5.9-7.6-9.1-11.1
			c-7.5-8-16.4-13.6-27.1-16.5c-7.4-2-13.9,0.1-19.7,4.2c-2.4,1.7-3.8,4.6-4.8,8.3c3.1-0.6,5.5-1.1,7.9-1.5c-0.2,0.5-0.5,1-0.7,1.4
			c-3,0.6-5.9,1.2-8.9,1.8c0.4-2,0.9-4,1.3-5.9c1.6-2,2.9-4.5,4.9-6c5.3-4.1,11.4-5.5,18.1-4.5c1.7,0.3,3.3,0.2,5.2,0.3
			c0.3-5.7,2.3-10.5,4.7-15.2c2.9-5.9,7.8-9.6,13.4-12.6c0.2,0.7,0.5,1.5,0.8,2.2c-0.9,3.5-1.8,6.9-2.7,10.3
			c-1.2,1.3-1.1,2.7-0.1,4.1c0,0.7,0,1.4,0,2.1c-0.2,0.9-0.4,1.8-0.6,2.7c-0.2-0.5-0.7-1-0.7-1.5c0.3-3.9,0.6-7.7,1-11.5
			c0.2-1.6,0.8-3.2-0.3-5.1c-6.1,5.2-11.1,10.8-12.8,18.7c-1.1,4.8-0.6,5.6,3.6,7.9c8.9,4.8,17.2,10.4,23.4,18.5
			c2.8,3.7,5.2,7.7,7.8,11.5c-0.2,0.5-0.5,0.9-0.7,1.4C147.7,435.6,147.2,435.9,146.7,436.3L146.7,436.3z M112.6,402.6
			c0-0.2,0-0.3,0-0.5c-0.4,0-0.7,0.1-1.1,0.1c0,0,0,0.2,0,0.2C111.8,402.5,112.2,402.6,112.6,402.6L112.6,402.6z"/>
		<path class="st19" d="M14.3,404.6c0.6-0.6,1.1-1.3,1.7-1.9c0.6-0.5,1.2-0.9,1.8-1.4l0,0c2.5,0.5,5.1,0.9,7.7,1.4
			c2.2,1.4,1.2,3.6,1.3,5.5c-1.3,1-2.7,1.8-3.9,2.9c-0.6,0.5-1,1.4-1.5,2.1c-3.1-1.1-6.1-2.1-10-0.8c0.4-1.7,0.5-2.9,0.9-4
			c0.4-1,1-2,1.5-2.9l0,0C13.8,405.2,14.1,404.9,14.3,404.6L14.3,404.6z"/>
		<path class="st20" d="M150.1,423.6c0.2,0.7,0.4,1.4,0.7,2c1.3,5.6,2.7,11.2,4,16.7l-1.1,0.5c-0.9-1.3-1.8-2.6-2.7-3.9
			c-0.2-0.8-0.4-1.7-0.6-2.5l0.3,0l0.3,0c0.2-0.2,0.5-0.5,0.7-0.7c-0.2-3.8-1.1-7.3-3.6-10.3c-1.4-1.6-2.8-3.3-4.3-4.9
			c-1.9-2-3.1-4.1-3.2-7c-0.1-1.2-0.5-2.5-1.2-3.5c-2.4-3.3-4.1-7.2-8.6-8.4c-0.8-0.2-1.3-1.2-1.9-1.9c-0.2-0.2-0.5-0.5-0.7-0.7l0,0
			c-0.2-0.2-0.5-0.5-0.7-0.7l0,0l0.3-2.5c1.9,1.5,3.7,3.1,5.6,4.7c1.4,1.1,3.1,2.1,4.1,3.5c2,3,3.5,6.3,5.2,9.5
			c0,0.3,0.1,0.5,0.1,0.8c0.2,0.2,0.4,0.5,0.5,0.7l0,0l0,0.7C144.2,419.8,147.1,421.7,150.1,423.6L150.1,423.6z"/>
		<path class="st20" d="M3.5,362.1c0.4,0,0.8-0.1,1.2-0.2h0c0.2,0.5,0.4,0.9,0.7,1.4c1.2,3.2,2.9,6.3,3.3,9.6
			C9,376.3,8,379.8,7.5,384c2.2-1.2,3.8-1.9,5.2-2.9c2.4-1.7,4.7-3.6,7-5.4c0.5,0,1,0,1.4,0c0,0.1,0,0.3,0,0.4
			c-4.2,5.2-9.8,8.3-16.4,10.9c0.7-3.5,1.3-6.6,1.9-9.8c0.5-2.5,0.2-4.9-0.9-7.3C4.7,367.5,4.2,364.7,3.5,362.1L3.5,362.1z"/>
		<path class="st19" d="M65.3,427.4c-0.2-0.1-0.4-0.2-0.6-0.3c-0.2-0.3-0.5-0.6-0.7-0.9c0-0.9,0-1.8-0.1-2.7v0
			c0.2-0.5,0.5-0.9,0.7-1.4l0,0c0.2-0.3,0.4-0.6,0.6-0.9c0-0.4,0.1-0.8,0.1-1.2c0.2-0.5,0.4-1,0.6-1.5c0-0.2,0-0.4,0-0.6
			c0.7-0.7,1.4-1.4,2.1-2.1l0,0c0.2-0.2,0.5-0.4,0.7-0.6c0-0.2,0.1-0.4,0.2-0.6c0.4-0.1,0.7-0.2,1.1-0.3c0.9,0.5,1.8,1.1,2.8,1.6
			c0.3,0.4,0.6,0.8,0.9,1.2c0.2,0.2,0.4,0.5,0.6,0.7c0.2,1.6,0.4,3.2,0.6,4.8c-1.4,0.5-2.8,1.1-4.1,1.6l-0.3,0
			c-0.3,0.2-0.7,0.4-1,0.7h0.1c-1.4,0.8-3.6-0.3-4.3,2C65.3,427,65.3,427.2,65.3,427.4L65.3,427.4z"/>
		<path class="st20" d="M102.6,425.5c-1,0.5-2.1,1-3.1,1.5c-1.5,0.1-2.7-0.2-2.4-2.2c1.1,0,2.5,0.5,3.1,0c1.8-1.6,3.2-3.6,5-5.7
			c-4-0.5-7.5,2.3-8.1,5.7c-0.2,0-0.5,0-0.7,0c-0.3-1-0.5-2.1-0.8-3.1c1.4-1,2.9-2,4.3-3.1c1-0.8,1.7-1.6,0.2-2.6
			c0.3-0.3,0.6-0.6,0.9-0.9c0.9,0.6,1.8,1.2,2.7,1.8c0.9,0.6,1.9,1.1,2.8,1.7c1.2,0.6,2.3,1.3,3.5,2c1.5,0.4,2.9,0.7,4.4,1.1
			c-1.9,2.2-4,0.4-5.8-0.1c-2.1-0.5-3.5-0.4-4.2,1.8C103.9,424.1,103.3,424.8,102.6,425.5L102.6,425.5z"/>
		<path class="st20" d="M126.8,425.5c-1.5-0.7-3.1-1.4-4.6-2.1c-2.2-0.5-4.4-1.1-6.7-1.6c2-1.2,4-1.4,6.2-0.4c4.3,2,8.9,3.6,13,5.9
			c2.2,1.2,3.7,3.6,5.5,5.4c-0.1,0.1-0.2,0.3-0.3,0.5c-2.4-1.7-4.8-3.5-7.3-5C130.8,427.1,128.7,426.4,126.8,425.5L126.8,425.5z"/>
		<path class="st21" d="M40,425.9c-0.5,2-1.5,3.3-3.7,3.5c-0.4,0-1,0.2-1.3,0.5c-3.5,3.1-7.3,2.4-11.1,0.8c-0.6-0.3-1.3-0.3-2-0.4
			c0.5-0.2,1-0.4,1.5-0.6c6.2,1.8,11.6,0.5,16.1-4.2C39.7,425.5,39.9,425.7,40,425.9z"/>
		<path class="st22" d="M13.6,405.5c-0.5,1-1.1,1.9-1.5,2.9c-0.4,1.1-0.5,2.3-0.9,4c3.8-1.3,6.9-0.4,10,0.8c0,0.4,0,0.8,0,1.2
			c-3.2-0.6-6.3-2.2-9.6-0.5c-0.5-0.3-1-0.5-1.4-0.8C9.6,409.8,10.1,406.9,13.6,405.5L13.6,405.5z"/>
		<path class="st21" d="M13,428.1c-0.1,0.1-0.3,0.1-0.5,0.1c-2.5-1.4-3.5-3.3-2.5-6.2c0.4-1.2-0.1-2.7-0.1-4c0-1.2,0-2.4,0-3.6
			c0.4,0,0.7,0,1.1,0.1c0.2,2.5,1,5.1,0.5,7.4c-0.8,3.2,0.3,4.7,2.9,5.7C13.8,427.7,13.4,427.9,13,428.1z"/>
		<path class="st21" d="M53,425.5c-1.6-1.4-3.2-2.7-4.7-4c-1.8,0.8-3.3,1.4-4.8,2.1c0-0.3-0.1-0.6-0.1-0.9c2.3-1.2,4.1-2.7,3.7-5.6
			c0-0.1,0.3-0.3,0.4-0.5c0,0.9-0.2,1.9,0.1,2.7c0.2,0.6,1.1,1,1.7,1.4C51.1,421.7,53,422.9,53,425.5L53,425.5L53,425.5z"/>
		<path class="st21" d="M28.9,395.1c-1.4-1.8-2.8-3.5-4.1-5.3c-1.3-1.8-0.2-3.4,0.6-5c0.2,0,0.5,0,0.7,0.1c0,0.5,0,1.1,0,1.6
			c0,1-0.2,2.1,0.1,3c1,2,2.2,3.8,3.3,5.7C29.4,395.2,29.1,395.2,28.9,395.1L28.9,395.1z"/>
		<path class="st18" d="M26,384.8c-0.2,0-0.5,0-0.7-0.1l-1.3-7.5c0.3-1,0.5-2,0.8-3c0.4,0.7,1,1.4,1.1,2.1c0.2,1.4,0,2.9,0.1,4.4
			c0.1,1.5,0.2,3,2.1,3.4C27.4,384.4,26.7,384.6,26,384.8L26,384.8z"/>
		<path class="st23" d="M13,428.1c0.4-0.2,0.9-0.3,1.3-0.5c2.3,1.2,4.6,2,6.9,0c0.5,0,0.9,0,1.4,0.1c0.3,0.7,0.6,1.3,1,2
			c-0.5,0.2-1,0.4-1.5,0.6l-0.3,0.1l-0.3,0c-1.9-0.2-3.8-0.4-5.7-0.6c-0.4-0.2-0.8-0.4-1.2-0.7C13.9,428.7,13.4,428.4,13,428.1
			L13,428.1z"/>
		<path class="st22" d="M26.7,408.2c-0.1-1.9,0.9-4.1-1.3-5.5c0-0.4,0-0.7,0-1.1c0.7-0.1,1.3-0.3,2-0.4c0.2,0.3,0.5,0.5,0.7,0.8
			c0.1,2.1-0.5,4.5,1.6,6.1C28.6,408.2,27.7,408.2,26.7,408.2L26.7,408.2z"/>
		<path class="st23" d="M97.1,424.8c-0.3,2,0.9,2.3,2.4,2.2c-3.1,2.4-6.8,3-10.6,3c0.7-0.3,1.3-0.8,2.1-1c0.9-0.3,1.8-0.5,2.7-0.7v0
			c2.6,0.2,2.7-1.5,2.7-3.4l0.1-0.1C96.7,424.8,96.9,424.8,97.1,424.8C97.2,424.8,97.1,424.8,97.1,424.8z"/>
		<path class="st21" d="M25.4,401.6c0,0.4,0,0.7,0,1.1c-2.5-0.5-5.1-0.9-7.7-1.4c1.3-1.9,3.1-1.6,4.9-1
			C23.5,400.7,24.4,401.2,25.4,401.6L25.4,401.6z"/>
		<path class="st17" d="M93.7,428.2c-0.9,0.2-1.8,0.4-2.7,0.7c-0.7,0.3-1.4,0.7-2.1,1c-0.5,0-1,0-1.5,0c-0.7-0.4-1.4-0.8-2.1-1
			c-1.1-0.3-2.3-0.5-3.4-0.8C85.8,428.2,89.7,428.2,93.7,428.2L93.7,428.2z"/>
		<path class="st22" d="M24.9,374.2c-0.3,1-0.5,2-0.8,3c-1-0.4-1.9-0.7-2.9-1c0-0.1,0-0.3,0-0.4c0.2-0.7,0.4-1.4,0.6-2.1l0,0
			c1,0,1.9,0,2.9,0C24.7,373.9,24.8,374.1,24.9,374.2L24.9,374.2z"/>
		<path class="st23" d="M9.4,300.7c-0.8,0.9-1.6,1.7-2.4,2.6c-0.5-1.2-1-2.4-1.5-3.7c0.2-0.2,0.3-0.4,0.5-0.6
			C7.1,299.5,8.3,300.1,9.4,300.7z"/>
		<path class="st23" d="M28.9,395.1c0.2,0,0.5,0,0.7,0l0,0.1l0.6,0.5l0.1,0.1c0.2,0.2,0.4,0.4,0.5,0.6c0.1,0.2,0.2,0.5,0.2,0.7
			c-0.1,0.7-0.2,1.4-0.3,2.1c-0.2,0.2-0.4,0.4-0.6,0.6c-0.5,0-0.9,0.1-1.4,0.1l-0.3,0L28.9,395.1L28.9,395.1z"/>
		<path class="st23" d="M81.9,428.2c1.1,0.2,2.3,0.4,3.4,0.8c0.7,0.2,1.4,0.7,2.1,1l-6.2-0.4c0-0.4,0-0.9,0-1.3
			C81.4,428.3,81.7,428.3,81.9,428.2L81.9,428.2z"/>
		<path class="st23" d="M43.3,422.6c0,0.3,0.1,0.6,0.1,0.9c-1.1,0.8-2.3,1.5-3.4,2.3c-0.1-0.2-0.2-0.4-0.4-0.5c0-0.6,0-1.2,0-1.9
			c0.8-0.2,1.6-0.4,2.4-0.6C42.3,422.8,42.8,422.7,43.3,422.6L43.3,422.6z"/>
		<path class="st22" d="M60.5,425.4c-2.1,0.2-4.1,0.5-6.2,0.8c0-0.2,0-0.4,0-0.6c2.1-0.2,4.1-0.5,6.2-0.7
			C60.5,425,60.5,425.2,60.5,425.4z"/>
		<path class="st24" d="M69.6,424.9c0,0.3,0.1,0.6,0.1,1c-0.1,0.2-0.2,0.4-0.5,0.3c-1.3,0.2-2.6,0.4-3.8,0.6
			C66,424.6,68.3,425.7,69.6,424.9L69.6,424.9z"/>
		<path class="st23" d="M150.3,436.5c0.2,0.8,0.4,1.7,0.6,2.5c-0.9-0.6-1.8-1.2-2.7-1.8c0.2-0.4,0.5-0.9,0.7-1.3
			c0.2,0,0.4-0.1,0.6-0.1h0C149.8,436.1,150.1,436.3,150.3,436.5L150.3,436.5L150.3,436.5z"/>
		<path class="st24" d="M64,423.4c0,0.9,0,1.8,0.1,2.7c-0.3,0-0.7,0.1-1,0.1c-0.4-0.1-0.7-0.3-1.1-0.4c0.3-0.5,0.5-1.1,0.8-1.6
			C63.1,423.9,63.5,423.7,64,423.4L64,423.4z"/>
		<path class="st23" d="M62.7,424.2c-0.3,0.5-0.5,1.1-0.8,1.6c-0.5-0.1-0.9-0.3-1.4-0.4c0-0.2,0-0.4,0-0.6c0.5-0.5,1-0.9,1.5-1.3
			C62.2,423.7,62.4,424,62.7,424.2L62.7,424.2z"/>
		<path class="st21" d="M149,435.9c-0.2,0.4-0.5,0.9-0.7,1.3c-0.5-0.3-1-0.6-1.6-0.9c0.5-0.4,1-0.8,1.5-1.2
			C148.4,435.4,148.7,435.7,149,435.9L149,435.9z"/>
		<path class="st21" d="M65.3,426.8c1.3-0.2,2.6-0.4,3.8-0.6c-1,1.5-2.3,1.7-3.9,1.2C65.3,427.2,65.3,427,65.3,426.8z"/>
		<path class="st21" d="M17.7,401.3c-0.6,0.5-1.2,0.9-1.8,1.4C16.6,402.2,17.1,401.8,17.7,401.3z"/>
		<path class="st21" d="M28.1,402c-0.2-0.3-0.5-0.5-0.7-0.8c0.4-0.4,0.8-0.8,1.2-1.3l0.3,0C28.6,400.7,28.3,401.4,28.1,402L28.1,402
			z"/>
		<path class="st21" d="M142,434.5c0.9,0.3,1.8,0.6,2.6,0.9C143.8,435.1,142.9,434.8,142,434.5z"/>
		<path class="st23" d="M10.9,414.5c-0.4,0-0.7,0-1.1-0.1c0.1-0.5,0.2-0.9,0.3-1.4c0.5,0.3,1,0.5,1.4,0.8
			C11.3,414.1,11.1,414.3,10.9,414.5L10.9,414.5z"/>
		<path class="st21" d="M54.4,425.5c0,0.2,0,0.4,0,0.6c-0.5-0.2-0.9-0.5-1.4-0.7l0,0C53.4,425.5,53.9,425.5,54.4,425.5L54.4,425.5z"
			/>
		<path class="st21" d="M63,426.2c0.3,0,0.7-0.1,1-0.1c0.2,0.3,0.5,0.6,0.7,0.9C64.1,426.8,63.6,426.5,63,426.2z"/>
		<path class="st22" d="M14.3,404.6c-0.2,0.3-0.5,0.6-0.8,0.9C13.8,405.2,14.1,404.9,14.3,404.6z"/>
		<path class="st21" d="M140.7,433c0,0.3-0.1,0.5-0.1,0.8c-0.2-0.2-0.5-0.4-0.7-0.7c0.1-0.2,0.2-0.3,0.3-0.5
			C140.3,432.8,140.5,432.9,140.7,433L140.7,433z"/>
		<path class="st21" d="M141,434c0.3,0.2,0.7,0.3,1,0.5C141.6,434.3,141.3,434.1,141,434z"/>
		<path class="st25" d="M19.8,375.8c-2.3,1.8-4.6,3.7-7,5.4c-1.4,1-3.1,1.7-5.2,2.9c0.5-4.3,1.4-7.8,1.1-11.1
			c-0.4-3.3-2.1-6.4-3.3-9.6c-0.2-0.5-0.4-0.9-0.7-1.4h0c-0.7-2-1.4-4.1-2.2-6.1c-1.1-2.9-0.5-5.5,0.8-8.2c3.3-6.9,5.1-14,3.5-21.9
			c-0.6-2.9-0.3-6.1,0-9.1c0.3-2.8,1.2-5.5,1.8-8.2c2.9,1.5,7.6,11,11.1,22.7c2.5,8.3,4.9,16.6,5.8,25.3c0.2,0.7,0.4,1.4,0.6,2.1
			c0,1.1,0,2.3,0,3.4c0.4,4.6-2.5,7.9-4.2,11.7l0,0C21.1,374.4,20.5,375,19.8,375.8L19.8,375.8z"/>
		<path class="st26" d="M28.8,362c-0.9-7-1.5-14-3.8-20.8c-1.7-5.2-2.7-10.6-4.7-15.7c-2.5-6.4-5.7-12.5-8.5-18.7
			c-0.4-0.9-0.7-1.9-1.1-2.8l0.1-0.1c5.9,2.7,10.3,7.2,13.5,12.7c1.4,2.5,2.1,5.3,3.4,7.9c1.6,3,3.3,6,5.2,8.9
			c1.9,2.8,2.6,5.8,3.2,8.9c1.8,8.4,5.5,15.7,11.6,21.8c0.4,0.4,0.8,0.8,1.2,1.3c0.1,0.2,0.2,0.4,0.5,1c-3.3,1.7-6.8,1.5-10.1,0.5
			c-2.7-0.9-5.2-2.4-7.8-3.6c-0.7-0.3-1.5-0.4-2.3-0.6C29.2,362.5,29,362.3,28.8,362L28.8,362z"/>
		<path class="st18" d="M28.6,365.4c0.1,2.1,0.2,4.1,0.2,6.2c0,0.9-0.1,1.8-0.1,2.8c0,0.5,0,0.9-0.1,1.4c-0.2,0-0.4,0-0.6,0
			c-0.3-1.9-0.7-3.8-1-5.6c-0.8,1-1.6,1.9-2.4,2.9c-0.1-0.3-0.2-0.6-0.3-1c-0.1,0.1-0.3,0.1-0.4,0.2c0.2,0.3,0.4,0.5,0.6,0.8
			c0,0.2,0.1,0.4,0.1,0.5c-1,0-1.9,0-2.9,0c1.8-3.8,4.7-7.1,4.2-11.7c0.4,0,0.8,0,1.2,0C27.7,363.1,26.5,364.9,28.6,365.4
			L28.6,365.4z"/>
		<path class="st23" d="M28.6,365.4c-2.1-0.5-0.8-2.3-1.2-3.4c0.5,0,1,0,1.5,0c0.2,0.2,0.4,0.4,0.6,0.6c0,0.5,0,1,0.1,1.5
			C29.2,364.6,28.9,365,28.6,365.4L28.6,365.4z"/>
		<path class="st18" d="M26,358.5c-0.2-0.7-0.4-1.4-0.6-2.1C27,356.8,27.1,357.5,26,358.5z"/>
		<path class="st26" d="M10.8,304c-0.1-0.1-0.2-0.3-0.3-0.4c0.1,0.1,0.3,0.2,0.4,0.3C10.9,303.9,10.8,304,10.8,304z"/>
		<path class="st25" d="M140.7,433c-0.2,0-0.4-0.1-0.6-0.3c-1.8-1.8-3.3-4.2-5.5-5.4c-4.1-2.3-8.7-4-13-5.9c-2.2-1-4.2-0.8-6.2,0.4
			c-0.3,0-0.5-0.1-0.8-0.1c-1.5-0.4-2.9-0.7-4.4-1.1c-0.5-1.9-2-1.9-3.5-2c-0.9-0.5-1.9-1.1-2.8-1.7c-0.9-0.6-1.8-1.2-2.7-1.8
			c-0.2-0.2-0.5-0.5-0.7-0.7l-1.4-0.6c-0.2,0-0.4-0.1-0.7-0.1c-2.5-1.4-4.7-0.7-6.9,0.7l0,0c-2.4,0.5-4.8,0.9-7.9,1.5
			c1.1-3.6,2.4-6.6,4.8-8.3c5.9-4.2,12.3-6.2,19.7-4.2c10.7,2.9,19.6,8.6,27.1,16.5c3.3,3.5,6.1,7.4,9.1,11.1
			c0.5,0.6,0.7,1.3,1.2,2.4C143.8,433.3,142.2,433.2,140.7,433L140.7,433z"/>
		<path class="st26" d="M128.9,400c0.6,0.6,1.2,1.6,1.9,1.9c4.5,1.2,6.2,5.1,8.6,8.4c0.7,1,1.1,2.3,1.2,3.5c0.1,2.8,1.4,5,3.2,7
			c1.5,1.6,2.9,3.2,4.3,4.9c2.5,3,3.4,6.5,3.6,10.3c-0.2,0.2-0.5,0.5-0.7,0.7l-0.3,0l-0.3,0v0c-0.2-0.2-0.4-0.5-0.7-0.7h0
			c-0.2-0.7-0.5-1.4-0.7-2c-2.6-3.9-5-7.9-7.8-11.5c-6.2-8.1-14.6-13.7-23.4-18.5c-4.2-2.3-4.7-3.1-3.6-7.9
			c1.7-7.9,6.8-13.5,12.8-18.7c1.1,1.8,0.5,3.4,0.3,5.1c-0.4,3.8-0.7,7.7-1,11.5c0,0.5,0.4,1,0.7,1.5v0c0,0.2,0,0.5,0,0.7
			c0.2,0.9,0.4,1.9,0.7,2.8l0,0c0.2,0.2,0.5,0.5,0.7,0.7l0,0C128.4,399.5,128.6,399.8,128.9,400L128.9,400z"/>
		<path class="st21" d="M82,417.7c-0.4,0.3-0.9,0.7-1.3,1c-0.3,0-0.6-0.1-0.9-0.1c0.5-2.7,1.1-5.4,1.4-8c0.1-1.3-0.2-2.8-2-3
			c0.6-0.8,2.5-1.2,0.8-2.6c-0.1-2.7-2.8-7.9-4.7-8.3c-3.1-0.6-6.2-0.9-9.3-1.4c-0.2,0-0.4,0-0.6-0.1c0-0.2,0-0.3,0.1-0.5
			c0.9-0.1,1.9-0.2,2.8-0.3c0.5-0.1,0.9-0.2,1.4-0.4c2.6,0.5,5.2,1,7.3,1.4c1.3,1.9,2.5,3.4,3.5,5c0.5,0.8,0.9,1.8,1.1,2.8
			c0.5,2.8,0.9,5.6,1.4,8.4c0,0.1,0.4,0.2,0.6,0.3C82.9,413.7,82.4,415.7,82,417.7L82,417.7z"/>
		<path class="st22" d="M100.3,416c-3.1-0.1-6.2-0.1-9.4-0.2l0.7-1.4l0,0c2.3-0.2,4.6-0.4,6.9-0.7c0.2,0,0.4,0,0.7,0.1l1.4,0.6
			c0.2,0.2,0.5,0.5,0.7,0.7C100.9,415.5,100.6,415.7,100.3,416L100.3,416z"/>
		<path class="st23" d="M129.6,373.7c0.4-0.1,0.9-0.1,1.3-0.2c-0.2,0.8-0.4,1.6-0.6,2.4C130.1,375.1,129.8,374.4,129.6,373.7z"/>
		<path class="st23" d="M127.6,386.2c0,1.4-0.1,2.7-0.1,4.1C126.5,388.9,126.4,387.5,127.6,386.2z"/>
		<path class="st20" d="M148.9,433.8c0.2,0.7,0.5,1.4,0.7,2.1c-0.2,0-0.4,0-0.6,0.1c-0.2-0.3-0.5-0.5-0.8-0.8
			C148.4,434.7,148.7,434.2,148.9,433.8L148.9,433.8z"/>
		<path class="st23" d="M127.5,392.4c0,0.9,0.1,1.8,0.1,2.7c-0.2,0-0.5,0-0.8,0v0C127,394.2,127.2,393.3,127.5,392.4L127.5,392.4z"
			/>
		<path class="st23" d="M112.6,402.6c-0.4,0-0.7-0.1-1.1-0.2c0,0,0-0.2,0-0.2c0.4,0,0.7-0.1,1.1-0.1
			C112.6,402.3,112.6,402.5,112.6,402.6L112.6,402.6z"/>
		<path class="st23" d="M26.7,408.2c1,0,2-0.1,2.9-0.1c0.4,0,0.8,0.1,1.2,0.1c0,0.3,0,0.5,0,0.8c-2.5,1-2.9,2-1.2,3.8
			c1.1,1.3,2.6,2.2,4.4,3.7c0.1-1.7,0.2-2.9,0.2-4.1c0.5,0.2,0.9,0.3,1.4,0.5c0,1.6,0.1,3.2,0.1,4.9c0,0.3,0,0.6,0,0.9
			c-1.2,0.2-2.3,0.4-3.5,0.6c0.2-1.9-0.2-3.6-2.2-4.1c-0.9-0.2-2.4-0.1-3.1,0.5c-0.9,0.9-1.3,2.4-1.8,3.4c2.7,2.8,4.8,0.4,7,0.2
			c-0.8,2.3-2.9,2.1-4.7,2.4c-1,0.1-1.9,0.4-2.9,0.5c-0.2-0.8-0.5-1.5-0.7-2.3c-0.9-1.9-1.9-3.7-2.8-5.6c0-0.4,0-0.8,0-1.2
			c0.5-0.7,0.9-1.5,1.5-2.1C24,410.1,25.3,409.2,26.7,408.2L26.7,408.2z M25.3,410.3c0,0.8,0,1.5,0,2.3c0,0.5,0,1.1,0,1.6
			c-0.6-0.2-1.1-0.5-2.2-0.9c0.4,1.5,0.6,2.5,0.8,3.5c0.2,0,0.4-0.1,0.6-0.1c0.2-0.9,0.5-1.7,0.7-2.6c2,0,2.7-1.1,2.2-3.2
			C27.2,409.1,26.4,409.3,25.3,410.3L25.3,410.3L25.3,410.3z"/>
		<path class="st18" d="M127.5,398.6c-0.2-0.9-0.4-1.9-0.7-2.8c0.3,0,0.6,0,0.9,0c0.1,0.1,0.2,0.2,0.1,0.4L127.5,398.6L127.5,398.6z
			"/>
		<path class="st18" d="M128.2,399.3c-0.2-0.2-0.5-0.5-0.7-0.7C127.7,398.8,127.9,399.1,128.2,399.3z"/>
		<path class="st18" d="M128.9,400c-0.2-0.2-0.5-0.5-0.7-0.7C128.4,399.5,128.6,399.8,128.9,400z"/>
		<path class="st27" d="M142.7,414.5c0.2,0.2,0.4,0.5,0.5,0.7C143.1,415,142.9,414.8,142.7,414.5z"/>
		<path class="st18" d="M151,436.5c0.2-0.2,0.5-0.5,0.7-0.7C151.4,436.1,151.2,436.3,151,436.5z"/>
		<path class="st18" d="M19.8,375.8c0.7-0.7,1.4-1.4,2.1-2.1c-0.2,0.7-0.4,1.4-0.6,2.1C20.7,375.8,20.2,375.8,19.8,375.8L19.8,375.8
			z"/>
		<path class="st17" d="M4.6,362c0.2,0.5,0.4,0.9,0.7,1.4C5.1,362.9,4.9,362.4,4.6,362z"/>
		<path class="st23" d="M79.9,404.8c1.8,1.5-0.2,1.9-0.8,2.6c-2.2,0.5-4.3,1.1-6.1,1.6c-0.8,2-1.3,3.5-1.9,5.1
			c-0.3,0.1-0.6,0.1-0.9,0.2c-0.4,0.1-0.7,0.2-1.1,0.3c-0.3-0.1-0.7-0.1-1.1-0.2c0.4-1.6,0.4-3.1-1.6-3.3c-1.7-0.1-4.1-1.1-4.8,1.8
			c-0.3,0-0.7,0.1-1,0.1c-0.4-0.9-0.9-1.8-1.4-2.8h-4.6c-0.1-0.3-0.2-0.5-0.3-0.8c3.8,0.4,5.9-2,8.3-4c-0.5,1.5-1,2.9-1.5,4.4
			c2.8,1.3,4.5-0.3,6.1-1.8c0.1,0.1,0.2,0.2,0.3,0.3c-0.8,2.6,1.7,2.7,2.6,3.9c0.2-0.1,0.5-0.1,0.7-0.2v-5.3
			C74.3,407.9,77.4,407.7,79.9,404.8L79.9,404.8z"/>
		<path class="st22" d="M68,414.4c0.3,0.1,0.7,0.1,1.1,0.2c-0.1,0.2-0.1,0.4-0.2,0.6c-0.2,0.2-0.5,0.4-0.7,0.6h0
			c-1.5-0.1-2.3,0.5-2.1,2.1c0,0.2-0.1,0.4,0,0.6c-0.2,0.5-0.4,1-0.6,1.5c0,0.4-0.1,0.8-0.1,1.2c-0.2,0.3-0.4,0.6-0.6,0.9l0,0
			c-0.2,0.5-0.5,0.9-0.7,1.4v0c-0.4,0.3-0.8,0.5-1.3,0.8c-0.2-0.2-0.4-0.5-0.6-0.7c1-2.3,2-4.7,2.8-6.6c-1.8-1.6-3-2.7-4.2-3.8
			c0.3,0,0.7-0.1,1-0.1C63.5,414.5,65.7,414.6,68,414.4L68,414.4z"/>
		<path class="st22" d="M79.7,418.5c0.3,0,0.6,0.1,0.9,0.1c-0.9,0.7-1.8,1.4-2.7,2.1c-0.6,0.4-1.1,0.9-1.7,1.3c-0.2,0-0.4,0-0.6,0
			c-0.4-1.4-0.9-2.8-1.3-4.2c-0.2-0.2-0.4-0.5-0.6-0.7c-0.1-0.5-0.1-0.9-0.1-1.3c1.3,1.2,2.6,2.5,4,3.9
			C78.2,419.4,79,419,79.7,418.5L79.7,418.5z"/>
		<path class="st24" d="M74.4,417.9c0.4,1.4,0.9,2.8,1.3,4.2c-0.2,0.2-0.4,0.4-0.7,0.7l-0.1-0.1C74.7,421,74.5,419.4,74.4,417.9
			L74.4,417.9z"/>
		<path class="st24" d="M72.1,424.2c-0.4,0-0.8,0-1.2,0c1.4-0.5,2.8-1.1,4.1-1.6l0.1,0.1c-0.5,0.4-0.9,0.8-1.4,1.2
			C73.1,424.1,72.6,424.2,72.1,424.2L72.1,424.2z"/>
		<path class="st24" d="M70.1,414.3c0.3-0.1,0.6-0.1,0.9-0.2c0.3,0.1,0.6,0.2,0.9,0.4c0.3,0.2,0.7,0.5,1,0.7h0c0,0.2,0,0.5,0,0.7
			l-0.1,0.1C72,415.4,71,414.9,70.1,414.3L70.1,414.3z"/>
		<path class="st24" d="M66,417.9c-0.2-1.6,0.6-2.2,2.1-2.1C67.4,416.5,66.7,417.2,66,417.9z"/>
		<path class="st24" d="M73.7,415.8c0.1,0.5,0.1,0.9,0.1,1.3c-0.3-0.4-0.6-0.8-0.9-1.2l0.1-0.1C73.2,415.8,73.4,415.8,73.7,415.8
			L73.7,415.8L73.7,415.8z"/>
		<path class="st24" d="M65.4,420c0.2-0.5,0.4-1,0.6-1.5C65.8,419,65.6,419.5,65.4,420z"/>
		<path class="st24" d="M64,423.4c0.2-0.5,0.5-0.9,0.7-1.4C64.4,422.5,64.2,423,64,423.4z"/>
		<path class="st24" d="M68.1,415.8c0.2-0.2,0.5-0.4,0.7-0.6C68.6,415.4,68.4,415.6,68.1,415.8z"/>
		<path class="st24" d="M64.7,422c0.2-0.3,0.4-0.6,0.6-0.9C65.1,421.5,64.9,421.8,64.7,422z"/>
		<path class="st24" d="M70.5,424.2c-0.3,0.2-0.7,0.4-1,0.7C69.9,424.7,70.2,424.4,70.5,424.2z"/>
		<path class="st26" d="M97.2,424.8c0.6-3.4,4.1-6.2,8.1-5.7c-1.8,2.1-3.2,4.1-5,5.7C99.7,425.3,98.2,424.8,97.2,424.8L97.2,424.8z"
			/>
		<path class="st26" d="M106.7,418.6c1.5,0,3.1,0,3.5,2C109.1,419.9,107.9,419.3,106.7,418.6z"/>
		<path class="st23" d="M94,422.6c0.6-0.3,1.1-0.6,1.6-0.9c0.3,1,0.5,2.1,0.8,3.1l-0.1,0.1c-0.5-0.2-0.9-0.5-1.4-0.7l0,0
			C94.7,423.6,94.4,423.1,94,422.6z"/>
		<path class="st26" d="M81.9,428.2c-0.2,0-0.5,0.1-0.7,0.1l0.1-0.1c-0.5-0.2-1.1-0.5-1.6-0.7l-0.2,0l-0.2,0c0.1-1,0.2-2.1,0.3-3
			c2.9,0.1,5.2,0.4,7.6,0.3c2.6-0.1,5.2-0.5,7.8-0.7l0,0c0.1,1.6,0.2,3.1-1.4,4.1v0C89.7,428.2,85.8,428.2,81.9,428.2L81.9,428.2z"
			/>
		<path class="st17" d="M95.1,424.1c-2.6,0.2-5.2,0.6-7.8,0.7c-2.4,0.1-4.7-0.2-7.6-0.3c-0.1,0.9-0.2,2-0.3,3
			c-0.5-0.4-1-0.8-1.6-1.3l0.1-0.1c0.7-0.9,1.3-1.9,2-2.8c2.8,0.2,5.5,0.5,8.3,0.7c0.7-0.2,1.4-0.4,2.1-0.6c1.3-0.3,2.6-0.6,3.8-0.9
			C94.4,423.1,94.7,423.6,95.1,424.1L95.1,424.1z"/>
		<path class="st20" d="M77.7,426.3c-1-0.2-1.9-0.4-2.9-0.6l0.2-0.3c1.8,0.5,1.9-1.1,2.7-2c0,0.9,0.1,1.8,0.1,2.7L77.7,426.3
			L77.7,426.3z"/>
		<path class="st20" d="M74.8,425.8c-0.9-0.3-1.7-0.6-2.6-0.9l1.5,0c0.4,0.2,0.9,0.5,1.3,0.7L74.8,425.8L74.8,425.8z"/>
		<path class="st17" d="M79.6,427.6c0.5,0.2,1.1,0.5,1.6,0.7C80.7,428.1,80.2,427.8,79.6,427.6z"/>
		<path class="st23" d="M73.7,424.8l-1.5,0c-0.1-0.2-0.1-0.4-0.2-0.6c0.5-0.1,1.1-0.2,1.6-0.3C73.7,424.3,73.7,424.5,73.7,424.8
			L73.7,424.8z"/>
		<path class="st19" d="M32.2,419.3c1.2-0.2,2.3-0.4,3.5-0.6c0.2,0,0.5,0,0.7-0.1l0,0c0.2,0.2,0.5,0.5,0.7,0.7l0,0
			c0.2,0.5,0.5,0.9,0.7,1.4l0,0c0.6,1,1.2,1.9,1.8,2.9c0,0.6,0,1.2,0,1.9c-4.5,4.7-9.9,6-16.1,4.2c-0.3-0.7-0.6-1.3-1-2
			c0.7-1.8,1.5-3.6,2.2-5.4c1-0.2,1.9-0.4,2.9-0.5C29.4,421.4,31.4,421.6,32.2,419.3L32.2,419.3L32.2,419.3z"/>
		<path class="st19" d="M21.2,414.4c0.9,1.9,1.9,3.7,2.8,5.6c-1,2.5-1.9,5-2.9,7.6c-2.3,2.1-4.6,1.2-6.9,0c-2.6-1.1-3.7-2.6-2.9-5.7
			c0.6-2.3-0.2-4.9-0.5-7.4c0.2-0.2,0.4-0.4,0.7-0.6C14.9,412.1,18,413.8,21.2,414.4z"/>
		<path class="st19" d="M60.5,413.1c1.2,1.1,2.5,2.2,4.3,3.8c-0.8,1.9-1.8,4.2-2.8,6.6c-0.5,0.5-1,0.9-1.5,1.3
			c-2.1,0.2-4.1,0.5-6.2,0.7c-0.5,0-0.9,0-1.4-0.1c0-2.6-1.8-3.8-3.8-4.9c-0.9-2.4-0.7-4.6,0.6-6.8c0.4-0.4,0.8-0.9,1.3-1.3
			c0.2-0.2,0.5-0.5,0.7-0.7l1.8-1.1l-0.5-0.7c-0.5,0.5-1.1,0.9-1.6,1.4l-0.7,0.7c-1,0.4-2.1,1.1-2.6-0.6c-0.2-0.9-0.4-1.7-0.6-2.6
			c0-1,0-1.9,0.1-2.8c0.5-0.8,0.9-1.6,1.4-2.4c0.6-0.7,1.1-1.3,1.7-2c0.4-0.1,0.8-0.3,1.3-0.4c2.4-1.3,4.8-2.6,7.2-3.9
			c1.1,0.2,2.2,0.5,3.4,0.8c0.3,1.8,0.7,3.5,1,5.2c-0.1,0.2-0.2,0.4-0.3,0.6l-0.6,1.5l0,0c-2.4,1.9-4.6,4.4-8.3,4
			c0.1,0.3,0.2,0.5,0.3,0.8h4.6C59.7,411.3,60.1,412.2,60.5,413.1L60.5,413.1z"/>
		<path class="st19" d="M35.7,417.8c0-1.6-0.1-3.2-0.1-4.9c3.4-0.8,6.8-1.6,10.4-2.4c0.5,1.3,1.2,3,1.9,4.8
			c-0.2,0.4-0.4,0.8-0.5,1.1c-0.1,0.2-0.4,0.4-0.4,0.5c0.3,2.9-1.4,4.5-3.7,5.6c-0.5,0.1-0.9,0.2-1.4,0.3c-1.4-0.8-2.8-1.5-4.1-2.3
			l0,0c-0.2-0.5-0.5-0.9-0.7-1.4l0,0c-0.2-0.2-0.5-0.5-0.7-0.7l0,0C36.2,418.4,36,418.1,35.7,417.8L35.7,417.8z"/>
		<path class="st23" d="M47.4,416.5c0.2-0.4,0.4-0.8,0.5-1.1c0.6-0.5,1.2-1,1.8-1.5c-1.3,2.2-1.5,4.4-0.6,6.8
			c-0.6-0.5-1.4-0.8-1.7-1.4C47.2,418.4,47.4,417.4,47.4,416.5L47.4,416.5z"/>
		<path class="st19" d="M31.1,397.2c-0.1-0.2-0.2-0.5-0.2-0.7c-0.2-0.2-0.4-0.4-0.5-0.6l-0.1-0.1l-0.6-0.5l0-0.1
			c-1.1-1.9-2.4-3.8-3.3-5.7c-0.4-0.8-0.1-2-0.1-3c1.4-0.3,2.7-0.6,4.1-0.9c1.4,2.8,2.7,5.6,4,8.4c0.2,0.2,0.5,0.5,0.7,0.7
			c0.2,0.2,0.5,0.5,0.7,0.7c0,0.2,0.1,0.4,0.1,0.6c0,0.5,0,1.1,0,1.6c-1.3-0.1-2.5-0.1-3.8-0.2C31.6,397.2,31.3,397.2,31.1,397.2
			L31.1,397.2z"/>
		<path class="st23" d="M30.1,385.5c-1.4,0.3-2.7,0.6-4.1,0.9c0-0.5,0-1.1,0-1.6c0.7-0.2,1.4-0.5,2.1-0.7c0-0.5,0-1,0.1-1.4
			c0.2-0.7,0.3-1.4,0.5-2.1c0-1.6,0-3.2,0-4.8c0-0.5,0-0.9,0.1-1.4c0.2,0,0.4,0,0.6-0.1c1.1,2,0,4.8,2.2,6.4
			c0.1,0.3,0.2,0.6,0.3,0.8c-0.3,0.8-0.6,1.6-0.9,2.4C30.7,384.5,30.4,385,30.1,385.5L30.1,385.5z"/>
		<path class="st26" d="M28.2,382.7c0,0.5,0,1-0.1,1.4c-1.9-0.4-2-1.9-2.1-3.4c-0.1-1.5,0.1-2.9-0.1-4.4c-0.1-0.8-0.7-1.4-1.1-2.1
			c-0.1-0.2-0.1-0.4-0.1-0.6c0-0.2,0-0.4-0.1-0.5l0,0c0.8-0.9,1.5-1.9,2.4-2.9c0.3,1.8,0.7,3.7,1,5.6c0,0.5,0,0.9,0,1.4
			c0,0.2,0,0.5,0,0.7c0,0.9,0,1.9,0,2.8C28.2,381.3,28.2,382,28.2,382.7L28.2,382.7z"/>
		<path class="st22" d="M21.1,427.5c1-2.5,1.9-5,2.9-7.6c0.2,0.8,0.5,1.5,0.7,2.3c-0.7,1.8-1.5,3.6-2.2,5.4
			C22,427.6,21.6,427.6,21.1,427.5L21.1,427.5z"/>
		<path class="st19" d="M30.8,408.3c-0.4,0-0.8-0.1-1.2-0.1c-2.1-1.6-1.4-3.9-1.6-6.1l0.8-2.1c0.5,0,0.9-0.1,1.4-0.1
			c0.3,0,0.6,0,0.9,0c0.8,0,1.6,0,2.4,0c1.2-0.2,2.4-0.4,3.6-0.6c0.5,0.2,0.9,0.4,1.3,0.5c1.4,0.7,2.8,1.4,4.2,2.1
			c0.2,0,0.3-0.1,0.5-0.1c0.1,0.2,0.2,0.4,0.2,0.6c0,0.3,0.1,0.5,0.1,0.8l0,0c0.7,1,1.4,2.1,2,3.1l0,0.1c0,0.5-0.1,1.1-0.1,1.6
			c-0.1,0.2-0.2,0.4-0.3,0.6c-3.4,1.5-6.7,3.3-10.6,2.7c0-0.2-0.1-0.3-0.2-0.5C33.1,410.2,32,409.2,30.8,408.3L30.8,408.3z"/>
		<path class="st17" d="M93.7,428.2c1.6-1,1.5-2.6,1.4-4.1c0.5,0.2,0.9,0.5,1.4,0.7C96.4,426.7,96.2,428.4,93.7,428.2L93.7,428.2z"
			/>
		<path class="st27" d="M30.3,395.8c0.2,0.2,0.4,0.4,0.5,0.6C30.6,396.2,30.5,396,30.3,395.8z"/>
		<path class="st27" d="M29.5,395.2l0.6,0.5L29.5,395.2z"/>
		<path class="st22" d="M37.7,420.7l4.1,2.2l-2.4,0.6C38.9,422.6,38.3,421.6,37.7,420.7L37.7,420.7z"/>
		<path class="st20" d="M149.6,435.8l0.7,0.7L149.6,435.8z"/>
		<path class="st24" d="M48.1,372.2c0.9-0.1,1.8-0.1,2.7-0.2c0.2,0.7,0.3,1.5,0.7,2.1c0.2,0.3,0.9,0.2,1.4,0.3
			c0.5,0.4,1,0.9,1.5,1.3c-1.6-0.1-2.3,0.6-2.2,2.2c-1.3-2.5-3.7-3.1-6.9-1.5c-0.2,0-0.5,0-0.7,0C44.1,373.6,46.5,373.3,48.1,372.2
			L48.1,372.2z"/>
		<path class="st21" d="M54.4,375.7c-0.5-0.4-1-0.9-1.5-1.3c0-0.5,0-0.9,0-1.4c4.2,2.3,5.4,5,4.4,9.7c-0.3,0-0.6,0-0.9,0
			c0-0.9-0.1-1.9-0.2-2.8C55.7,378.5,55,377.1,54.4,375.7L54.4,375.7z"/>
		<path class="st23" d="M35.5,374.3c0.3-0.6,0.6-1.2,0.9-1.8c1.4-0.2,2.8-0.4,4.3-0.5c1.2-0.1,2.3,0,3.5,0c-0.1,0.1-0.2,0.2-0.3,0.3
			c-2.5,0.8-5,1.5-7.6,2.3C36,374.6,35.7,374.5,35.5,374.3L35.5,374.3z"/>
		<path class="st23" d="M48.1,372.2c-1.6,1.1-4,1.5-3.6,4.3c-0.4,0-0.8-0.1-1.3-0.1c0-0.4-0.1-0.9-0.1-1.3c0.2-0.9,0.4-1.7,0.6-2.6
			c0.1-0.1,0.2-0.2,0.3-0.3C45.5,372.1,46.8,372.2,48.1,372.2L48.1,372.2z"/>
		<path class="st23" d="M52.9,373c0,0.5,0,0.9,0,1.4c-0.5-0.1-1.2,0-1.4-0.3c-0.4-0.6-0.5-1.4-0.7-2.1
			C51.6,372.3,52.3,372.7,52.9,373L52.9,373z"/>
		<path class="st23" d="M56.5,382.7c0.3,0,0.6,0,0.9,0c-0.1,0.9-0.2,1.7-0.3,2.6l-0.7,0.1l-0.2-0.2
			C56.2,384.4,56.3,383.6,56.5,382.7L56.5,382.7z"/>
		<path class="st24" d="M69.5,394c-0.5,0.1-0.9,0.2-1.4,0.4C68.5,394.2,69,394.1,69.5,394z"/>
		<path class="st20" d="M127.7,395.8c-0.3,0-0.6,0-0.9,0c0-0.2,0-0.5,0-0.7c0.2,0,0.5,0,0.8,0C127.6,395.3,127.6,395.6,127.7,395.8
			L127.7,395.8z"/>
		<path class="st24" d="M43.9,372.4c-0.2,0.9-0.4,1.7-0.6,2.6c-1.6,0.6-3.1,1.2-4.7,1.6c-0.7,0.2-1.5-0.1-2.3-0.2
			c0-0.6,0.1-1.1,0.1-1.7l-0.1,0C38.8,374,41.3,373.2,43.9,372.4L43.9,372.4z"/>
		<path class="st22" d="M36.3,376.4c0.8,0.1,1.6,0.4,2.3,0.2c1.6-0.4,3.1-1.1,4.7-1.6c0,0.4,0.1,0.9,0.1,1.3
			c-1.7,0.5-3.5,1.1-5.2,1.6c-0.7,0-1.4,0-2.1,0c-0.5-0.1-1-0.3-1.1-0.3c-1.1,1.5-2.1,2.8-3.1,4c-0.1-0.3-0.2-0.6-0.3-0.8
			c0.5-1,0.9-2,1.4-2.9c0.4-0.7,0.9-1.4,1.3-2C35,376,35.6,376.2,36.3,376.4L36.3,376.4z"/>
		<path class="st20" d="M29.4,374.3c-0.2,0-0.4,0.1-0.6,0.1c0-0.9,0.1-1.8,0.1-2.8C29,372.5,29.2,373.4,29.4,374.3L29.4,374.3z"/>
		<path class="st23" d="M36.3,376.4c-0.7-0.2-1.3-0.4-2-0.7c0.7-0.4,1.4-0.7,2.1-1.1C36.3,375.3,36.3,375.9,36.3,376.4L36.3,376.4z"
			/>
		<path class="st20" d="M28.1,380.6c0-0.9,0-1.9,0-2.8c0-0.2,0-0.5,0-0.7c0-0.5,0-0.9,0-1.4c0.2,0,0.4,0,0.6,0c0,1.6,0,3.2,0,4.8
			C28.5,380.6,28.3,380.6,28.1,380.6L28.1,380.6z"/>
		<path class="st23" d="M24.7,373.1c-0.2-0.3-0.4-0.5-0.6-0.8c0.1-0.1,0.3-0.1,0.4-0.2C24.5,372.4,24.6,372.8,24.7,373.1L24.7,373.1
			L24.7,373.1z"/>
		<path class="st18" d="M98.5,413.8c-2.3,0.2-4.6,0.5-6.9,0.7C93.8,413.1,96.1,412.4,98.5,413.8z"/>
		<path class="st18" d="M100.5,414.5c-0.4-0.2-0.9-0.4-1.4-0.6C99.6,414.1,100.1,414.3,100.5,414.5z"/>
		<path class="st23" d="M77.8,426.2c0-0.9-0.1-1.8-0.1-2.7c-0.5-0.5-0.9-1-1.4-1.5c0.6-0.4,1.1-0.9,1.7-1.3c0.6,0.6,1.3,1.3,1.9,1.9
			c0,0.3-0.1,0.5-0.1,0.8C79.2,424.3,78.5,425.2,77.8,426.2L77.8,426.2z"/>
		<path class="st18" d="M79.8,423.4c0-0.3,0.1-0.5,0.1-0.8c2.7,0.3,5.5,0.6,8.2,0.9c0,0.2,0,0.4,0,0.6
			C85.4,423.9,82.6,423.6,79.8,423.4L79.8,423.4z"/>
		<path class="st20" d="M88.1,424.1c0-0.2,0-0.4,0-0.6c0.7,0,1.4,0,2.1,0C89.5,423.7,88.8,423.9,88.1,424.1L88.1,424.1z"/>
		<path class="st19" d="M79.9,404.8c-2.5,2.9-5.6,3-8.9,2h0c0.1-1.5-0.6-2.2-2.1-2.1h0c-0.3-2.5-2.7-0.9-3.9-1.9
			c-1.5-2.7-1.4-5.3,0.9-7.6c3.1,0.4,6.2,0.7,9.3,1.4C77.1,397,79.8,402.1,79.9,404.8L79.9,404.8z"/>
		<path class="st19" d="M71.9,414.4c-0.3-0.1-0.6-0.2-0.9-0.4c0.6-1.6,1.2-3.1,1.9-5.1c1.8-0.5,3.9-1,6.1-1.6c1.8,0.2,2.2,1.7,2,3
			c-0.3,2.7-0.9,5.4-1.4,8c-0.8,0.4-1.6,0.9-2.1,1.1c-1.4-1.4-2.7-2.6-4-3.9l0,0c-0.2-0.2-0.4-0.5-0.7-0.7h0
			C72.6,414.9,72.3,414.7,71.9,414.4z"/>
		<path class="st23" d="M65.8,395.2c-2.3,2.4-2.4,5-0.9,7.6c1.2,1.1,3.5-0.6,3.9,2c-1.6-0.1-3.1-0.3-4.7-0.5
			c-0.1-0.1-0.2-0.2-0.3-0.3c-0.2-0.2-0.3-0.4-0.5-0.7c-0.3-1.7-0.7-3.5-1-5.2c-1.3-0.3-2.3-0.5-3.4-0.8c0.1-0.4,0.2-0.8,0.3-1.2
			c0.8,0.1,1.6,0.2,2.4,0.4c1.3,0.3,1.7-0.3,1.7-1.4l1.8-0.1C65.4,395.2,65.6,395.2,65.8,395.2L65.8,395.2z"/>
		<path class="st28" d="M32.3,419.3c-2.2,0.2-4.3,2.7-7-0.2c0.5-1,0.9-2.5,1.8-3.4c0.6-0.6,2.1-0.8,3.1-0.5
			C32.1,415.7,32.4,417.4,32.3,419.3L32.3,419.3L32.3,419.3z"/>
		<path class="st22" d="M34.4,411.6c3.9,0.6,7.2-1.1,10.6-2.7c0.8,0,1.6,0,2.4,0c0.2,0.9,0.4,1.7,0.6,2.6c0.5,1.8,1.6,1,2.6,0.6
			c0.1,0.1,0.3,0.2,0.4,0.4c-0.4,0.4-0.8,0.9-1.3,1.3c-0.6,0.5-1.2,1-1.8,1.5c-0.7-1.8-1.4-3.6-1.9-4.8c-3.6,0.8-7,1.6-10.4,2.4
			c-0.5-0.2-0.9-0.3-1.4-0.5l0-0.1C34.3,412.1,34.3,411.8,34.4,411.6L34.4,411.6z"/>
		<path class="st28" d="M34.2,412.5c-0.1,1.2-0.1,2.4-0.2,4.1c-1.8-1.5-3.3-2.5-4.4-3.7c-1.6-1.8-1.2-2.8,1.2-3.8
			c0.9,0.9,1.8,1.8,2.7,2.7C33.8,412,34,412.2,34.2,412.5L34.2,412.5L34.2,412.5z"/>
		<path class="st28" d="M27.4,411c0.6,2.1-0.2,3.2-2.2,3.2v0c0-0.5,0-1.1,0.1-1.6c0-0.8,0-1.5,0-2.3l0,0
			C26,410.5,26.7,410.8,27.4,411L27.4,411z"/>
		<path class="st22" d="M33.6,411.8c-0.9-0.9-1.8-1.8-2.7-2.7c0-0.3,0-0.5,0-0.8c1.1,0.9,2.2,1.9,3.3,2.8
			C34,411.3,33.8,411.5,33.6,411.8L33.6,411.8z"/>
		<path class="st19" d="M27.4,411c-0.7-0.2-1.4-0.5-2.1-0.7C26.4,409.3,27.2,409.1,27.4,411z"/>
		<path class="st19" d="M25.3,410.3c0,0.8,0,1.5,0,2.3C25.3,411.8,25.3,411,25.3,410.3z"/>
		<path class="st22" d="M35.7,417.8c0.2,0.3,0.4,0.5,0.7,0.8c-0.2,0-0.5,0-0.7,0.1C35.7,418.4,35.7,418.1,35.7,417.8z"/>
		<path class="st28" d="M64.2,404.3c1.6,0.1,3.1,0.3,4.7,0.5h0c0.6,0.8,0.2,2.5,2.1,2.1h0v5.3c-0.2,0.1-0.5,0.1-0.7,0.2
			c-1-1.2-3.5-1.3-2.6-3.9c0.4-0.3,0.8-0.6,1.2-0.9c-0.1-0.1-0.2-0.3-0.3-0.4c-0.4,0.3-0.8,0.6-1.2,1c-1.7,1.5-3.3,3.1-6.1,1.8
			c0.5-1.4,1-2.9,1.5-4.4l0,0C63.1,405.1,63.7,404.7,64.2,404.3L64.2,404.3z"/>
		<path class="st28" d="M68,414.4c-2.3,0.2-4.5,0.1-6.4-1.4c0.7-2.9,3-1.9,4.8-1.8C68.4,411.3,68.4,412.8,68,414.4L68,414.4z"/>
		<path class="st18" d="M76.3,422c0.5,0.5,0.9,1,1.4,1.5c-0.8,0.9-0.9,2.5-2.7,2c-0.4-0.2-0.9-0.5-1.3-0.7c0-0.3-0.1-0.6-0.1-0.8
			c0.5-0.4,0.9-0.8,1.4-1.2c0.2-0.2,0.4-0.4,0.7-0.7C75.9,422.1,76.1,422,76.3,422L76.3,422z"/>
		<path class="st22" d="M73,415.1c0.2,0.2,0.4,0.5,0.7,0.7c-0.2,0-0.5,0-0.7,0C73,415.6,73,415.4,73,415.1z"/>
		<path class="st22" d="M71.9,414.4c0.3,0.2,0.7,0.5,1,0.7C72.6,414.9,72.3,414.7,71.9,414.4z"/>
		<path class="st22" d="M37.1,419.3c0.2,0.5,0.5,0.9,0.7,1.4C37.5,420.2,37.3,419.7,37.1,419.3z"/>
		<path class="st22" d="M36.4,418.6c0.2,0.2,0.5,0.5,0.7,0.7C36.8,419.1,36.6,418.8,36.4,418.6z"/>
		<path class="st23" d="M45.9,406.8c0.5-0.2,1-0.4,1.6-0.7c0,1,0,1.9-0.1,2.8c-0.8,0-1.6,0-2.4,0c0.1-0.2,0.2-0.4,0.3-0.6
			C45.5,407.7,45.7,407.2,45.9,406.8L45.9,406.8z"/>
		<path class="st23" d="M48.9,403.7c-0.5-1-1-2-1.6-3c0.5,0,1,0,1.5-0.1c0.4,0.2,0.9,0.4,1.3,0.6c0.1,0.2,0.3,0.3,0.4,0.5
			C50,402.4,49.4,403.1,48.9,403.7L48.9,403.7z"/>
		<path class="st22" d="M51.3,411.5c0.5-0.5,1.1-0.9,1.6-1.4l0.5,0.7l-1.8,1.1C51.6,411.7,51.5,411.6,51.3,411.5L51.3,411.5z"/>
		<path class="st23" d="M64.2,404.3c-0.5,0.4-1.1,0.8-1.6,1.2c0.2-0.5,0.4-1,0.6-1.5c0.3,0,0.5,0,0.8,0
			C64,404.1,64.1,404.2,64.2,404.3L64.2,404.3z"/>
		<path class="st23" d="M51,400.5c0.3,0.3,0.5,0.5,0.8,0.8c-0.4,0.1-0.8,0.3-1.3,0.4c-0.2-0.1-0.3-0.3-0.4-0.5
			C50.4,401,50.7,400.8,51,400.5L51,400.5z"/>
		<path class="st22" d="M51.7,411.9c-0.2,0.2-0.5,0.5-0.7,0.7c-0.1-0.1-0.3-0.2-0.4-0.4l0.7-0.7C51.5,411.6,51.6,411.7,51.7,411.9z"
			/>
		<path class="st22" d="M63.9,404c-0.3,0-0.5,0-0.8,0c0.1-0.2,0.2-0.4,0.3-0.6C63.6,403.6,63.8,403.8,63.9,404L63.9,404z"/>
		<path class="st22" d="M30.1,385.5c0.3-0.5,0.5-1,0.8-1.5c1.2,3.2,2.4,6.4,3.6,9.6c-0.1,0.1-0.2,0.2-0.3,0.3
			C32.8,391,31.5,388.2,30.1,385.5L30.1,385.5z"/>
		<path class="st22" d="M33.5,400c1.3-2-1.2-1.8-1.6-2.8c1.3,0.1,2.5,0.1,3.8,0.2c0.9,0.2,1.9,0.4,2.8,0.5c0,0.2,0,0.4,0,0.5
			l-1.4,0.9C35.9,399.6,34.7,399.8,33.5,400L33.5,400z"/>
		<path class="st22" d="M35.7,395.8c0-0.2-0.1-0.4-0.1-0.6c0.1-0.1,0.2-0.2,0.3-0.3c1.1,0.5,2.2,1,3.3,1.5c-0.2,0.3-0.4,0.5-0.6,0.8
			C37.6,396.7,36.6,396.3,35.7,395.8L35.7,395.8z"/>
		<path class="st24" d="M35.7,395.8c1,0.5,1.9,0.9,2.9,1.4c0,0.2-0.1,0.5-0.1,0.7c-0.9-0.2-1.9-0.4-2.8-0.5
			C35.7,396.9,35.7,396.3,35.7,395.8z"/>
		<path class="st22" d="M35.6,395.2c-0.2-0.2-0.5-0.5-0.7-0.7c0.1-0.1,0.2-0.2,0.3-0.3c0.2,0.2,0.5,0.5,0.7,0.7
			C35.8,395,35.7,395.1,35.6,395.2L35.6,395.2z"/>
		<path class="st22" d="M34.9,394.5c-0.2-0.2-0.5-0.5-0.7-0.7c0.1-0.1,0.2-0.2,0.3-0.3c0.2,0.2,0.4,0.5,0.7,0.7
			C35.1,394.3,35,394.5,34.9,394.5L34.9,394.5z"/>
		<path class="st19" d="M35.2,394.2l-0.7-0.7c-1.2-3.2-2.4-6.4-3.6-9.6l0.9-2.4c1-1.3,1.9-2.5,3.1-4c0.1,0,0.6,0.2,1.1,0.3
			c0.3,0.9,0.7,1.8,1,2.7c0.9,5.5,3.3,10.2,7.6,13.9c-0.9,3.1-3.5,1.7-5.4,1.9c-1.1-0.5-2.2-1-3.3-1.5
			C35.7,394.7,35.4,394.5,35.2,394.2L35.2,394.2z"/>
		<path class="st18" d="M28.1,380.6c0.2,0,0.4,0,0.6,0c-0.2,0.7-0.3,1.4-0.5,2.1C28.2,382,28.2,381.3,28.1,380.6L28.1,380.6z"/>
		<path class="st18" d="M28.1,377.2c0,0.2,0,0.5,0,0.7C28.1,377.6,28.1,377.4,28.1,377.2z"/>
		<path class="st23" d="M43.3,403.4c0.7,0.6,1.4,1.3,2.1,1.9c0,0.4,0,0.8-0.1,1.2C44.7,405.4,44,404.4,43.3,403.4L43.3,403.4z"/>
		<path class="st22" d="M45.9,406.8c-0.2,0.5-0.4,1-0.7,1.5c0-0.5,0.1-1.1,0.1-1.6C45.5,406.7,45.7,406.7,45.9,406.8z"/>
		<path class="st23" d="M33.6,411.8c0.2-0.2,0.4-0.5,0.6-0.7c0.1,0.1,0.2,0.3,0.2,0.5c0,0.3-0.1,0.6-0.1,0.9
			C34,412.2,33.8,412,33.6,411.8z"/>
		<path class="st23" d="M43.2,402.6c0,0.3,0.1,0.5,0.1,0.8C43.3,403.1,43.2,402.9,43.2,402.6z"/>
		<path class="st23" d="M43,401.6c0.1,0.1,0.1,0.2,0,0.4c-0.2,0-0.3,0-0.5,0.1C42.7,401.9,42.9,401.7,43,401.6L43,401.6z"/>
		<path class="st23" d="M56.4,385.5c-0.2,0.6-0.4,1.2-0.5,1.8c0,0.1-0.1,0.3-0.2,0.4c-0.2-0.5-0.4-1-0.6-1.4l0,0
			c0.4-0.3,0.7-0.6,1.1-0.9L56.4,385.5L56.4,385.5z"/>
		<path class="st23" d="M54.8,388.8c-0.1,0.2-0.2,0.4-0.3,0.5c-0.3,0.5-0.7,1.1-1,1.6c-0.2,0-0.4,0.1-0.6,0.1l0-0.1
			c0-0.3-0.1-0.6-0.1-0.9C53.5,389.7,54.2,389.2,54.8,388.8L54.8,388.8z"/>
		<path class="st22" d="M52.9,391.1c0.2-0.1,0.4-0.1,0.6-0.1c0.2,0.1,0.4,0.3,0.7,0.4c-0.4,0.1-0.8,0.1-1.2,0.2
			C53,391.4,52.9,391.2,52.9,391.1L52.9,391.1z"/>
		<path class="st19" d="M38.1,377.9c1.7-0.5,3.5-1.1,5.2-1.6c0.4,0,0.8,0.1,1.3,0.1c0.2,0,0.5,0,0.7,0c1,0,2,0,3.1,0.1
			c1.5,0.2,2.6,0.8,2.5,2.6c0,1.9,0,3.8,0,5.6c-0.5,2.7-1,5.5-1.4,8.2h0c-1.6,0.1-3.1,0.3-4.7,0.4c-3.2-4-5.5-8.6-7-13.5
			C37.9,379.2,38,378.6,38.1,377.9L38.1,377.9z"/>
		<path class="st19" d="M54.4,375.7c0.6,1.4,1.3,2.8,1.9,4.2c-0.4,2.1-0.8,4.1-1.3,6.2l0,0c-0.4,0.4-0.7,0.9-1.1,1.3
			c-1,1-1.5,0.8-1.7-0.6c0-0.7,0-1.4,0-2.1c0.1-0.2,0.2-0.5,0.2-0.7c2.1-1.9,1.3-3.7-0.2-5.5c-0.1-0.2-0.1-0.4-0.1-0.6
			C52.1,376.3,52.8,375.6,54.4,375.7L54.4,375.7z"/>
		<path class="st23" d="M52.5,384c-0.1,0.2-0.2,0.5-0.2,0.7c-0.2,0-0.5,0-0.7,0l-0.1-0.1c-0.2-1.8-0.4-3.7-0.6-5.5
			c0.1-1.8-1-2.4-2.5-2.6c-1-0.1-2-0.1-3.1-0.1c3.2-1.6,5.6-1.1,6.9,1.5c0,0.2,0,0.4,0.1,0.6C52.3,380.4,52.4,382.2,52.5,384
			L52.5,384z"/>
		<path class="st24" d="M55,386.2c0.4-2.1,0.8-4.1,1.3-6.2c0,0.9,0.1,1.9,0.2,2.8c-0.1,0.8-0.2,1.7-0.3,2.5
			C55.8,385.6,55.4,385.9,55,386.2L55,386.2z"/>
		<path class="st23" d="M38.1,377.9c-0.1,0.7-0.2,1.3-0.3,2c-0.2,0.2-0.5,0.5-0.7,0.7c-0.3-0.9-0.7-1.8-1-2.7
			C36.7,377.9,37.4,377.9,38.1,377.9z"/>
		<path class="st23" d="M70.9,406.8c-1.8,0.5-1.5-1.3-2.1-2.1C70.3,404.6,71,405.4,70.9,406.8z"/>
		<path class="st23" d="M67.3,408.1c0.4-0.3,0.8-0.6,1.2-1c0.1,0.1,0.2,0.3,0.3,0.4c-0.4,0.3-0.8,0.6-1.2,0.9
			C67.5,408.3,67.4,408.2,67.3,408.1L67.3,408.1z"/>
		<path class="st18" d="M44.8,399.1c-0.3-0.4-0.6-0.8-0.9-1.2c0.7-0.7,1.4-1.4,2.1-2.1c0.3,1.1,0.5,2.3,0.8,3.4
			c-0.1,0.1-0.2,0.2-0.2,0.2C46,399.3,45.4,399.2,44.8,399.1L44.8,399.1z"/>
		<path class="st18" d="M48.8,400.7c-0.5,0-1,0-1.5,0.1c-0.2-0.4-0.5-0.9-0.7-1.3c0.1-0.1,0.2-0.2,0.2-0.2l2.7,0.8
			C49.3,400.2,49,400.4,48.8,400.7z"/>
		<path class="st20" d="M48.8,400.7c0.2-0.2,0.5-0.5,0.7-0.7c0.4-1.9,2.2-4-0.7-5.5c0.2-0.5,0.4-1,0.7-1.4h0c0.7,0,1.5,0,2.2,0
			c0,1.6,0,3.2-0.1,4.8c-0.2,0.9-0.4,1.8-0.6,2.8c-0.3,0.2-0.6,0.5-0.9,0.7C49.7,401,49.2,400.9,48.8,400.7L48.8,400.7z"/>
		<path class="st23" d="M49.5,393c-0.2,0.5-0.4,1-0.7,1.4l0,0c-0.5,0.2-1,0.5-1.5,0.7c-0.4,0.2-0.9,0.4-1.3,0.6
			c-0.7,0.7-1.4,1.4-2.1,2.1c-1.8,0.2-3.7,0.4-5.5,0.6c0-0.2,0-0.4,0-0.5c0-0.2,0.1-0.5,0.1-0.7c0.2-0.3,0.4-0.5,0.6-0.8
			c2-0.2,4.5,1.2,5.4-1.9c0-0.4,0.1-0.7,0.1-1.1C46.3,393.3,47.9,393.1,49.5,393L49.5,393z"/>
		<path class="st22" d="M44.8,393.4c0,0.4-0.1,0.7-0.1,1.1c-4.3-3.7-6.7-8.4-7.6-13.9c0.2-0.2,0.5-0.5,0.7-0.7
			C39.2,384.9,41.5,389.4,44.8,393.4L44.8,393.4z"/>
		<path class="st24" d="M52.2,386.8c0.2,1.4,0.8,1.6,1.7,0.6c0.4-0.4,0.7-0.9,1.1-1.3c0.2,0.5,0.4,1,0.6,1.4
			c-0.3,0.4-0.5,0.8-0.8,1.2l-2.1,1.3c0,0.3,0.1,0.6,0.1,0.9l0,0.1c0,0.1,0.1,0.3,0.1,0.5l-1,0.2c-2-1.5-0.1-3.2-0.2-4.8
			C51.9,386.9,52.1,386.9,52.2,386.8L52.2,386.8z"/>
		<path class="st23" d="M51.7,387c0.1,1.6-1.8,3.3,0.2,4.8c-0.1,0.4-0.2,0.9-0.3,1.3c-0.7,0-1.5,0-2.2,0c0.5-2.7,1-5.5,1.4-8.2
			c0.2-0.1,0.4-0.1,0.6-0.1l0.1,0.1C51.6,385.5,51.7,386.2,51.7,387L51.7,387z"/>
		<path class="st22" d="M52.9,391c0-0.3-0.1-0.6-0.1-0.9C52.8,390.4,52.8,390.7,52.9,391z"/>
		<path class="st24" d="M51.5,384.7c-0.2,0-0.4,0-0.6,0.1c0-1.9,0-3.8,0-5.6C51.1,381,51.3,382.8,51.5,384.7L51.5,384.7z"/>
		<path class="st24" d="M52.5,384c0-1.8-0.1-3.7-0.2-5.5C53.8,380.3,54.6,382.1,52.5,384z"/>
		<path class="st21" d="M51.7,387c-0.1-0.7-0.1-1.5-0.2-2.2c0.2,0,0.5,0,0.7,0c0,0.7,0,1.4,0,2.1C52.1,386.9,51.9,386.9,51.7,387
			L51.7,387z"/>
		<path class="st26" d="M46,395.8c0.4-0.2,0.9-0.4,1.3-0.6c0.5-0.2,1-0.5,1.5-0.7h0c2.9,1.5,1.1,3.6,0.7,5.6l-2.7-0.8
			C46.5,398,46.3,396.9,46,395.8L46,395.8z"/>
		<path class="st20" d="M48.8,394.4c-0.5,0.2-1,0.5-1.5,0.7C47.8,394.9,48.3,394.7,48.8,394.4z"/>
	</g>
</g>
</svg>
