<?xml version="1.0" encoding="UTF-8"?>
<svg id="Layer_2" data-name="Layer 2" xmlns="http://www.w3.org/2000/svg" xmlns:xlink="http://www.w3.org/1999/xlink" viewBox="0 0 395 395">
  <defs>
    <style>
      .cls-1 {
        clip-path: url(#clippath-11);
      }

      .cls-2 {
        clip-path: url(#clippath-2);
      }

      .cls-3 {
        clip-path: url(#clippath-13);
      }

      .cls-4 {
        fill: #3a5e5e;
      }

      .cls-4, .cls-5, .cls-6, .cls-7, .cls-8 {
        stroke-width: 0px;
      }

      .cls-9 {
        clip-path: url(#clippath-6);
      }

      .cls-5, .cls-10 {
        fill: none;
      }

      .cls-11 {
        clip-path: url(#clippath-7);
      }

      .cls-12 {
        fill: #8b7081;
        stroke: #57465e;
      }

      .cls-12, .cls-13, .cls-14, .cls-15, .cls-16, .cls-17, .cls-10 {
        stroke-miterlimit: 10;
      }

      .cls-18 {
        clip-path: url(#clippath-1);
      }

      .cls-19 {
        clip-path: url(#clippath-4);
      }

      .cls-13 {
        fill: #d8dbd1;
      }

      .cls-13, .cls-16 {
        stroke: #b5baa4;
        stroke-width: .5px;
      }

      .cls-14 {
        fill: #83928d;
        stroke: #5b7c68;
      }

      .cls-20 {
        clip-path: url(#clippath-12);
      }

      .cls-15 {
        fill: #a57814;
      }

      .cls-15, .cls-17 {
        stroke: #5e492f;
        stroke-width: .75px;
      }

      .cls-6 {
        fill: #eacd97;
      }

      .cls-21 {
        clip-path: url(#clippath-9);
      }

      .cls-7 {
        fill: url(#New_Pattern_3);
      }

      .cls-22 {
        clip-path: url(#clippath);
      }

      .cls-23 {
        clip-path: url(#clippath-3);
      }

      .cls-16 {
        fill: #ceddd4;
      }

      .cls-24 {
        clip-path: url(#clippath-8);
      }

      .cls-25 {
        clip-path: url(#clippath-5);
      }

      .cls-17 {
        fill: #cea657;
      }

      .cls-26 {
        clip-path: url(#clippath-10);
      }

      .cls-10 {
        stroke: #4f4f4f;
      }

      .cls-8 {
        fill: #a3c3ef;
      }
    </style>
    <clipPath id="clippath">
      <rect class="cls-5" x="0" y="91.98" width="46.13" height="108.79"/>
    </clipPath>
    <clipPath id="clippath-1">
      <rect class="cls-5" x="46.13" y="91.98" width="46.13" height="108.79"/>
    </clipPath>
    <clipPath id="clippath-2">
      <rect class="cls-5" x="46.13" y="43.19" width="46.13" height="108.79"/>
    </clipPath>
    <clipPath id="clippath-3">
      <rect class="cls-5" x="92.26" y="43.19" width="46.13" height="108.79"/>
    </clipPath>
    <clipPath id="clippath-4">
      <rect class="cls-5" x="-46.13" y="43.19" width="46.13" height="108.79"/>
    </clipPath>
    <clipPath id="clippath-5">
      <rect class="cls-5" x="0" y="43.19" width="46.13" height="108.79"/>
    </clipPath>
    <clipPath id="clippath-6">
      <rect class="cls-5" x="0" y="-5.6" width="46.13" height="108.79"/>
    </clipPath>
    <clipPath id="clippath-7">
      <rect class="cls-5" x="46.13" y="-5.6" width="46.13" height="108.79"/>
    </clipPath>
    <clipPath id="clippath-8">
      <rect class="cls-5" x="46.13" y="-54.4" width="46.13" height="108.79"/>
    </clipPath>
    <clipPath id="clippath-9">
      <rect class="cls-5" x="92.26" y="-54.4" width="46.13" height="108.79"/>
    </clipPath>
    <clipPath id="clippath-10">
      <rect class="cls-5" x="-46.13" y="-54.4" width="46.13" height="108.79"/>
    </clipPath>
    <clipPath id="clippath-11">
      <rect class="cls-5" x="0" y="-54.4" width="46.13" height="108.79"/>
    </clipPath>
    <clipPath id="clippath-12">
      <rect class="cls-5" x="0" y="-103.19" width="46.13" height="108.79"/>
    </clipPath>
    <clipPath id="clippath-13">
      <rect class="cls-5" x="46.13" y="-103.19" width="46.13" height="108.79"/>
    </clipPath>
    <pattern id="New_Pattern_3" data-name="New Pattern 3" x="0" y="0" width="92.26" height="97.58" patternTransform="translate(-205.42 -671.35)" patternUnits="userSpaceOnUse" viewBox="0 0 92.26 97.58">
      <g>
        <rect class="cls-5" x="0" y="0" width="92.26" height="97.58"/>
        <g>
          <g id="_Mirror_Repeat_" data-name="&amp;lt;Mirror Repeat&amp;gt;">
            <g class="cls-22">
              <g>
                <path class="cls-8" d="M46.2,91.98c0,49.84-45.33,49.59-45.33,49.59,0,0-3.93,45.85,45.29,49.67"/>
                <path class="cls-14" d="M46.16,150.06h-1.35c.13,1.93-.6,13.42-.6,13.42h1.95"/>
                <path class="cls-10" d="M45.66,191.24s-45.16.21-45.16-49.63"/>
                <path class="cls-4" d="M46.16,200.77c-5.38,0-9.74-4.36-9.74-9.74s4.36-9.74,9.74-9.74"/>
                <path class="cls-6" d="M46.16,197.64c-3.65,0-6.61-2.96-6.61-6.61s2.96-6.61,6.61-6.61"/>
                <path class="cls-16" d="M37.97,160.06s4.47-.83,6.5,3.97l.72,12.14-6.28,2.2-10.17-13.06s-.62-2.76,2.63-2.55l6.6-2.7Z"/>
                <path class="cls-13" d="M38.23,178.77s-8.45-9.35-16.06-9.35,2.39-8.26,5.68-4.97,11.51,9.75,11.51,14.07"/>
                <path class="cls-13" d="M41.63,177.23s-4.12-11.91-11.13-14.89c-7.01-2.98,5.42-6.67,7.17-2.35s6.78,13.47,5.1,17.45"/>
                <path class="cls-13" d="M46.16,161.09c-3.23-.06-1.48,15.16-1.48,15.16l1.48-.26"/>
                <path class="cls-13" d="M46.11,175.95s-8.45,1.63-13.06,6.48l-.41.07c-9.2-2.82-21.07-8.11-23.4-27.54,0,0-.26-.6.36-.84,3.31-1.32,8.1-3.28,11.41-18.15l-3.31,1.19c-1.42,12.77-11.22,14.94-11.22,14.94v.12c.93,25.87,17.64,30.8,27.34,32.77l.34.07c4.59-5.41,12.12-6.78,12.12-6.78"/>
                <g>
                  <path class="cls-15" d="M41.22,147.81s-7.49,3.07-9.85,0,8.68-1.88,8.68-1.88"/>
                  <path class="cls-17" d="M30.45,139.42s-2.9,1.32-2.42,3.42,3.63,2.98,4.82,2.95,7.13,0,7.13,0l.22-1.15-9.75-5.23"/>
                  <path class="cls-15" d="M40.05,144.79s-12.81-1.92-9.11-8.95,6.3,3.33,6.3,3.33l3.3,4.93"/>
                  <path class="cls-17" d="M40.32,144.19s-4.6-6.5-4.47-9.1,3.68-3.23,3.68-3.23c0,0,1.92-.24,2.84,2.56s1.81,7.66,1.81,7.66"/>
                  <path class="cls-15" d="M46.16,129.71s-3.9.15-3.95,3.56.48,6.94,1.67,8.95l2.28-1.62"/>
                </g>
                <path class="cls-12" d="M46.16,150.38s-6.11-2.06-6.11-4.45,3.72-3.1,3.72-3.1h2.39"/>
                <path class="cls-12" d="M46.16,140.84s-2.71.91-2.71,3.36,2.71,2.97,2.71,2.97"/>
              </g>
            </g>
          </g>
          <g id="_Mirror_Repeat_-2" data-name="&amp;lt;Mirror Repeat&amp;gt;">
            <g class="cls-18">
              <g>
                <path class="cls-8" d="M46.06,91.98c0,49.84,45.33,49.59,45.33,49.59,0,0,3.93,45.85-45.29,49.67"/>
                <path class="cls-14" d="M46.1,150.06h1.35c-.13,1.93.6,13.42.6,13.42h-1.95"/>
                <path class="cls-10" d="M46.6,191.24s45.16.21,45.16-49.63"/>
                <path class="cls-4" d="M46.1,200.77c5.38,0,9.74-4.36,9.74-9.74s-4.36-9.74-9.74-9.74"/>
                <path class="cls-6" d="M46.1,197.64c3.65,0,6.61-2.96,6.61-6.61s-2.96-6.61-6.61-6.61"/>
                <path class="cls-16" d="M54.29,160.06s-4.47-.83-6.5,3.97l-.72,12.14,6.28,2.2,10.17-13.06s.62-2.76-2.63-2.55l-6.6-2.7Z"/>
                <path class="cls-13" d="M54.03,178.77s8.45-9.35,16.06-9.35-2.39-8.26-5.68-4.97-11.51,9.75-11.51,14.07"/>
                <path class="cls-13" d="M50.63,177.23s4.12-11.91,11.13-14.89c7.01-2.98-5.42-6.67-7.17-2.35s-6.78,13.47-5.1,17.45"/>
                <path class="cls-13" d="M46.1,161.09c3.23-.06,1.48,15.16,1.48,15.16l-1.48-.26"/>
                <path class="cls-13" d="M46.15,175.95s8.45,1.63,13.06,6.48l.41.07c9.2-2.82,21.07-8.11,23.4-27.54,0,0,.26-.6-.36-.84-3.31-1.32-8.1-3.28-11.41-18.15l3.31,1.19c1.42,12.77,11.22,14.94,11.22,14.94v.12c-.93,25.87-17.64,30.8-27.34,32.77l-.34.07c-4.59-5.41-12.12-6.78-12.12-6.78"/>
                <g>
                  <path class="cls-15" d="M51.04,147.81s7.49,3.07,9.85,0-8.68-1.88-8.68-1.88"/>
                  <path class="cls-17" d="M61.81,139.42s2.9,1.32,2.42,3.42-3.63,2.98-4.82,2.95-7.13,0-7.13,0l-.22-1.15,9.75-5.23"/>
                  <path class="cls-15" d="M52.21,144.79s12.81-1.92,9.11-8.95-6.3,3.33-6.3,3.33l-3.3,4.93"/>
                  <path class="cls-17" d="M51.94,144.19s4.6-6.5,4.47-9.1-3.68-3.23-3.68-3.23c0,0-1.92-.24-2.84,2.56s-1.81,7.66-1.81,7.66"/>
                  <path class="cls-15" d="M46.1,129.71s3.9.15,3.95,3.56-.48,6.94-1.67,8.95l-2.28-1.62"/>
                </g>
                <path class="cls-12" d="M46.1,150.38s6.11-2.06,6.11-4.45-3.72-3.1-3.72-3.1h-2.39"/>
                <path class="cls-12" d="M46.1,140.84s2.71.91,2.71,3.36-2.71,2.97-2.71,2.97"/>
              </g>
            </g>
          </g>
        </g>
        <g>
          <g id="_Mirror_Repeat_-3" data-name="&amp;lt;Mirror Repeat&amp;gt;">
            <g class="cls-2">
              <g>
                <path class="cls-8" d="M92.33,43.19c0,49.84-45.33,49.59-45.33,49.59,0,0-3.93,45.85,45.29,49.67"/>
                <path class="cls-14" d="M92.29,101.27h-1.35c.13,1.93-.6,13.42-.6,13.42h1.95"/>
                <path class="cls-10" d="M91.79,142.45s-45.16.21-45.16-49.63"/>
                <path class="cls-4" d="M92.29,151.98c-5.38,0-9.74-4.36-9.74-9.74s4.36-9.74,9.74-9.74"/>
                <path class="cls-6" d="M92.29,148.85c-3.65,0-6.61-2.96-6.61-6.61s2.96-6.61,6.61-6.61"/>
                <path class="cls-16" d="M84.1,111.27s4.47-.83,6.5,3.97l.72,12.14-6.28,2.2-10.17-13.06s-.62-2.76,2.63-2.55l6.6-2.7Z"/>
                <path class="cls-13" d="M84.36,129.98s-8.45-9.35-16.06-9.35,2.39-8.26,5.68-4.97,11.51,9.75,11.51,14.07"/>
                <path class="cls-13" d="M87.76,128.44s-4.12-11.91-11.13-14.89c-7.01-2.98,5.42-6.67,7.17-2.35s6.78,13.47,5.1,17.45"/>
                <path class="cls-13" d="M92.29,112.3c-3.23-.06-1.48,15.16-1.48,15.16l1.48-.26"/>
                <path class="cls-13" d="M92.24,127.16s-8.45,1.63-13.06,6.48l-.41.07c-9.2-2.82-21.07-8.11-23.4-27.54,0,0-.26-.6.36-.84,3.31-1.32,8.1-3.28,11.41-18.15l-3.31,1.19c-1.42,12.77-11.22,14.94-11.22,14.94v.12c.93,25.87,17.64,30.8,27.34,32.77l.34.07c4.59-5.41,12.12-6.78,12.12-6.78"/>
                <g>
                  <path class="cls-15" d="M87.34,99.02s-7.49,3.07-9.85,0,8.68-1.88,8.68-1.88"/>
                  <path class="cls-17" d="M76.58,90.62s-2.9,1.32-2.42,3.42,3.63,2.98,4.82,2.95,7.13,0,7.13,0l.22-1.15-9.75-5.23"/>
                  <path class="cls-15" d="M86.18,96s-12.81-1.92-9.11-8.95,6.3,3.33,6.3,3.33l3.3,4.93"/>
                  <path class="cls-17" d="M86.45,95.4s-4.6-6.5-4.47-9.1,3.68-3.23,3.68-3.23c0,0,1.92-.24,2.84,2.56s1.81,7.66,1.81,7.66"/>
                  <path class="cls-15" d="M92.29,80.92s-3.9.15-3.95,3.56.48,6.94,1.67,8.95l2.28-1.62"/>
                </g>
                <path class="cls-12" d="M92.29,101.59s-6.11-2.06-6.11-4.45,3.72-3.1,3.72-3.1h2.39"/>
                <path class="cls-12" d="M92.29,92.04s-2.71.91-2.71,3.36,2.71,2.97,2.71,2.97"/>
              </g>
            </g>
          </g>
          <g id="_Mirror_Repeat_-4" data-name="&amp;lt;Mirror Repeat&amp;gt;">
            <g class="cls-23">
              <g>
                <path class="cls-8" d="M92.19,43.19c0,49.84,45.33,49.59,45.33,49.59,0,0,3.93,45.85-45.29,49.67"/>
                <path class="cls-14" d="M92.23,101.27h1.35c-.13,1.93.6,13.42.6,13.42h-1.95"/>
                <path class="cls-10" d="M92.73,142.45s45.16.21,45.16-49.63"/>
                <path class="cls-4" d="M92.23,151.98c5.38,0,9.74-4.36,9.74-9.74s-4.36-9.74-9.74-9.74"/>
                <path class="cls-6" d="M92.23,148.85c3.65,0,6.61-2.96,6.61-6.61s-2.96-6.61-6.61-6.61"/>
                <path class="cls-16" d="M100.42,111.27s-4.47-.83-6.5,3.97l-.72,12.14,6.28,2.2,10.17-13.06s.62-2.76-2.63-2.55l-6.6-2.7Z"/>
                <path class="cls-13" d="M100.16,129.98s8.45-9.35,16.06-9.35-2.39-8.26-5.68-4.97-11.51,9.75-11.51,14.07"/>
                <path class="cls-13" d="M96.76,128.44s4.12-11.91,11.13-14.89c7.01-2.98-5.42-6.67-7.17-2.35s-6.78,13.47-5.1,17.45"/>
                <path class="cls-13" d="M92.23,112.3c3.23-.06,1.48,15.16,1.48,15.16l-1.48-.26"/>
                <path class="cls-13" d="M92.28,127.16s8.45,1.63,13.06,6.48l.41.07c9.2-2.82,21.07-8.11,23.4-27.54,0,0,.26-.6-.36-.84-3.31-1.32-8.1-3.28-11.41-18.15l3.31,1.19c1.42,12.77,11.22,14.94,11.22,14.94v.12c-.93,25.87-17.64,30.8-27.34,32.77l-.34.07c-4.59-5.41-12.12-6.78-12.12-6.78"/>
                <g>
                  <path class="cls-15" d="M97.17,99.02s7.49,3.07,9.85,0-8.68-1.88-8.68-1.88"/>
                  <path class="cls-17" d="M107.94,90.62s2.9,1.32,2.42,3.42-3.63,2.98-4.82,2.95-7.13,0-7.13,0l-.22-1.15,9.75-5.23"/>
                  <path class="cls-15" d="M98.34,96s12.81-1.92,9.11-8.95-6.3,3.33-6.3,3.33l-3.3,4.93"/>
                  <path class="cls-17" d="M98.07,95.4s4.6-6.5,4.47-9.1-3.68-3.23-3.68-3.23c0,0-1.92-.24-2.84,2.56s-1.81,7.66-1.81,7.66"/>
                  <path class="cls-15" d="M92.23,80.92s3.9.15,3.95,3.56-.48,6.94-1.67,8.95l-2.28-1.62"/>
                </g>
                <path class="cls-12" d="M92.23,101.59s6.11-2.06,6.11-4.45-3.72-3.1-3.72-3.1h-2.39"/>
                <path class="cls-12" d="M92.23,92.04s2.71.91,2.71,3.36-2.71,2.97-2.71,2.97"/>
              </g>
            </g>
          </g>
        </g>
        <g>
          <g id="_Mirror_Repeat_-5" data-name="&amp;lt;Mirror Repeat&amp;gt;">
            <g class="cls-19">
              <g>
                <path class="cls-8" d="M.07,43.19c0,49.84-45.33,49.59-45.33,49.59,0,0-3.93,45.85,45.29,49.67"/>
                <path class="cls-14" d="M.03,101.27h-1.35c.13,1.93-.6,13.42-.6,13.42H.03"/>
                <path class="cls-10" d="M-.47,142.45s-45.16.21-45.16-49.63"/>
                <path class="cls-4" d="M.03,151.98c-5.38,0-9.74-4.36-9.74-9.74s4.36-9.74,9.74-9.74"/>
                <path class="cls-6" d="M.03,148.85c-3.65,0-6.61-2.96-6.61-6.61s2.96-6.61,6.61-6.61"/>
                <path class="cls-16" d="M-8.16,111.27s4.47-.83,6.5,3.97l.72,12.14-6.28,2.2-10.17-13.06s-.62-2.76,2.63-2.55l6.6-2.7Z"/>
                <path class="cls-13" d="M-7.9,129.98s-8.45-9.35-16.06-9.35,2.39-8.26,5.68-4.97,11.51,9.75,11.51,14.07"/>
                <path class="cls-13" d="M-4.5,128.44s-4.12-11.91-11.13-14.89c-7.01-2.98,5.42-6.67,7.17-2.35s6.78,13.47,5.1,17.45"/>
                <path class="cls-13" d="M.03,112.3c-3.23-.06-1.48,15.16-1.48,15.16l1.48-.26"/>
                <path class="cls-13" d="M-.02,127.16s-8.45,1.63-13.06,6.48l-.41.07c-9.2-2.82-21.07-8.11-23.4-27.54,0,0-.26-.6.36-.84,3.31-1.32,8.1-3.28,11.41-18.15l-3.31,1.19c-1.42,12.77-11.22,14.94-11.22,14.94v.12c.93,25.87,17.64,30.8,27.34,32.77l.34.07c4.59-5.41,12.12-6.78,12.12-6.78"/>
                <g>
                  <path class="cls-15" d="M-4.91,99.02s-7.49,3.07-9.85,0,8.68-1.88,8.68-1.88"/>
                  <path class="cls-17" d="M-15.68,90.62s-2.9,1.32-2.42,3.42,3.63,2.98,4.82,2.95,7.13,0,7.13,0l.22-1.15-9.75-5.23"/>
                  <path class="cls-15" d="M-6.08,96s-12.81-1.92-9.11-8.95,6.3,3.33,6.3,3.33l3.3,4.93"/>
                  <path class="cls-17" d="M-5.81,95.4s-4.6-6.5-4.47-9.1,3.68-3.23,3.68-3.23c0,0,1.92-.24,2.84,2.56s1.81,7.66,1.81,7.66"/>
                  <path class="cls-15" d="M.03,80.92s-3.9.15-3.95,3.56.48,6.94,1.67,8.95l2.28-1.62"/>
                </g>
                <path class="cls-12" d="M.03,101.59s-6.11-2.06-6.11-4.45,3.72-3.1,3.72-3.1H.03"/>
                <path class="cls-12" d="M.03,92.04s-2.71.91-2.71,3.36S.03,98.37.03,98.37"/>
              </g>
            </g>
          </g>
          <g id="_Mirror_Repeat_-6" data-name="&amp;lt;Mirror Repeat&amp;gt;">
            <g class="cls-25">
              <g>
                <path class="cls-8" d="M-.07,43.19c0,49.84,45.33,49.59,45.33,49.59,0,0,3.93,45.85-45.29,49.67"/>
                <path class="cls-14" d="M-.03,101.27h1.35c-.13,1.93.6,13.42.6,13.42H-.03"/>
                <path class="cls-10" d="M.47,142.45s45.16.21,45.16-49.63"/>
                <path class="cls-4" d="M-.03,151.98c5.38,0,9.74-4.36,9.74-9.74s-4.36-9.74-9.74-9.74"/>
                <path class="cls-6" d="M-.03,148.85c3.65,0,6.61-2.96,6.61-6.61s-2.96-6.61-6.61-6.61"/>
                <path class="cls-16" d="M8.16,111.27s-4.47-.83-6.5,3.97l-.72,12.14,6.28,2.2,10.17-13.06s.62-2.76-2.63-2.55l-6.6-2.7Z"/>
                <path class="cls-13" d="M7.9,129.98s8.45-9.35,16.06-9.35-2.39-8.26-5.68-4.97-11.51,9.75-11.51,14.07"/>
                <path class="cls-13" d="M4.5,128.44s4.12-11.91,11.13-14.89c7.01-2.98-5.42-6.67-7.17-2.35s-6.78,13.47-5.1,17.45"/>
                <path class="cls-13" d="M-.03,112.3c3.23-.06,1.48,15.16,1.48,15.16l-1.48-.26"/>
                <path class="cls-13" d="M.02,127.16s8.45,1.63,13.06,6.48l.41.07c9.2-2.82,21.07-8.11,23.4-27.54,0,0,.26-.6-.36-.84-3.31-1.32-8.1-3.28-11.41-18.15l3.31,1.19c1.42,12.77,11.22,14.94,11.22,14.94v.12c-.93,25.87-17.64,30.8-27.34,32.77l-.34.07c-4.59-5.41-12.12-6.78-12.12-6.78"/>
                <g>
                  <path class="cls-15" d="M4.91,99.02s7.49,3.07,9.85,0-8.68-1.88-8.68-1.88"/>
                  <path class="cls-17" d="M15.68,90.62s2.9,1.32,2.42,3.42-3.63,2.98-4.82,2.95-7.13,0-7.13,0l-.22-1.15,9.75-5.23"/>
                  <path class="cls-15" d="M6.08,96s12.81-1.92,9.11-8.95-6.3,3.33-6.3,3.33l-3.3,4.93"/>
                  <path class="cls-17" d="M5.81,95.4s4.6-6.5,4.47-9.1-3.68-3.23-3.68-3.23c0,0-1.92-.24-2.84,2.56s-1.81,7.66-1.81,7.66"/>
                  <path class="cls-15" d="M-.03,80.92s3.9.15,3.95,3.56-.48,6.94-1.67,8.95l-2.28-1.62"/>
                </g>
                <path class="cls-12" d="M-.03,101.59s6.11-2.06,6.11-4.45-3.72-3.1-3.72-3.1H-.03"/>
                <path class="cls-12" d="M-.03,92.04s2.71.91,2.71,3.36S-.03,98.37-.03,98.37"/>
              </g>
            </g>
          </g>
        </g>
        <g>
          <g id="_Mirror_Repeat_-7" data-name="&amp;lt;Mirror Repeat&amp;gt;">
            <g class="cls-9">
              <g>
                <path class="cls-8" d="M46.2-5.6c0,49.84-45.33,49.59-45.33,49.59,0,0-3.93,45.85,45.29,49.67"/>
                <path class="cls-14" d="M46.16,52.48h-1.35c.13,1.93-.6,13.42-.6,13.42h1.95"/>
                <path class="cls-10" d="M45.66,93.66S.5,93.86.5,44.03"/>
                <path class="cls-4" d="M46.16,103.19c-5.38,0-9.74-4.36-9.74-9.74s4.36-9.74,9.74-9.74"/>
                <path class="cls-6" d="M46.16,100.06c-3.65,0-6.61-2.96-6.61-6.61s2.96-6.61,6.61-6.61"/>
                <path class="cls-16" d="M37.97,62.48s4.47-.83,6.5,3.97l.72,12.14-6.28,2.2-10.17-13.06s-.62-2.76,2.63-2.55l6.6-2.7Z"/>
                <path class="cls-13" d="M38.23,81.19s-8.45-9.35-16.06-9.35,2.39-8.26,5.68-4.97,11.51,9.75,11.51,14.07"/>
                <path class="cls-13" d="M41.63,79.65s-4.12-11.91-11.13-14.89c-7.01-2.98,5.42-6.67,7.17-2.35s6.78,13.47,5.1,17.45"/>
                <path class="cls-13" d="M46.16,63.51c-3.23-.06-1.48,15.16-1.48,15.16l1.48-.26"/>
                <path class="cls-13" d="M46.11,78.36s-8.45,1.63-13.06,6.48l-.41.07c-9.2-2.82-21.07-8.11-23.4-27.54,0,0-.26-.6.36-.84,3.31-1.32,8.1-3.28,11.41-18.15l-3.31,1.19c-1.42,12.77-11.22,14.94-11.22,14.94v.12c.93,25.87,17.64,30.8,27.34,32.77l.34.07c4.59-5.41,12.12-6.78,12.12-6.78"/>
                <g>
                  <path class="cls-15" d="M41.22,50.23s-7.49,3.07-9.85,0,8.68-1.88,8.68-1.88"/>
                  <path class="cls-17" d="M30.45,41.83s-2.9,1.32-2.42,3.42,3.63,2.98,4.82,2.95,7.13,0,7.13,0l.22-1.15-9.75-5.23"/>
                  <path class="cls-15" d="M40.05,47.2s-12.81-1.92-9.11-8.95,6.3,3.33,6.3,3.33l3.3,4.93"/>
                  <path class="cls-17" d="M40.32,46.61s-4.6-6.5-4.47-9.1,3.68-3.23,3.68-3.23c0,0,1.92-.24,2.84,2.56s1.81,7.66,1.81,7.66"/>
                  <path class="cls-15" d="M46.16,32.13s-3.9.15-3.95,3.56.48,6.94,1.67,8.95l2.28-1.62"/>
                </g>
                <path class="cls-12" d="M46.16,52.8s-6.11-2.06-6.11-4.45,3.72-3.1,3.72-3.1h2.39"/>
                <path class="cls-12" d="M46.16,43.25s-2.71.91-2.71,3.36,2.71,2.97,2.71,2.97"/>
              </g>
            </g>
          </g>
          <g id="_Mirror_Repeat_-8" data-name="&amp;lt;Mirror Repeat&amp;gt;">
            <g class="cls-11">
              <g>
                <path class="cls-8" d="M46.06-5.6c0,49.84,45.33,49.59,45.33,49.59,0,0,3.93,45.85-45.29,49.67"/>
                <path class="cls-14" d="M46.1,52.48h1.35c-.13,1.93.6,13.42.6,13.42h-1.95"/>
                <path class="cls-10" d="M46.6,93.66s45.16.21,45.16-49.63"/>
                <path class="cls-4" d="M46.1,103.19c5.38,0,9.74-4.36,9.74-9.74s-4.36-9.74-9.74-9.74"/>
                <path class="cls-6" d="M46.1,100.06c3.65,0,6.61-2.96,6.61-6.61s-2.96-6.61-6.61-6.61"/>
                <path class="cls-16" d="M54.29,62.48s-4.47-.83-6.5,3.97l-.72,12.14,6.28,2.2,10.17-13.06s.62-2.76-2.63-2.55l-6.6-2.7Z"/>
                <path class="cls-13" d="M54.03,81.19s8.45-9.35,16.06-9.35-2.39-8.26-5.68-4.97-11.51,9.75-11.51,14.07"/>
                <path class="cls-13" d="M50.63,79.65s4.12-11.91,11.13-14.89c7.01-2.98-5.42-6.67-7.17-2.35s-6.78,13.47-5.1,17.45"/>
                <path class="cls-13" d="M46.1,63.51c3.23-.06,1.48,15.16,1.48,15.16l-1.48-.26"/>
                <path class="cls-13" d="M46.15,78.36s8.45,1.63,13.06,6.48l.41.07c9.2-2.82,21.07-8.11,23.4-27.54,0,0,.26-.6-.36-.84-3.31-1.32-8.1-3.28-11.41-18.15l3.31,1.19c1.42,12.77,11.22,14.94,11.22,14.94v.12c-.93,25.87-17.64,30.8-27.34,32.77l-.34.07c-4.59-5.41-12.12-6.78-12.12-6.78"/>
                <g>
                  <path class="cls-15" d="M51.04,50.23s7.49,3.07,9.85,0-8.68-1.88-8.68-1.88"/>
                  <path class="cls-17" d="M61.81,41.83s2.9,1.32,2.42,3.42-3.63,2.98-4.82,2.95-7.13,0-7.13,0l-.22-1.15,9.75-5.23"/>
                  <path class="cls-15" d="M52.21,47.2s12.81-1.92,9.11-8.95-6.3,3.33-6.3,3.33l-3.3,4.93"/>
                  <path class="cls-17" d="M51.94,46.61s4.6-6.5,4.47-9.1-3.68-3.23-3.68-3.23c0,0-1.92-.24-2.84,2.56s-1.81,7.66-1.81,7.66"/>
                  <path class="cls-15" d="M46.1,32.13s3.9.15,3.95,3.56-.48,6.94-1.67,8.95l-2.28-1.62"/>
                </g>
                <path class="cls-12" d="M46.1,52.8s6.11-2.06,6.11-4.45-3.72-3.1-3.72-3.1h-2.39"/>
                <path class="cls-12" d="M46.1,43.25s2.71.91,2.71,3.36-2.71,2.97-2.71,2.97"/>
              </g>
            </g>
          </g>
        </g>
        <g>
          <g id="_Mirror_Repeat_-9" data-name="&amp;lt;Mirror Repeat&amp;gt;">
            <g class="cls-24">
              <g>
                <path class="cls-8" d="M92.33-54.4c0,49.84-45.33,49.59-45.33,49.59,0,0-3.93,45.85,45.29,49.67"/>
                <path class="cls-14" d="M92.29,3.69h-1.35c.13,1.93-.6,13.42-.6,13.42h1.95"/>
                <path class="cls-10" d="M91.79,44.86s-45.16.21-45.16-49.63"/>
                <path class="cls-4" d="M92.29,54.4c-5.38,0-9.74-4.36-9.74-9.74s4.36-9.74,9.74-9.74"/>
                <path class="cls-6" d="M92.29,51.27c-3.65,0-6.61-2.96-6.61-6.61s2.96-6.61,6.61-6.61"/>
                <path class="cls-16" d="M84.1,13.68s4.47-.83,6.5,3.97l.72,12.14-6.28,2.2-10.17-13.06s-.62-2.76,2.63-2.55l6.6-2.7Z"/>
                <path class="cls-13" d="M84.36,32.4s-8.45-9.35-16.06-9.35,2.39-8.26,5.68-4.97,11.51,9.75,11.51,14.07"/>
                <path class="cls-13" d="M87.76,30.85s-4.12-11.91-11.13-14.89c-7.01-2.98,5.42-6.67,7.17-2.35s6.78,13.47,5.1,17.45"/>
                <path class="cls-13" d="M92.29,14.72c-3.23-.06-1.48,15.16-1.48,15.16l1.48-.26"/>
                <path class="cls-13" d="M92.24,29.57s-8.45,1.63-13.06,6.48l-.41.07c-9.2-2.82-21.07-8.11-23.4-27.54,0,0-.26-.6.36-.84,3.31-1.32,8.1-3.28,11.41-18.15l-3.31,1.19c-1.42,12.77-11.22,14.94-11.22,14.94v.12c.93,25.87,17.64,30.8,27.34,32.77l.34.07c4.59-5.41,12.12-6.78,12.12-6.78"/>
                <g>
                  <path class="cls-15" d="M87.34,1.44s-7.49,3.07-9.85,0,8.68-1.88,8.68-1.88"/>
                  <path class="cls-17" d="M76.58-6.96s-2.9,1.32-2.42,3.42,3.63,2.98,4.82,2.95,7.13,0,7.13,0l.22-1.15-9.75-5.23"/>
                  <path class="cls-15" d="M86.18-1.59s-12.81-1.92-9.11-8.95,6.3,3.33,6.3,3.33l3.3,4.93"/>
                  <path class="cls-17" d="M86.45-2.18s-4.6-6.5-4.47-9.1,3.68-3.23,3.68-3.23c0,0,1.92-.24,2.84,2.56s1.81,7.66,1.81,7.66"/>
                  <path class="cls-15" d="M92.29-16.66s-3.9.15-3.95,3.56.48,6.94,1.67,8.95l2.28-1.62"/>
                </g>
                <path class="cls-12" d="M92.29,4.01s-6.11-2.06-6.11-4.45,3.72-3.1,3.72-3.1h2.39"/>
                <path class="cls-12" d="M92.29-5.54s-2.71.91-2.71,3.36,2.71,2.97,2.71,2.97"/>
              </g>
            </g>
          </g>
          <g id="_Mirror_Repeat_-10" data-name="&amp;lt;Mirror Repeat&amp;gt;">
            <g class="cls-21">
              <g>
                <path class="cls-8" d="M92.19-54.4c0,49.84,45.33,49.59,45.33,49.59,0,0,3.93,45.85-45.29,49.67"/>
                <path class="cls-14" d="M92.23,3.69h1.35c-.13,1.93.6,13.42.6,13.42h-1.95"/>
                <path class="cls-10" d="M92.73,44.86s45.16.21,45.16-49.63"/>
                <path class="cls-4" d="M92.23,54.4c5.38,0,9.74-4.36,9.74-9.74s-4.36-9.74-9.74-9.74"/>
                <path class="cls-6" d="M92.23,51.27c3.65,0,6.61-2.96,6.61-6.61s-2.96-6.61-6.61-6.61"/>
                <path class="cls-16" d="M100.42,13.68s-4.47-.83-6.5,3.97l-.72,12.14,6.28,2.2,10.17-13.06s.62-2.76-2.63-2.55l-6.6-2.7Z"/>
                <path class="cls-13" d="M100.16,32.4s8.45-9.35,16.06-9.35-2.39-8.26-5.68-4.97-11.51,9.75-11.51,14.07"/>
                <path class="cls-13" d="M96.76,30.85s4.12-11.91,11.13-14.89c7.01-2.98-5.42-6.67-7.17-2.35s-6.78,13.47-5.1,17.45"/>
                <path class="cls-13" d="M92.23,14.72c3.23-.06,1.48,15.16,1.48,15.16l-1.48-.26"/>
                <path class="cls-13" d="M92.28,29.57s8.45,1.63,13.06,6.48l.41.07c9.2-2.82,21.07-8.11,23.4-27.54,0,0,.26-.6-.36-.84-3.31-1.32-8.1-3.28-11.41-18.15l3.31,1.19c1.42,12.77,11.22,14.94,11.22,14.94v.12c-.93,25.87-17.64,30.8-27.34,32.77l-.34.07c-4.59-5.41-12.12-6.78-12.12-6.78"/>
                <g>
                  <path class="cls-15" d="M97.17,1.44s7.49,3.07,9.85,0-8.68-1.88-8.68-1.88"/>
                  <path class="cls-17" d="M107.94-6.96s2.9,1.32,2.42,3.42-3.63,2.98-4.82,2.95-7.13,0-7.13,0l-.22-1.15,9.75-5.23"/>
                  <path class="cls-15" d="M98.34-1.59s12.81-1.92,9.11-8.95-6.3,3.33-6.3,3.33l-3.3,4.93"/>
                  <path class="cls-17" d="M98.07-2.18s4.6-6.5,4.47-9.1-3.68-3.23-3.68-3.23c0,0-1.92-.24-2.84,2.56s-1.81,7.66-1.81,7.66"/>
                  <path class="cls-15" d="M92.23-16.66s3.9.15,3.95,3.56-.48,6.94-1.67,8.95l-2.28-1.62"/>
                </g>
                <path class="cls-12" d="M92.23,4.01s6.11-2.06,6.11-4.45-3.72-3.1-3.72-3.1h-2.39"/>
                <path class="cls-12" d="M92.23-5.54s2.71.91,2.71,3.36-2.71,2.97-2.71,2.97"/>
              </g>
            </g>
          </g>
        </g>
        <g>
          <g id="_Mirror_Repeat_-11" data-name="&amp;lt;Mirror Repeat&amp;gt;">
            <g class="cls-26">
              <g>
                <path class="cls-8" d="M.07-54.4c0,49.84-45.33,49.59-45.33,49.59,0,0-3.93,45.85,45.29,49.67"/>
                <path class="cls-14" d="M.03,3.69h-1.35c.13,1.93-.6,13.42-.6,13.42H.03"/>
                <path class="cls-10" d="M-.47,44.86s-45.16.21-45.16-49.63"/>
                <path class="cls-4" d="M.03,54.4c-5.38,0-9.74-4.36-9.74-9.74S-5.35,34.91.03,34.91"/>
                <path class="cls-6" d="M.03,51.27c-3.65,0-6.61-2.96-6.61-6.61S-3.62,38.04.03,38.04"/>
                <path class="cls-16" d="M-8.16,13.68s4.47-.83,6.5,3.97l.72,12.14-6.28,2.2-10.17-13.06s-.62-2.76,2.63-2.55l6.6-2.7Z"/>
                <path class="cls-13" d="M-7.9,32.4s-8.45-9.35-16.06-9.35,2.39-8.26,5.68-4.97,11.51,9.75,11.51,14.07"/>
                <path class="cls-13" d="M-4.5,30.85s-4.12-11.91-11.13-14.89c-7.01-2.98,5.42-6.67,7.17-2.35S-1.68,27.08-3.36,31.06"/>
                <path class="cls-13" d="M.03,14.72c-3.23-.06-1.48,15.16-1.48,15.16l1.48-.26"/>
                <path class="cls-13" d="M-.02,29.57s-8.45,1.63-13.06,6.48l-.41.07c-9.2-2.82-21.07-8.11-23.4-27.54,0,0-.26-.6.36-.84,3.31-1.32,8.1-3.28,11.41-18.15l-3.31,1.19c-1.42,12.77-11.22,14.94-11.22,14.94v.12c.93,25.87,17.64,30.8,27.34,32.77l.34.07C-7.37,33.27.16,31.9.16,31.9"/>
                <g>
                  <path class="cls-15" d="M-4.91,1.44s-7.49,3.07-9.85,0S-6.08-.44-6.08-.44"/>
                  <path class="cls-17" d="M-15.68-6.96s-2.9,1.32-2.42,3.42S-14.47-.56-13.27-.59s7.13,0,7.13,0l.22-1.15-9.75-5.23"/>
                  <path class="cls-15" d="M-6.08-1.59s-12.81-1.92-9.11-8.95,6.3,3.33,6.3,3.33l3.3,4.93"/>
                  <path class="cls-17" d="M-5.81-2.18s-4.6-6.5-4.47-9.1,3.68-3.23,3.68-3.23c0,0,1.92-.24,2.84,2.56s1.81,7.66,1.81,7.66"/>
                  <path class="cls-15" d="M.03-16.66s-3.9.15-3.95,3.56.48,6.94,1.67,8.95L.03-5.77"/>
                </g>
                <path class="cls-12" d="M.03,4.01S-6.08,1.94-6.08-.44s3.72-3.1,3.72-3.1H.03"/>
                <path class="cls-12" d="M.03-5.54s-2.71.91-2.71,3.36S.03.78.03.78"/>
              </g>
            </g>
          </g>
          <g id="_Mirror_Repeat_-12" data-name="&amp;lt;Mirror Repeat&amp;gt;">
            <g class="cls-1">
              <g>
                <path class="cls-8" d="M-.07-54.4c0,49.84,45.33,49.59,45.33,49.59,0,0,3.93,45.85-45.29,49.67"/>
                <path class="cls-14" d="M-.03,3.69h1.35c-.13,1.93.6,13.42.6,13.42H-.03"/>
                <path class="cls-10" d="M.47,44.86s45.16.21,45.16-49.63"/>
                <path class="cls-4" d="M-.03,54.4c5.38,0,9.74-4.36,9.74-9.74S5.35,34.91-.03,34.91"/>
                <path class="cls-6" d="M-.03,51.27c3.65,0,6.61-2.96,6.61-6.61S3.62,38.04-.03,38.04"/>
                <path class="cls-16" d="M8.16,13.68s-4.47-.83-6.5,3.97l-.72,12.14,6.28,2.2,10.17-13.06s.62-2.76-2.63-2.55l-6.6-2.7Z"/>
                <path class="cls-13" d="M7.9,32.4s8.45-9.35,16.06-9.35-2.39-8.26-5.68-4.97-11.51,9.75-11.51,14.07"/>
                <path class="cls-13" d="M4.5,30.85s4.12-11.91,11.13-14.89c7.01-2.98-5.42-6.67-7.17-2.35S1.68,27.08,3.36,31.06"/>
                <path class="cls-13" d="M-.03,14.72c3.23-.06,1.48,15.16,1.48,15.16l-1.48-.26"/>
                <path class="cls-13" d="M.02,29.57s8.45,1.63,13.06,6.48l.41.07c9.2-2.82,21.07-8.11,23.4-27.54,0,0,.26-.6-.36-.84-3.31-1.32-8.1-3.28-11.41-18.15l3.31,1.19c1.42,12.77,11.22,14.94,11.22,14.94v.12c-.93,25.87-17.64,30.8-27.34,32.77l-.34.07C7.37,33.27-.16,31.9-.16,31.9"/>
                <g>
                  <path class="cls-15" d="M4.91,1.44s7.49,3.07,9.85,0S6.08-.44,6.08-.44"/>
                  <path class="cls-17" d="M15.68-6.96s2.9,1.32,2.42,3.42S14.47-.56,13.27-.59s-7.13,0-7.13,0l-.22-1.15,9.75-5.23"/>
                  <path class="cls-15" d="M6.08-1.59s12.81-1.92,9.11-8.95-6.3,3.33-6.3,3.33l-3.3,4.93"/>
                  <path class="cls-17" d="M5.81-2.18s4.6-6.5,4.47-9.1-3.68-3.23-3.68-3.23c0,0-1.92-.24-2.84,2.56s-1.81,7.66-1.81,7.66"/>
                  <path class="cls-15" d="M-.03-16.66s3.9.15,3.95,3.56-.48,6.94-1.67,8.95L-.03-5.77"/>
                </g>
                <path class="cls-12" d="M-.03,4.01S6.08,1.94,6.08-.44s-3.72-3.1-3.72-3.1H-.03"/>
                <path class="cls-12" d="M-.03-5.54s2.71.91,2.71,3.36S-.03.78-.03.78"/>
              </g>
            </g>
          </g>
        </g>
        <g>
          <g id="_Mirror_Repeat_-13" data-name="&amp;lt;Mirror Repeat&amp;gt;">
            <g class="cls-20">
              <g>
                <path class="cls-8" d="M46.2-103.19c0,49.84-45.33,49.59-45.33,49.59C.87-53.6-3.06-7.75,46.16-3.93"/>
                <path class="cls-14" d="M46.16-45.11h-1.35c.13,1.93-.6,13.42-.6,13.42h1.95"/>
                <path class="cls-10" d="M45.66-3.93S.5-3.72.5-53.56"/>
                <path class="cls-4" d="M46.16,5.6c-5.38,0-9.74-4.36-9.74-9.74s4.36-9.74,9.74-9.74"/>
                <path class="cls-6" d="M46.16,2.48c-3.65,0-6.61-2.96-6.61-6.61s2.96-6.61,6.61-6.61"/>
                <path class="cls-16" d="M37.97-35.11s4.47-.83,6.5,3.97l.72,12.14-6.28,2.2-10.17-13.06s-.62-2.76,2.63-2.55l6.6-2.7Z"/>
                <path class="cls-13" d="M38.23-16.4s-8.45-9.35-16.06-9.35,2.39-8.26,5.68-4.97,11.51,9.75,11.51,14.07"/>
                <path class="cls-13" d="M41.63-17.94s-4.12-11.91-11.13-14.89c-7.01-2.98,5.42-6.67,7.17-2.35s6.78,13.47,5.1,17.45"/>
                <path class="cls-13" d="M46.16-34.07c-3.23-.06-1.48,15.16-1.48,15.16l1.48-.26"/>
                <path class="cls-13" d="M46.11-19.22s-8.45,1.63-13.06,6.48l-.41.07c-9.2-2.82-21.07-8.11-23.4-27.54,0,0-.26-.6.36-.84,3.31-1.32,8.1-3.28,11.41-18.15l-3.31,1.19c-1.42,12.77-11.22,14.94-11.22,14.94v.12c.93,25.87,17.64,30.8,27.34,32.77l.34.07c4.59-5.41,12.12-6.78,12.12-6.78"/>
                <g>
                  <path class="cls-15" d="M41.22-47.35s-7.49,3.07-9.85,0,8.68-1.88,8.68-1.88"/>
                  <path class="cls-17" d="M30.45-55.75s-2.9,1.32-2.42,3.42,3.63,2.98,4.82,2.95,7.13,0,7.13,0l.22-1.15-9.75-5.23"/>
                  <path class="cls-15" d="M40.05-50.38s-12.81-1.92-9.11-8.95,6.3,3.33,6.3,3.33l3.3,4.93"/>
                  <path class="cls-17" d="M40.32-50.98s-4.6-6.5-4.47-9.1,3.68-3.23,3.68-3.23c0,0,1.92-.24,2.84,2.56s1.81,7.66,1.81,7.66"/>
                  <path class="cls-15" d="M46.16-65.45s-3.9.15-3.95,3.56.48,6.94,1.67,8.95l2.28-1.62"/>
                </g>
                <path class="cls-12" d="M46.16-44.78s-6.11-2.06-6.11-4.45,3.72-3.1,3.72-3.1h2.39"/>
                <path class="cls-12" d="M46.16-54.33s-2.71.91-2.71,3.36,2.71,2.97,2.71,2.97"/>
              </g>
            </g>
          </g>
          <g id="_Mirror_Repeat_-14" data-name="&amp;lt;Mirror Repeat&amp;gt;">
            <g class="cls-3">
              <g>
                <path class="cls-8" d="M46.06-103.19c0,49.84,45.33,49.59,45.33,49.59,0,0,3.93,45.85-45.29,49.67"/>
                <path class="cls-14" d="M46.1-45.11h1.35c-.13,1.93.6,13.42.6,13.42h-1.95"/>
                <path class="cls-10" d="M46.6-3.93s45.16.21,45.16-49.63"/>
                <path class="cls-4" d="M46.1,5.6c5.38,0,9.74-4.36,9.74-9.74s-4.36-9.74-9.74-9.74"/>
                <path class="cls-6" d="M46.1,2.48c3.65,0,6.61-2.96,6.61-6.61s-2.96-6.61-6.61-6.61"/>
                <path class="cls-16" d="M54.29-35.11s-4.47-.83-6.5,3.97l-.72,12.14,6.28,2.2,10.17-13.06s.62-2.76-2.63-2.55l-6.6-2.7Z"/>
                <path class="cls-13" d="M54.03-16.4s8.45-9.35,16.06-9.35-2.39-8.26-5.68-4.97-11.51,9.75-11.51,14.07"/>
                <path class="cls-13" d="M50.63-17.94s4.12-11.91,11.13-14.89c7.01-2.98-5.42-6.67-7.17-2.35s-6.78,13.47-5.1,17.45"/>
                <path class="cls-13" d="M46.1-34.07c3.23-.06,1.48,15.16,1.48,15.16l-1.48-.26"/>
                <path class="cls-13" d="M46.15-19.22s8.45,1.63,13.06,6.48l.41.07c9.2-2.82,21.07-8.11,23.4-27.54,0,0,.26-.6-.36-.84-3.31-1.32-8.1-3.28-11.41-18.15l3.31,1.19c1.42,12.77,11.22,14.94,11.22,14.94v.12c-.93,25.87-17.64,30.8-27.34,32.77l-.34.07c-4.59-5.41-12.12-6.78-12.12-6.78"/>
                <g>
                  <path class="cls-15" d="M51.04-47.35s7.49,3.07,9.85,0-8.68-1.88-8.68-1.88"/>
                  <path class="cls-17" d="M61.81-55.75s2.9,1.32,2.42,3.42-3.63,2.98-4.82,2.95-7.13,0-7.13,0l-.22-1.15,9.75-5.23"/>
                  <path class="cls-15" d="M52.21-50.38s12.81-1.92,9.11-8.95-6.3,3.33-6.3,3.33l-3.3,4.93"/>
                  <path class="cls-17" d="M51.94-50.98s4.6-6.5,4.47-9.1-3.68-3.23-3.68-3.23c0,0-1.92-.24-2.84,2.56s-1.81,7.66-1.81,7.66"/>
                  <path class="cls-15" d="M46.1-65.45s3.9.15,3.95,3.56-.48,6.94-1.67,8.95l-2.28-1.62"/>
                </g>
                <path class="cls-12" d="M46.1-44.78s6.11-2.06,6.11-4.45-3.72-3.1-3.72-3.1h-2.39"/>
                <path class="cls-12" d="M46.1-54.33s2.71.91,2.71,3.36-2.71,2.97-2.71,2.97"/>
              </g>
            </g>
          </g>
        </g>
      </g>
    </pattern>
  </defs>
  <g id="Layer_6" data-name="Layer 6">
    <circle class="cls-7" cx="197.5" cy="197.5" r="197.5"/>
  </g>
</svg>