<?xml version="1.0" encoding="UTF-8"?>
<svg id="Layer_2" data-name="Layer 2" xmlns="http://www.w3.org/2000/svg" viewBox="0 0 731.56 1113.21">
  <defs>
    <style>
      .cls-1 {
        fill: gold;
        stroke-width: 0px;
      }
    </style>
  </defs>
  <g id="Layer_2-2" data-name="Layer 2">
    <g>
      <path class="cls-1" d="m406.3,583.25c1.15-14.93-9.78-28.51-11.09-30.07-2.27,3.05-10.13,14.3-12.36,26.65-2.6,14.46,12.51,25.04,12.54,25.06l-.64-.76c7.06-5.94,10.94-12.96,11.55-20.87Z"/>
      <path class="cls-1" d="m380.2,841.16c8.33-18.88,6.4-38.29-5.72-57.71-3.03,3.8-15.42,20.19-17.92,36.95-2.51,16.78,6.17,37.86,7.66,43.23,1.99-1.8,10.46-9.93,15.99-22.46Z"/>
      <path class="cls-1" d="m412.69,299.92l.78-.62c-8.13-.43-18.66,15.1-18.69,26.21-.03,9.63,10.24,22.44,12.96,25.66,24-26.66,5.14-51,4.95-51.25Z"/>
      <path class="cls-1" d="m417.13,423.81c-.45-13.63-9.9-22.55-9.99-22.64l-.32-.29c-2.93,1.46-11.5,7.01-13.57,22.69-2.16,16.34,7.66,27.35,10.45,30.1,9.24-9.79,13.76-19.84,13.43-29.86Z"/>
      <path class="cls-1" d="m412.2,490.23c3.61-16.45-7.54-33.72-8.52-35.19-2.93,2.71-13.57,13.36-15.33,26.19-2.04,14.89,8.55,30.11,8.56,30.13l-.51-.86c8.65-5.13,13.97-11.95,15.79-20.27Z"/>
      <path class="cls-1" d="m418.67,368.63c-1.91-10.56-10.68-15.78-10.77-15.83l-.49-.28c-2.94,1.87-11.53,8.43-12.65,21.92-1.16,13.98,9.24,23.08,12.25,25.41l.03-.04c9.38-11.45,13.29-21.94,11.62-31.17Z"/>
      <path class="cls-1" d="m451.22,625.75c.51,7.74,4.28,14.56,11.2,20.29,16.86-31.19,5.38-49.27,2.43-53.1-1.18,1.3-14.7,16.6-13.63,32.81Z"/>
      <path class="cls-1" d="m726.66,113.69l-5.29,5.75s-12.09,7.67-27.49-9.44c-15.4-17.11-28.09-13.9-28.09-13.9l.36-8.62s-65.42,1.17-87.79-11.48C555.99,63.35,552.27-2.24,493.56.06c-58.71,2.29-70.14,131.95-70.14,131.95l-1.18,28.91s-3.73-1.52-6.41-10.24c-2.68-8.72-10.44-2.64-11.89,1.59s-.06,29.77,4.67,31.16c4.73,1.39,7.3-9.55,7.3-9.55l2.58,4.2-4.99,121.23.78-.62c.2.25,19.72,25.45-4.34,53.06,2.54,1.78,9.01,7.15,10.71,16.51,1.76,9.66-2.1,20.46-11.46,32.12,2.28,2.38,9.55,10.9,9.97,23.35.35,10.39-4.17,20.73-13.43,30.75,2.28,3.54,12.02,19.92,8.45,36.18-1.95,8.89-7.58,16.14-16.73,21.57l-.51-.86-1.08,41,.75-.66c.53.61,12.98,15.04,11.71,31.69-.65,8.47-4.77,15.96-12.26,22.26l-.64-.76-.44,12.67s-13.42-2.24-17.11,22.97,8.96,40.67,8.96,40.67l.6,12.03.84-.55c.61.93,14.8,23.04,10.11,45.17-2.29,10.8-8.74,19.71-19.18,26.49l-1.09-1.68c9.98-6.48,16.14-14.97,18.31-25.23,4.24-20.05-8.05-40.79-9.66-43.39-2.75,3.48-13.3,17.71-16.28,34.74-3.43,19.63,8.17,34.72,8.17,34.72l-3.5,19.13.85-.53c15.8,25.08,11.99,46.44,6.01,59.95-6.46,14.6-16.5,23.14-16.93,23.49l-.64-.77h0c-.23,2.05-13.66,79-52.65,74.12-38.99-4.88-31.72-135.49-18.75-185.65,12.97-50.16.05-184.63,1.23-221.11,1.18-36.48,17.8-21.55,22.09-72.56,4.28-51.02-25.55-51.57-89.71-33.41-64.16,18.16-169.47,121.01-195.04,148.64-25.57,27.63-49.47,82.78-12.73,93.51,36.74,10.73,41.23-8.54,80.98-9.31,39.75-.77,42.48,95.21,38.16,127.07-4.32,31.85-14.16,180.97-11.64,222.5,2.52,41.53,53.07,136.68,204.22,93.78,151.15-42.89,145.8-177.37,145.8-177.37l-8.71-193.55-.57.82c-8.39-5.79-13.3-13.17-14.6-21.95-2.77-18.67,11.55-36.94,12.16-37.71l1.57,1.24c-.14.18-14.4,18.38-11.75,36.18,1.22,8.2,5.85,15.13,13.76,20.59l-.57.82s7.9,2.46,10.96-23.66c3.07-26.14-13.19-34.56-13.19-34.56l-3.51-26.27-.63.77c-7.47-6.12-11.53-13.47-12.08-21.84-1.17-17.73,13.62-33.72,14.25-34.39l.73.69s0,0,0,0l-4.11-60.99c10.84-1.95,10.07-11.43,10.07-11.43l-4.09-343.99-8.33-1.91c-7.36-77.71,16.79-112.21,43.45-120.31,26.66-8.1,43.99,53.65,66.46,70.82,22.47,17.18,41.34,11.12,41.34,11.12l4.2,4.99s24.85,4.75,37.6,2.04c12.75-2.71,9.98-8.4,9.98-8.4l68.33-2.07c6.7-14.01-2.45-18.34-2.45-18.34ZM203.31,572.53c-92.87,87.74-175.67,94.76-186.48,86.79-10.82-7.97-14.22-58.63,104.43-157.21,98.52-81.85,157.46-78.2,174.63-74.6,3.26.68,5.87,3.13,6.69,6.36,8.33,32.62-10.76,55.04-99.27,138.66Zm202.4,82.74c-1.8,10.56-7.97,19.55-18.33,26.74l-1.14-1.64c9.9-6.87,15.79-15.42,17.5-25.43,3.21-18.82-9.46-36.62-9.59-36.8l1.62-1.17c.54.75,13.3,18.67,9.94,38.31Z"/>
      <polygon class="cls-1" points="396.91 511.36 396.91 511.36 396.91 511.36 396.91 511.36"/>
      <path class="cls-1" d="m407.74,351.17s-.05.06-.08.09l-.83.92.58.34c.62-.39.99-.58.99-.58,0,0-.24-.27-.66-.77Z"/>
      <path class="cls-1" d="m407.01,399.84l-.56.69.37.35c.62-.31.99-.44.99-.44,0,0-.3-.21-.81-.59Z"/>
      <path class="cls-1" d="m403.7,453.67s0,0,0,0l-.55.59.46.67s.03.05.07.11c.47-.44.75-.68.75-.68,0,0-.27-.24-.73-.69Z"/>
      <path class="cls-1" d="m395.83,552.36l-.75.66s.06.07.13.16c.39-.53.62-.81.62-.81h0Z"/>
      <polygon class="cls-1" points="395.39 604.88 395.39 604.88 395.39 604.88 395.39 604.88"/>
      <path class="cls-1" d="m387.41,693.22l-.84.55s.07.11.17.28c.42-.53.66-.82.66-.82h0Z"/>
      <path class="cls-1" d="m363.78,864.01l.64.77c.02-.19-.06-.59-.21-1.15-.26.24-.42.37-.43.38Z"/>
      <path class="cls-1" d="m375.14,782.63l-.85.53c.06.1.12.19.18.29.43-.54.67-.82.67-.82h0Z"/>
      <polygon class="cls-1" points="467.68 731.43 467.68 731.43 467.68 731.43 467.68 731.43"/>
      <path class="cls-1" d="m462.57,646.17c-.05-.04-.1-.09-.15-.13-.16.3-.31.6-.48.91l.63-.77Z"/>
      <path class="cls-1" d="m464.93,592.84l-.73-.68s.25.27.64.78c.05-.05.08-.09.09-.1Z"/>
    </g>
  </g>
</svg>