<?xml version="1.0" encoding="utf-8"?>
<!-- Generator: Adobe Illustrator 28.3.0, SVG Export Plug-In . SVG Version: 6.00 Build 0)  -->
<svg version="1.1" id="Layer_2_00000049931584275828224610000011739530039851585173_"
	 xmlns="http://www.w3.org/2000/svg" xmlns:xlink="http://www.w3.org/1999/xlink" x="0px" y="0px" viewBox="0 0 731.6 1113.2"
	 style="enable-background:new 0 0 731.6 1113.2;" xml:space="preserve">
<g id="Layer_2-2">
	<g>
		<path d="M406.3,583.2c1.1-14.9-9.8-28.5-11.1-30.1c-2.3,3-10.1,14.3-12.4,26.7c-2.6,14.5,12.5,25,12.5,25.1l-0.6-0.8
			C401.8,598.2,405.7,591.2,406.3,583.2L406.3,583.2z"/>
		<path d="M380.2,841.2c8.3-18.9,6.4-38.3-5.7-57.7c-3,3.8-15.4,20.2-17.9,37c-2.5,16.8,6.2,37.9,7.7,43.2
			C366.2,861.8,374.7,853.7,380.2,841.2L380.2,841.2z"/>
		<path d="M412.7,299.9l0.8-0.6c-8.1-0.4-18.7,15.1-18.7,26.2c0,9.6,10.2,22.4,13,25.7C431.7,324.5,412.9,300.2,412.7,299.9z"/>
		<path d="M417.1,423.8c-0.5-13.6-9.9-22.5-10-22.6l-0.3-0.3c-2.9,1.5-11.5,7-13.6,22.7c-2.2,16.3,7.7,27.4,10.5,30.1
			C412.9,443.9,417.5,433.8,417.1,423.8z"/>
		<path d="M412.2,490.2c3.6-16.5-7.5-33.7-8.5-35.2c-2.9,2.7-13.6,13.4-15.3,26.2c-2,14.9,8.5,30.1,8.6,30.1l-0.5-0.9
			C405.1,505.4,410.4,498.6,412.2,490.2L412.2,490.2z"/>
		<path d="M418.7,368.6c-1.9-10.6-10.7-15.8-10.8-15.8l-0.5-0.3c-2.9,1.9-11.5,8.4-12.6,21.9c-1.2,14,9.2,23.1,12.2,25.4l0,0
			C416.4,388.4,420.3,377.9,418.7,368.6L418.7,368.6z"/>
		<path d="M451.2,625.8c0.5,7.7,4.3,14.6,11.2,20.3c16.9-31.2,5.4-49.3,2.4-53.1C463.7,594.2,450.1,609.5,451.2,625.8z"/>
		<path d="M726.7,113.7l-5.3,5.8c0,0-12.1,7.7-27.5-9.4c-15.4-17.1-28.1-13.9-28.1-13.9l0.4-8.6c0,0-65.4,1.2-87.8-11.5
			S552.3-2.2,493.6,0.1C434.9,2.3,423.4,132,423.4,132l-1.2,28.9c0,0-3.7-1.5-6.4-10.2s-10.4-2.6-11.9,1.6s-0.1,29.8,4.7,31.2
			s7.3-9.6,7.3-9.6l2.6,4.2l-5,121.2l0.8-0.6c0.2,0.2,19.7,25.5-4.3,53.1c2.5,1.8,9,7.1,10.7,16.5c1.8,9.7-2.1,20.5-11.5,32.1
			c2.3,2.4,9.5,10.9,10,23.4c0.4,10.4-4.2,20.7-13.4,30.8c2.3,3.5,12,19.9,8.5,36.2c-2,8.9-7.6,16.1-16.7,21.6l-0.5-0.9l-1.1,41
			l0.8-0.7c0.5,0.6,13,15,11.7,31.7c-0.6,8.5-4.8,16-12.3,22.3l-0.6-0.8l-0.4,12.7c0,0-13.4-2.2-17.1,23s9,40.7,9,40.7l0.6,12
			l0.8-0.5c0.6,0.9,14.8,23,10.1,45.2c-2.3,10.8-8.7,19.7-19.2,26.5l-1.1-1.7c10-6.5,16.1-15,18.3-25.2c4.2-20-8-40.8-9.7-43.4
			c-2.8,3.5-13.3,17.7-16.3,34.7c-3.4,19.6,8.2,34.7,8.2,34.7l-3.5,19.1l0.9-0.5c15.8,25.1,12,46.4,6,60
			c-6.5,14.6-16.5,23.1-16.9,23.5l-0.6-0.8l0,0c-0.2,2-13.7,79-52.6,74.1S280.1,803.4,293,753.2s0-184.6,1.2-221.1
			c1.2-36.5,17.8-21.5,22.1-72.6c4.3-51-25.5-51.6-89.7-33.4s-169.5,121-195,148.6s-49.5,82.8-12.7,93.5c36.7,10.7,41.2-8.5,81-9.3
			s42.5,95.2,38.2,127.1c-4.3,31.8-14.2,181-11.6,222.5s53.1,136.7,204.2,93.8C481.7,1059.5,476.4,925,476.4,925l-8.7-193.5
			l-0.6,0.8c-8.4-5.8-13.3-13.2-14.6-22c-2.8-18.7,11.5-36.9,12.2-37.7l1.6,1.2c-0.1,0.2-14.4,18.4-11.8,36.2
			c1.2,8.2,5.9,15.1,13.8,20.6l-0.6,0.8c0,0,7.9,2.5,11-23.7c3.1-26.1-13.2-34.6-13.2-34.6l-3.5-26.3l-0.6,0.8
			c-7.5-6.1-11.5-13.5-12.1-21.8c-1.2-17.7,13.6-33.7,14.2-34.4l0.7,0.7l0,0l-4.1-61c10.8-2,10.1-11.4,10.1-11.4l-4.1-344l-8.3-1.9
			c-7.4-77.7,16.8-112.2,43.5-120.3c26.7-8.1,44,53.7,66.5,70.8c22.5,17.2,41.3,11.1,41.3,11.1l4.2,5c0,0,24.8,4.8,37.6,2
			s10-8.4,10-8.4l68.3-2.1C735.8,118,726.7,113.7,726.7,113.7L726.7,113.7z M203.3,572.5c-92.9,87.7-175.7,94.8-186.5,86.8
			c-10.8-8-14.2-58.6,104.4-157.2c98.5-81.9,157.5-78.2,174.6-74.6c3.3,0.7,5.9,3.1,6.7,6.4C310.9,466.5,291.8,488.9,203.3,572.5
			L203.3,572.5z M405.7,655.3c-1.8,10.6-8,19.5-18.3,26.7l-1.1-1.6c9.9-6.9,15.8-15.4,17.5-25.4c3.2-18.8-9.5-36.6-9.6-36.8l1.6-1.2
			C396.3,617.7,409.1,635.6,405.7,655.3L405.7,655.3z"/>
		<polygon points="396.9,511.4 396.9,511.4 396.9,511.4 		"/>
		<path d="M407.7,351.2C407.7,351.2,407.7,351.2,407.7,351.2l-0.9,1l0.6,0.3c0.6-0.4,1-0.6,1-0.6S408.2,351.7,407.7,351.2
			L407.7,351.2z"/>
		<path d="M407,399.8l-0.6,0.7l0.4,0.4c0.6-0.3,1-0.4,1-0.4S407.5,400.2,407,399.8L407,399.8z"/>
		<path d="M403.7,453.7L403.7,453.7l-0.5,0.6l0.5,0.7c0,0,0,0,0.1,0.1c0.5-0.4,0.8-0.7,0.8-0.7S404.2,454.1,403.7,453.7z"/>
		<path d="M395.8,552.4l-0.8,0.7c0,0,0.1,0.1,0.1,0.2C395.6,552.6,395.8,552.4,395.8,552.4L395.8,552.4L395.8,552.4z"/>
		<polygon points="395.4,604.9 395.4,604.9 395.4,604.9 		"/>
		<path d="M387.4,693.2l-0.8,0.5c0,0,0.1,0.1,0.2,0.3C387.2,693.5,387.4,693.2,387.4,693.2L387.4,693.2L387.4,693.2z"/>
		<path d="M363.8,864l0.6,0.8c0-0.2-0.1-0.6-0.2-1.2C364,863.9,363.8,864,363.8,864L363.8,864z"/>
		<path d="M375.1,782.6l-0.9,0.5c0.1,0.1,0.1,0.2,0.2,0.3C374.9,782.9,375.1,782.6,375.1,782.6L375.1,782.6z"/>
		<polygon points="467.7,731.4 467.7,731.4 467.7,731.4 		"/>
		<path d="M462.6,646.2c0,0-0.1-0.1-0.1-0.1c-0.2,0.3-0.3,0.6-0.5,0.9L462.6,646.2L462.6,646.2z"/>
		<path d="M464.9,592.8l-0.7-0.7c0,0,0.2,0.3,0.6,0.8C464.9,592.9,464.9,592.9,464.9,592.8L464.9,592.8z"/>
	</g>
</g>
</svg>
